<svg width="100" height="99" viewBox="0 0 100 99" fill="none" xmlns="http://www.w3.org/2000/svg">
<path d="M31.9322 57.3057C31.8546 57.3057 31.6993 57.2281 31.6217 57.1505L24.0929 49.9322C23.9377 49.7769 23.8601 49.5441 23.9377 49.3112L26.3438 39.1435C26.4214 38.9106 26.5766 38.7554 26.8095 38.6778L36.822 35.7283C37.0549 35.6507 37.2877 35.7283 37.443 35.8836L45.0494 43.1019C45.2046 43.2571 45.2822 43.49 45.2046 43.7228L42.7985 53.8906C42.7209 54.1235 42.5657 54.2787 42.3328 54.3563L32.3203 57.3057C32.165 57.3057 32.0874 57.3057 31.9322 57.3057ZM25.1795 49.3112L32.2427 55.9863L41.5566 53.1921L43.8851 43.7228L36.822 37.0478L27.508 39.842L25.1795 49.3112Z" fill="#213564" stroke="#213564" stroke-width="0.582124" stroke-miterlimit="10"/>
<path d="M34.4157 47.1379C34.3381 47.1379 34.1829 47.0603 34.1053 46.9827L26.4989 39.7644C26.266 39.5315 26.266 39.1434 26.4989 38.833C26.7317 38.6001 27.1198 38.6001 27.4303 38.833L34.7262 45.8185L44.3507 42.9466C44.6611 42.869 45.0492 43.0243 45.1268 43.4123C45.2045 43.7228 45.0492 44.1109 44.6611 44.1885L34.6486 47.1379C34.571 47.2156 34.4934 47.2156 34.4157 47.1379Z" fill="#213564" stroke="#213564" stroke-width="0.582124" stroke-miterlimit="10"/>
<path d="M31.9324 57.3058C31.6219 57.2282 31.3891 56.9177 31.4667 56.5296L33.8728 46.3618C33.9504 46.0514 34.2609 45.8185 34.649 45.8961C34.9594 45.9738 35.1923 46.2842 35.1147 46.6723L32.7086 56.8401C32.631 57.1506 32.3205 57.3834 31.9324 57.3058Z" fill="#213564" stroke="#213564" stroke-width="0.582124" stroke-miterlimit="10"/>
<path d="M50.3273 84.7043C69.8315 84.7043 85.6428 68.893 85.6428 49.3888C85.6428 29.8846 69.8315 14.0732 50.3273 14.0732C30.823 14.0732 15.0117 29.8846 15.0117 49.3888C15.0117 68.893 30.823 84.7043 50.3273 84.7043Z" stroke="#213564" stroke-width="2" stroke-miterlimit="10"/>
<path d="M26.7315 75.6611C40.9441 88.4287 63.032 87.0165 76.0662 72.5071C89.1004 57.9976 88.1451 35.8852 73.9325 23.1177C59.7199 10.3501 37.6319 11.7623 24.5977 26.2717C11.5635 40.7812 12.5188 62.8936 26.7315 75.6611Z" stroke="#213564" stroke-width="2" stroke-miterlimit="10"/>
<path d="M58.8655 71.6648C58.7879 71.6648 58.6327 71.6648 58.555 71.5871L49.3187 66.6973C49.0858 66.6197 49.0082 66.3868 49.0082 66.154L48.6201 55.6757C48.6201 55.4429 48.6977 55.21 48.9306 55.1324L57.7789 49.544C57.9341 49.3888 58.2446 49.3888 58.3998 49.544L67.6362 54.4339C67.869 54.5115 67.9466 54.7443 67.9466 54.9772L68.3347 65.4554C68.3347 65.6883 68.2571 65.9211 68.0243 65.9987L59.176 71.5871C59.0984 71.6648 59.0207 71.6648 58.8655 71.6648ZM50.2501 65.7659L58.8655 70.2677L67.0929 65.0674L66.7048 55.3653L58.0893 50.8635L49.862 56.0638L50.2501 65.7659Z" fill="#213564" stroke="#213564" stroke-width="0.582124" stroke-miterlimit="10"/>
<path d="M58.4773 61.2642C58.3996 61.2642 58.2444 61.2642 58.1668 61.1866L48.9304 56.2967C48.6199 56.1415 48.4647 55.7534 48.6976 55.443C48.8528 55.1325 49.2409 54.9773 49.5513 55.2101L58.4773 59.8671L67.0151 54.4339C67.3255 54.2787 67.7136 54.3563 67.8689 54.6668C68.0241 54.9773 67.9465 55.3653 67.636 55.5206L58.7877 61.109C58.7101 61.1866 58.5549 61.2642 58.4773 61.2642Z" fill="#213564" stroke="#213564" stroke-width="0.582124" stroke-miterlimit="10"/>
<path d="M58.8654 71.6648C58.4774 71.6648 58.2445 71.432 58.1669 71.0439L57.7788 60.6433C57.7788 60.2552 58.0117 60.0223 58.3997 59.9447C58.7878 59.9447 59.0207 60.1775 59.0983 60.5656L59.4864 70.9663C59.4864 71.3543 59.2535 71.6648 58.8654 71.6648Z" fill="#213564" stroke="#213564" stroke-width="0.582124" stroke-miterlimit="10"/>
<path d="M56.3038 48.4573C56.2261 48.4573 56.0709 48.4574 55.9933 48.3797L46.5241 43.9556C46.2912 43.878 46.2136 43.6451 46.136 43.4123L45.2046 33.0117C45.2046 32.7788 45.2822 32.546 45.4374 32.4683L53.9753 26.4142C54.1305 26.259 54.441 26.259 54.5962 26.3366L64.0654 30.7608C64.2983 30.8384 64.3759 31.0712 64.4535 31.3041L65.3849 41.7047C65.3849 41.9376 65.3073 42.1704 65.152 42.248L56.6142 48.3021C56.5366 48.4574 56.459 48.4573 56.3038 48.4573ZM47.3779 43.0242L56.2261 47.1379L64.2206 41.5495L63.3669 31.8474L54.5186 27.7337L46.5241 33.3221L47.3779 43.0242Z" fill="#213564" stroke="#213564" stroke-width="0.582124" stroke-miterlimit="10"/>
<path d="M55.3722 38.0568C55.2946 38.0568 55.1394 38.0568 55.0618 37.9791L45.5926 33.6326C45.2821 33.4774 45.1269 33.0893 45.2821 32.7788C45.4373 32.4684 45.8254 32.3131 46.1359 32.4684L55.2946 36.7373L63.522 30.916C63.8325 30.6832 64.2205 30.7608 64.3758 31.0713C64.6086 31.3817 64.531 31.7698 64.2205 31.925L55.6827 37.9791C55.6051 38.0568 55.5275 38.0568 55.3722 38.0568Z" fill="#213564" stroke="#213564" stroke-width="0.582124" stroke-miterlimit="10"/>
<path d="M56.3038 48.4573C55.9157 48.4573 55.6828 48.2245 55.6052 47.914L54.6738 37.5134C54.6738 37.1253 54.9067 36.8924 55.2171 36.8148C55.6052 36.8148 55.8381 37.0477 55.9157 37.3581L56.8471 47.7588C56.9247 48.1468 56.6919 48.4573 56.3038 48.4573Z" fill="#213564" stroke="#213564" stroke-width="0.582124" stroke-miterlimit="10"/>
<path d="M25.9556 73.7604L74.6988 25.0172" stroke="#213564" stroke-width="2" stroke-miterlimit="10"/>
</svg>
