<svg width="98" height="98" viewBox="0 0 98 98" fill="none" xmlns="http://www.w3.org/2000/svg">
<path fill-rule="evenodd" clip-rule="evenodd" d="M38.8831 62.9868C35.2306 62.8907 31.578 61.9295 28.2138 60.1993C24.4652 58.2769 20.9087 55.4895 16.9678 51.8369C15.0454 49.8184 13.6997 47.896 12.7385 45.8775C12.1618 44.5318 11.7773 43.3784 11.5851 42.225C11.489 41.1676 11.3929 39.6297 11.9696 38.0918C12.5463 36.65 13.4114 35.4966 14.5648 34.7276C15.7183 33.9587 17.3523 33.5742 18.8902 33.7664C20.2359 33.9587 21.3893 34.3431 22.5428 34.8237C22.8311 35.016 23.0234 35.1121 23.3117 35.2082C22.4466 32.9975 21.7738 30.6906 21.3893 28.1915C21.101 26.3652 21.101 24.635 21.1971 23.0971C21.2932 21.5592 21.5816 19.8291 22.3505 18.0028C22.735 17.2338 23.2156 16.3687 23.9846 15.5998C24.7535 14.8308 25.7147 14.2541 26.6759 14.0619C27.541 13.8696 28.5983 13.8696 29.6556 14.0619C30.6168 14.2541 31.4819 14.6386 32.2508 15.0231C35.0383 16.6571 37.5374 18.964 39.5559 22.0398C41.19 24.4428 42.5357 27.2303 43.7852 30.8828C44.8425 33.8625 45.6115 37.0345 46.1882 40.3026C46.6688 43.3784 46.861 46.6465 46.861 49.9145C46.7649 52.6059 46.5727 55.3934 46.0921 58.1808C46.1402 58.1808 46.1882 58.1568 46.2363 58.1328C46.2843 58.1087 46.3324 58.0847 46.3804 58.0847C46.8636 57.9237 47.3467 57.8301 47.7733 57.7474C47.856 57.7314 47.9365 57.7158 48.0145 57.7002C48.1908 57.6561 48.3469 57.6323 48.4921 57.6101C48.6635 57.5839 48.8196 57.56 48.9757 57.508C49.6485 57.3157 50.3214 56.9313 50.7058 56.4507C50.8981 56.1623 51.0903 55.874 51.2826 55.4895C51.322 55.4304 51.3654 55.3592 51.4137 55.28C51.6011 54.9728 51.8616 54.5456 52.2438 54.2399C52.6282 53.8554 53.1088 53.6632 53.6855 53.5671C53.7817 53.471 53.9739 53.471 54.07 53.471C52.6051 30.3575 48.3838 24.6782 43.1564 17.6455C42.21 16.3723 41.2307 15.0547 40.2288 13.5813C40.0365 13.1968 40.5171 12.8123 40.8055 13.1007C43.2085 15.3114 46.9572 19.1562 50.3214 24.4428C54.2623 30.5945 54.9351 45.2047 54.839 53.3748H55.0312C55.8002 53.471 56.6653 53.7593 57.242 54.2399C63.5859 50.4912 75.5047 44.1473 82.3292 44.9163C87.7049 45.3797 92.2763 47.005 95.2677 48.0685C95.3785 48.1079 95.4873 48.1466 95.5937 48.1844C95.9782 48.2805 95.786 48.9533 95.4976 48.8572C93.8683 48.637 92.378 48.3676 90.9425 48.108C82.9774 46.6677 76.6985 45.5323 57.7226 54.8166C58.2993 55.6817 58.2993 56.6429 58.2032 57.2196C64.1626 54.8166 70.2181 53.471 76.1776 53.0865C76.2845 53.0865 76.3951 53.0846 76.5087 53.0827C77.212 53.0709 78.028 53.0572 78.7728 53.471C79.2534 53.6632 79.6379 54.0477 79.9262 54.4322C80.3107 54.9128 80.5029 55.2972 80.5991 55.7778C80.9408 56.974 80.3712 58.0182 80.1054 58.5056C80.0722 58.5665 80.0437 58.6187 80.0223 58.6614C79.7719 59.0372 79.4806 59.3721 79.2016 59.6928C79.0524 59.8644 78.9068 60.0319 78.7728 60.1993C78.6767 60.3916 78.5806 60.4877 78.4844 60.5838C76.3698 62.9868 73.6785 64.9092 70.6026 66.2549C68.0074 67.4083 65.0277 68.1773 61.279 68.6579C60.9907 68.754 60.7984 68.754 60.5101 68.754H60.51C60.2817 68.7997 60.0534 68.8236 59.8354 68.8465C59.5945 68.8718 59.3662 68.8958 59.1644 68.9462C58.9721 68.9462 58.7799 69.0424 58.7799 69.0424C58.6838 69.0424 58.6838 69.1385 58.6838 69.2346V70.0036L58.7799 71.157C58.876 71.9259 58.876 72.8871 58.6838 73.9445C58.6393 74.0778 58.6 74.2059 58.5623 74.3289C58.4368 74.7382 58.3288 75.0906 58.1071 75.3863C57.8187 75.8669 57.5303 76.2513 57.0497 76.6358C56.6653 76.9242 56.1847 77.1164 55.7041 77.3087C55.1273 77.5009 54.6467 77.597 54.1661 77.597H53.8778C53.1088 77.597 52.2438 77.4048 51.3787 76.9242C50.7472 76.6435 50.2182 76.2605 49.7543 75.9245C49.5826 75.8002 49.4198 75.6823 49.264 75.5785C47.8222 74.6173 46.7649 73.0794 45.996 71.8298L45.7076 71.2531C45.227 70.4841 44.7464 69.7152 44.2658 69.0424L38.5947 73.7522C37.6336 74.5212 36.7685 75.3863 35.7112 76.5397C35.3007 76.9502 34.9603 77.3607 34.5702 77.8311C34.5036 77.9114 34.4356 77.9935 34.3655 78.0776L34.1732 78.2699C33.8849 78.4621 33.6926 78.6543 33.5004 78.9427L33.0198 79.4233L32.9237 79.5194C32.9237 79.5194 32.8276 79.6155 32.6353 79.7116C32.5873 79.7597 32.5152 79.7837 32.4431 79.8078C32.371 79.8318 32.2989 79.8558 32.2508 79.9039C32.1547 80 31.9625 80 31.7703 80H31.3858H31.2897H31.1935C30.8091 79.9039 30.5207 79.7116 30.3285 79.5194C30.1122 79.3031 30.0041 79.0328 29.923 78.83C29.8959 78.7625 29.8719 78.7024 29.8479 78.6543C29.7517 78.1737 29.7517 77.7892 29.7517 77.5009C29.7517 77.0195 29.8501 76.6366 29.9413 76.2816C29.9776 76.1404 30.0127 76.0036 30.0401 75.8669C30.3285 74.8095 30.7129 73.8483 31.0974 73.1755C31.8664 71.7337 32.8276 70.1958 33.981 68.5618C35.4228 66.5432 37.0568 64.717 38.8831 62.9868ZM41.4783 60.7761C42.6318 59.911 43.9775 58.9498 45.6115 58.2769C46.0921 52.0292 45.7076 46.0697 44.4581 40.4948C43.7852 37.5151 42.824 34.5354 41.6706 31.5557C40.3249 28.1915 38.9792 25.5962 37.4413 23.3855C36.4801 22.1359 35.5189 20.9825 34.4616 20.0213C33.3082 18.964 32.0586 18.0028 30.9052 17.4261C30.4246 17.1377 29.8479 16.9455 29.0789 16.7532C28.4061 16.6571 27.8293 16.6571 27.3487 16.7532C26.2914 17.0416 25.5225 17.9067 24.9457 19.1562C24.4652 20.2135 24.1768 21.5592 24.0807 23.2894C23.9846 24.635 23.9846 26.0768 24.2729 27.7109C24.8496 30.8828 26.0031 34.0548 26.9643 36.4578C27.001 36.5679 27.0377 36.664 27.0691 36.7461C27.1198 36.879 27.1565 36.9751 27.1565 37.0345V37.1306V37.2267V37.3228H27.0604H26.9643L25.2341 39.053H25.138C25.0419 38.9569 25.0419 38.9569 24.9457 38.9569H24.8496L24.4652 38.8608C24.2729 38.7646 24.0566 38.6685 23.8404 38.5724C23.6241 38.4763 23.4078 38.3802 23.2156 38.284C22.5428 37.9957 21.966 37.7073 21.3893 37.419C20.4281 37.0345 19.3708 36.65 18.4096 36.5539C17.5445 36.4578 16.7756 36.65 16.1027 37.0345C15.4299 37.419 14.8532 38.1879 14.4687 39.053C13.6997 40.8793 14.4687 43.09 15.1415 44.7241C16.0066 46.4542 17.1601 48.2805 18.7941 50.1068C22.5428 54.1438 25.7147 56.8351 29.0789 58.7575C31.0974 59.911 33.212 60.7761 35.2306 61.3528C36.7685 61.7373 38.3064 62.0256 39.9404 62.1217C40.421 61.6411 40.9977 61.1605 41.4783 60.7761ZM50.9942 61.7373C53.7817 59.8149 55.9924 58.3731 58.1071 57.1235C58.0109 56.2584 57.7226 55.4895 57.3381 55.2972C57.1459 55.2972 57.0497 55.2011 56.9536 55.0089C56.473 54.7205 55.8963 54.5283 55.2235 54.6244L54.07 54.9128C53.6855 55.0089 53.3972 55.2011 53.2049 55.3933C53.0642 55.5341 52.975 55.7263 52.8619 55.9701C52.8205 56.0593 52.7759 56.1554 52.7243 56.2584C52.6282 56.6429 52.436 57.1235 52.0515 57.6041C51.3787 58.3731 50.6097 58.9498 49.5524 59.4304C49.2303 59.5914 48.8408 59.685 48.4968 59.7677C48.4302 59.7837 48.3652 59.7993 48.3028 59.8149L48.3028 59.8149C47.9183 59.911 47.5339 60.0071 47.1494 60.1993C45.6115 60.8722 44.2658 61.9295 43.2085 62.8907C40.8055 64.9092 38.4986 67.5044 36.4801 70.388C35.4228 71.8298 34.6538 73.1755 33.981 74.5212C34.9422 73.4639 35.9995 72.5027 37.0568 71.7337C37.2425 71.5923 37.4289 71.45 37.6166 71.3068C39.47 69.8928 41.4463 68.385 43.9775 66.6394C45.8816 65.1922 47.8462 63.8657 49.632 62.66C50.0997 62.3441 50.5552 62.0365 50.9942 61.7373ZM58.3954 57.4119C57.8187 57.7963 57.3381 58.1808 56.8575 58.5653C56.1746 59.1344 55.5066 59.7185 54.8419 60.2998C53.8224 61.1912 52.8104 62.0762 51.7632 62.8907L51.0903 63.4674C50.2839 64.1465 49.44 64.8443 48.5835 65.5526C47.5002 66.4483 46.3967 67.3609 45.3231 68.2734C45.734 68.6843 46.0732 69.131 46.4064 69.5698C46.6188 69.8495 46.8287 70.1261 47.0533 70.388C47.1013 70.4841 47.1734 70.5803 47.2455 70.6764C47.3176 70.7725 47.3897 70.8686 47.4378 70.9647C48.399 72.2143 49.3602 73.2716 50.5136 73.8483C51.7632 74.6173 53.1088 75.2901 54.1661 75.0979C54.2215 75.0795 54.2733 75.0645 54.3222 75.0505C54.5283 74.9912 54.6836 74.9464 54.839 74.7134C55.1273 74.6173 55.3196 74.5212 55.5118 74.3289C55.8002 74.0406 55.9924 73.6561 56.0885 73.0794C56.0885 72.5988 56.0885 72.0221 55.9924 71.2531C55.8963 71.157 55.8963 70.9647 55.8963 70.8686C55.8963 70.7822 55.8769 70.6764 55.8555 70.5599C55.8293 70.4172 55.8002 70.2584 55.8002 70.0997V70.0036C55.8002 69.8818 55.7905 69.7601 55.7804 69.6322C55.7586 69.3563 55.7345 69.052 55.8002 68.6579C55.8042 68.6419 55.8083 68.6252 55.8127 68.6076C55.9131 68.202 56.1164 67.3804 56.7614 66.7355C57.3381 66.2549 57.9148 66.0626 58.4915 65.8704C58.8569 65.7486 59.2608 65.704 59.63 65.6632C59.8436 65.6396 60.0455 65.6173 60.2217 65.582C60.3804 65.582 60.5392 65.5529 60.6819 65.5267C60.7984 65.5053 60.9042 65.4859 60.9906 65.4859C64.0665 65.1976 67.0462 64.5247 69.6414 63.5635C72.525 62.5062 75.0241 60.9683 77.0426 59.0459L77.331 58.7575L77.3551 58.7357C78.4028 57.7832 79.3481 56.924 79.1573 55.9701C79.0611 55.3934 78.6767 54.9128 78.2922 54.6244C77.8116 54.4322 77.2349 54.2399 76.3698 54.2399H75.3125C72.1405 54.2399 69.6414 54.4322 67.2384 54.9128C64.5471 55.2972 61.7596 56.1623 58.3954 57.4119ZM10.6239 33.2858C7.16361 32.3246 5.62569 34.0548 4.6645 36.0733C4.08778 37.5151 3.60718 39.5336 4.47226 42.8978C6.10629 48.9533 9.66272 53.5671 15.0454 56.739C15.8144 57.1235 16.3911 57.1235 17.5445 57.0274C14.7571 54.9128 12.4502 52.702 10.6239 50.0107C8.79764 47.1271 7.16361 44.2435 6.97137 40.7832C6.77913 37.8996 6.97137 34.9199 10.6239 33.2858Z" fill="#213564"/>
</svg>
