<svg width="135" height="96" viewBox="0 0 135 96" fill="none" xmlns="http://www.w3.org/2000/svg">
<path d="M63.3151 67.67C62.3701 67.4014 62.3701 68.207 62.3701 68.8783C61.0201 69.8182 59.5351 70.8923 58.0501 71.8322C44.8201 72.5035 34.8301 65.7902 26.1901 57.063C23.3551 54.1091 20.7901 50.7525 19.1701 46.8588C17.8201 43.3679 17.4151 39.6084 20.2501 36.5203C22.9501 33.2979 26.4601 34.2378 29.9701 35.4462C31.7251 36.1175 33.3451 36.9231 34.9651 37.7287C35.3701 37.863 35.6401 37.9972 36.0451 38.1315C36.0451 37.863 35.9101 37.4602 35.7751 37.0574C32.9401 30.0755 30.7801 23.0937 31.9951 15.4406C33.3451 7.25037 38.7451 4.83359 45.6301 9.53289C51.8401 13.8294 55.4851 20.0056 58.3201 26.8532C63.5851 39.8769 65.3401 53.5721 63.3151 67.67Z" fill="#FFD100"/>
<path d="M80.73 63.5077C88.155 60.5539 96.12 58.6742 104.355 58.2714C106.65 58.2714 109.35 57.8686 110.43 60.4196C111.51 62.9707 109.62 64.8504 108 66.4616C101.52 73.1749 93.015 75.8602 83.97 76.6658C80.46 77.0686 79.11 77.4714 79.65 81.3651C80.055 83.9161 80.19 87.2728 77.22 88.7497C74.115 90.0923 71.415 88.3469 68.715 86.6014C65.34 84.3189 63.99 80.291 61.02 77.7399C67.635 73.0406 74.115 68.3413 80.73 63.5077Z" fill="#FFD100"/>
<path d="M4.99502 43.2336C3.51002 37.9972 4.18502 34.7749 5.13002 32.6266C6.75002 29.4042 9.04502 26.7189 14.58 28.3301C8.77502 30.8812 8.64002 35.4462 8.91002 40.1455C9.31502 45.5161 11.745 50.0812 14.715 54.5119C17.55 58.6742 21.33 62.1651 25.65 65.5217C23.895 65.7902 22.815 65.656 21.735 64.9847C13.23 60.0168 7.56002 52.7665 4.99502 43.2336Z" fill="#002E6D"/>
<path d="M80.46 63.3734C80.73 60.1511 78.165 58.2713 74.79 59.0769C71.145 60.0168 73.035 62.2993 69.255 64.4476C66.285 66.0588 63.99 64.179 56.16 71.5636C46.71 80.2909 41.445 91.972 44.145 92.5091C44.955 92.6434 47.655 88.2126 51.975 84.856C62.775 76.3972 80.46 63.3734 80.46 63.3734Z" fill="#002E6D"/>
<path d="M74.925 59.0769C72.63 20.9455 64.935 16.9175 55.89 3.49092C55.485 2.95386 56.16 2.41679 56.565 2.81959C60.075 6.04197 65.07 11.2783 69.795 18.3944C75.465 27.1217 76.14 47.9329 76.005 58.9427C76.005 59.614 75.06 59.7483 74.925 59.0769Z" fill="#002E6D"/>
<path d="M79.245 60.4196C110.565 44.9791 117.18 49.9469 131.76 51.8266C132.3 51.8266 132.57 51.1553 132.03 50.8867C127.98 49.2756 121.635 47.2616 113.805 46.456C104.355 45.3818 87.48 54.3777 78.84 59.4797C78.3 59.7483 78.705 60.6881 79.245 60.4196Z" fill="#002E6D"/>
</svg>
