<svg width="99" height="98" viewBox="0 0 99 98" fill="none" xmlns="http://www.w3.org/2000/svg">
<path d="M29.7131 43.788C29.6291 44.208 29.6291 44.544 29.6291 44.88V45.132C29.4611 46.728 29.3771 48.828 29.8811 50.76C30.3011 52.524 31.3931 54.204 32.9051 55.464H32.9891H33.0731C33.1571 55.38 33.1571 55.38 33.0731 55.296C31.8131 53.952 30.9731 52.272 30.7211 50.592C30.4691 49.08 30.5531 47.316 30.9731 45.3L31.2251 44.04C31.3091 43.62 31.3931 43.284 31.5611 42.864C31.8971 42.108 32.3171 41.436 32.9051 40.932C33.1571 40.68 33.4931 40.428 33.8291 40.26C34.1651 40.092 34.5011 39.924 34.9211 39.756C35.5931 39.504 36.3491 39.252 37.3571 39L37.5251 38.916C38.5331 39.084 39.5411 39.252 40.5491 39.42C42.1451 39.672 43.5731 39.84 45.0011 40.176C45.7571 40.344 46.5131 40.596 46.9331 40.848C47.0171 40.848 47.1011 40.932 47.1851 41.016C47.4371 41.184 47.8571 41.436 48.1931 41.604C48.6971 41.856 49.2011 42.024 49.7051 42.108C50.4611 42.276 51.1331 42.36 51.8051 42.36C53.1491 42.36 54.3251 42.108 55.5011 41.52C55.5851 41.52 55.5851 41.436 55.5851 41.436C55.5851 41.436 55.5851 41.352 55.5011 41.352C54.9971 41.184 54.4931 41.016 53.9891 40.764C52.8131 40.344 51.6371 39.924 50.6291 39.42C49.8731 39 49.4531 38.748 48.6971 38.16C47.6051 37.404 46.5971 37.236 45.6731 37.068H45.5891C43.6571 36.732 41.8091 36.816 40.0451 36.984C39.3731 37.068 38.7011 37.152 38.0291 37.32L38.1131 33.12C38.1131 33.036 38.1131 32.868 38.1131 32.784C38.1131 32.616 38.1131 32.448 38.1131 32.364C38.1131 32.196 38.1131 32.028 38.1971 31.944V31.86C38.1971 31.776 38.2811 31.692 38.4491 31.524C38.6171 31.44 38.8691 31.272 39.1211 31.188C39.5411 31.02 40.1291 30.936 40.6331 30.768L41.1371 30.348C42.6491 29.928 44.1611 29.508 45.5051 28.668C46.4291 28.08 47.0171 27.492 47.5211 26.82C48.0251 26.064 48.3611 25.056 48.3611 24.048C48.3611 23.04 48.1931 22.2 47.9411 21.276C48.1931 21.36 48.4451 21.444 48.6971 21.528C49.8731 21.948 51.0491 22.452 52.1411 22.956C54.4931 24.048 56.6771 25.392 58.6091 26.736C59.5331 27.408 60.5411 28.164 61.3811 29.172C62.2211 30.012 62.9771 31.02 63.5651 32.112C64.1531 33.12 64.5731 34.296 64.9091 35.472C65.0771 35.976 65.1611 36.48 65.1611 37.236C65.1611 37.404 65.1611 37.572 65.1611 37.74C65.1611 37.908 65.1611 37.992 65.1611 38.16C65.1611 38.244 65.1611 38.328 65.1611 38.412C65.1611 38.664 65.1611 38.916 65.2451 39.336C65.0771 39.504 64.9091 39.672 64.8251 39.756C64.4051 40.008 63.9851 40.26 63.4811 40.512C63.2291 40.68 62.9771 40.848 62.7251 40.932C61.8851 41.436 60.9611 41.94 59.8691 43.032V43.116C59.8691 43.116 59.8691 43.2 59.9531 43.2C60.7091 43.788 61.5491 44.04 62.4731 44.04C62.5571 44.04 62.7251 44.04 62.8091 44.04C63.7331 44.04 64.5731 43.704 65.1611 43.452C66.0011 42.948 66.5891 42.276 66.9251 41.604C67.0091 41.688 67.1771 41.856 67.2611 41.94C67.5971 42.36 67.9331 42.696 68.2691 43.116C69.0251 44.124 69.4451 45.636 69.4451 46.896C69.5291 48.24 68.9411 49.668 68.3531 50.928C67.6811 52.188 66.9251 53.532 66.0851 54.624C66.0851 54.708 66.0851 54.708 66.0851 54.792C66.0851 54.876 66.1691 54.792 66.2531 54.792C67.4291 53.616 68.2691 52.356 68.9411 51.264C69.3611 50.592 69.6971 49.92 70.0331 49.332C70.3691 48.66 70.5371 47.82 70.6211 46.98C70.7051 45.3 70.2851 43.704 69.5291 42.36C69.1931 41.856 68.7731 41.352 68.4371 40.932C67.9331 40.26 67.4291 39.672 67.1771 39.084C67.1771 39 67.1771 38.664 67.1771 38.328C67.1771 37.992 67.1771 37.656 67.1771 37.32C67.1771 36.48 67.0931 35.892 66.9251 35.136C66.6731 33.792 66.1691 32.364 65.5811 31.104C64.9931 29.928 64.1531 28.668 63.2291 27.66C62.3051 26.568 61.1291 25.56 60.2051 24.888C58.1891 23.292 56.0051 21.864 53.4011 20.688C52.2251 20.1 50.9651 19.596 49.7051 19.176C49.0331 18.924 48.4451 18.756 47.8571 18.504C47.6051 18.42 47.2691 18.336 47.0171 18.252L46.5971 18.084C46.5131 18.084 46.4291 18.084 46.3451 18C46.0931 18 45.8411 18 45.5891 18.084C45.0011 18.336 44.6651 18.924 44.6651 19.344C44.6651 19.68 44.7491 20.016 44.9171 20.352C45.5891 21.696 46.0091 22.956 45.9251 23.88C45.9251 24.384 45.7571 24.888 45.5051 25.308C45.2531 25.728 44.9171 26.064 44.3291 26.4C43.2371 27.156 41.8091 27.576 40.6331 27.912C40.4651 27.996 40.2131 27.996 40.0451 28.08C39.5411 28.248 39.0371 28.416 38.4491 28.584C37.9451 28.752 37.5251 29.004 37.1891 29.256C36.6851 29.592 36.3491 30.18 36.1811 30.684C36.0971 31.02 36.0131 31.356 36.0131 31.776C36.0131 32.028 36.0131 32.28 36.0131 32.448L36.0971 36.984C34.5011 37.488 32.9891 38.16 31.7291 39.504C31.0571 40.428 30.5531 41.268 30.2171 42.276C29.8811 42.78 29.7971 43.284 29.7131 43.788Z" fill="#213564" stroke="#213564" stroke-width="0.357168" stroke-miterlimit="10"/>
<path d="M87.4211 61.68C85.7411 60.756 84.2291 59.916 82.7171 59.16L82.4651 58.992C81.7091 58.572 81.0371 58.236 80.0291 58.152C79.1051 57.984 78.0971 58.236 77.0051 58.656C76.0811 59.076 75.4091 59.748 74.7371 60.252C74.6531 60.336 74.4851 60.42 74.4011 60.504C73.8971 61.008 73.3931 61.428 72.8891 61.764C72.5531 62.016 72.2171 62.268 71.8811 62.268C71.6291 62.352 71.2931 62.352 70.8731 62.268C70.2011 62.1 69.4451 61.848 68.6891 61.428C68.0171 61.008 67.4291 60.588 66.7571 60.084C66.0011 59.58 65.2451 58.908 64.4051 58.488C63.3971 57.9 62.4731 57.564 61.4651 57.396C60.9611 57.312 60.3731 57.312 59.7011 57.396C59.1971 57.48 58.6091 57.648 58.1051 57.9C57.1811 58.32 56.5091 58.824 55.9211 59.412L55.7531 59.58C55.5011 59.748 55.3331 60 55.0811 60.168C54.6611 60.588 54.2411 60.924 53.8211 61.26C53.1491 61.764 52.4771 62.184 51.8051 62.436C51.1331 62.604 50.3771 62.52 49.7891 62.352C49.0331 62.184 48.1931 61.764 47.5211 61.428C46.7651 61.008 46.0931 60.588 45.4211 60.168C45.0011 59.916 44.7491 59.664 44.4131 59.412C44.0771 59.16 43.7411 58.908 43.4051 58.572C43.0691 58.404 42.6491 58.068 42.0611 57.732C41.4731 57.48 40.8851 57.312 40.2971 57.312C39.7091 57.312 39.1211 57.396 38.5331 57.564C38.1131 57.732 37.6091 57.9 37.1051 58.068C36.3491 58.404 35.5091 58.908 34.6691 59.496C33.9131 60 33.2411 60.588 32.5691 61.176L32.4851 61.428C31.9811 61.932 31.4771 62.436 30.9731 62.604C30.4691 62.772 29.7131 62.688 28.9571 62.352C28.2011 62.016 27.4451 61.512 26.7731 61.092C26.5211 60.924 26.3531 60.84 26.1011 60.672C24.8411 59.832 23.5811 58.992 22.1531 58.32C21.3971 57.984 20.3891 57.564 19.2971 57.48C19.2131 57.48 19.1291 57.48 19.0451 57.48C18.8771 57.48 18.7091 57.48 18.4571 57.48C18.3731 57.48 18.2891 57.48 18.2051 57.564C18.0371 57.564 17.8691 57.648 17.7011 57.648C17.6171 57.648 17.5331 57.732 17.4491 57.732C17.2811 57.816 17.1131 57.9 16.9451 57.9C16.6931 58.068 16.5251 58.152 16.3571 58.236C15.0971 59.076 14.0051 60.252 12.9971 61.932C12.9971 62.016 12.9971 62.1 13.0811 62.1C13.1651 62.1 13.1651 62.1 13.2491 62.016C14.4251 60.504 15.5171 59.412 16.7771 58.656C17.5331 58.152 18.2891 58.068 19.1291 58.152C19.8851 58.32 20.5571 58.488 21.4811 58.992C22.8251 59.664 24.0011 60.504 25.2611 61.428L25.7651 61.848C26.5211 62.352 27.1931 62.94 28.1171 63.36C28.6211 63.612 29.1251 63.78 29.6291 63.864C30.3011 64.032 30.9731 63.948 31.4771 63.696C32.4011 63.36 32.9891 62.856 33.4931 62.352C33.5771 62.184 33.7451 62.184 33.8291 62.016C34.3331 61.596 34.9211 61.092 35.7611 60.504C36.5171 60 37.2731 59.58 37.9451 59.328C38.3651 59.16 38.7011 58.992 39.1211 58.908C39.4571 58.908 39.7931 58.908 40.1291 58.908C40.7171 58.908 41.3051 59.16 41.9771 59.748C42.3131 59.916 42.5651 60.252 42.9011 60.504C43.2371 60.756 43.5731 61.008 43.9931 61.344C44.7491 61.848 45.5051 62.352 46.3451 62.856C47.1851 63.276 48.0251 63.696 49.0331 64.032C49.7051 64.2 50.2931 64.284 50.8811 64.284C51.4691 64.284 51.9731 64.2 52.4771 64.032C53.4011 63.696 54.1571 63.192 55.0811 62.52C55.5851 62.1 56.0051 61.68 56.4251 61.344C56.5931 61.176 56.8451 61.008 57.0131 60.84C57.6011 60.336 58.1891 59.832 58.8611 59.496C60.0371 58.908 61.6331 58.992 63.1451 59.916C63.8171 60.336 64.4891 60.756 65.2451 61.26C66.0011 61.764 66.7571 62.268 67.5131 62.772C68.5211 63.276 69.4451 63.612 70.3691 63.78C71.0411 63.864 71.6291 63.864 72.1331 63.696C72.6371 63.528 73.0571 63.276 73.5611 62.94C74.1491 62.436 74.6531 62.016 75.1571 61.428C75.2411 61.26 75.4091 61.26 75.4931 61.092C76.0811 60.504 76.6691 59.916 77.3411 59.58C77.9291 59.328 78.7691 58.908 79.6931 58.992C80.4491 59.076 81.2891 59.412 82.0451 59.748H82.1291C83.7251 60.504 85.3211 61.176 87.0851 61.932C87.1691 61.932 87.1691 61.932 87.2531 61.932C87.5051 61.764 87.4211 61.68 87.4211 61.68Z" fill="#213564" stroke="#213564" stroke-width="0.357168" stroke-miterlimit="10"/>
<path d="M35.9293 24.8041C36.0133 24.8041 36.0133 24.8041 36.0973 24.8041C36.8533 24.8041 37.6093 24.3841 38.1133 23.8801C38.6173 23.2921 38.8693 22.5361 38.7013 21.7801C38.7853 21.1081 38.5333 20.3521 38.1133 19.6801C37.6093 19.0921 36.8533 18.7561 36.0973 18.7561C35.3413 18.6721 34.5013 19.0081 33.9133 19.5961C33.3253 20.1001 32.9893 20.9401 32.9893 21.8641C32.9893 22.7881 33.3253 23.4601 33.9133 24.1321C34.5013 24.5521 35.2573 24.8041 35.9293 24.8041ZM36.0973 23.9641C35.0053 23.9641 34.0813 22.9561 34.0813 21.7801C34.0813 21.2761 34.2493 20.7721 34.5853 20.3521C35.0053 19.9321 35.5093 19.6801 36.0133 19.6801C36.0973 19.6801 36.0973 19.6801 36.1813 19.6801C37.1893 19.6801 38.2813 20.5201 38.4493 21.8641C38.3653 23.2081 37.1053 23.9641 36.0973 23.9641Z" fill="#213564" stroke="#213564" stroke-width="0.357168" stroke-miterlimit="10"/>
<path d="M72.0489 31.4399C72.1329 31.4399 72.3009 31.4399 72.3849 31.4399C73.2249 31.4399 74.0649 31.0199 74.6529 30.3479C75.1569 29.7599 75.4929 28.9199 75.4929 27.9959C75.4929 27.0719 75.2409 26.3999 74.6529 25.7279C74.0649 25.0559 73.3089 24.6359 72.4689 24.6359C71.5449 24.5519 70.6209 24.8879 69.9489 25.4759C69.2769 26.0639 68.8569 27.0719 68.8569 28.0799C68.8569 29.0879 69.2769 30.0119 70.0329 30.6839C70.4529 31.1039 71.2929 31.4399 72.0489 31.4399ZM74.3169 29.9279C73.8129 30.4319 73.0569 30.5999 72.3849 30.5159C70.9569 30.3479 70.1169 29.0879 70.1169 27.9119C70.1169 26.7359 70.8729 25.4759 72.3849 25.3079C72.4689 25.3079 72.5529 25.3079 72.7209 25.3079C73.3089 25.3079 73.8969 25.5599 74.3169 25.8959C74.8209 26.3159 75.1569 27.0719 75.1569 27.8279C75.1569 28.5839 74.9049 29.5079 74.3169 29.9279Z" fill="#213564" stroke="#213564" stroke-width="0.357168" stroke-miterlimit="10"/>
<path d="M26.6891 39.588C26.7731 39.588 26.9411 39.588 27.0251 39.588C27.8651 39.588 28.7051 39.084 29.2931 38.496C29.7971 37.908 30.1331 37.068 30.1331 36.144C30.1331 35.22 29.8811 34.548 29.2931 33.876C28.7051 33.204 27.9491 32.784 27.1091 32.7C26.1851 32.616 25.2611 32.952 24.5891 33.54C23.9171 34.128 23.4131 35.136 23.4131 36.144C23.4131 37.152 23.8331 38.076 24.5891 38.748C25.0931 39.252 25.9331 39.588 26.6891 39.588ZM28.9571 38.076C28.4531 38.58 27.6971 38.748 27.0251 38.664C25.5971 38.496 24.7571 37.236 24.7571 36.06C24.7571 34.968 25.5971 33.624 27.0251 33.456C27.1091 33.456 27.1931 33.456 27.3611 33.456C27.9491 33.456 28.5371 33.708 29.0411 34.044C29.5451 34.464 29.8811 35.22 29.8811 35.976C29.7971 36.9 29.5451 37.656 28.9571 38.076Z" fill="#213564" stroke="#213564" stroke-width="0.357168" stroke-miterlimit="10"/>
<path d="M23.665 65.292C22.741 64.116 21.481 63.444 20.137 63.36C19.801 63.36 19.465 63.276 19.213 63.36C17.869 63.192 16.357 63.78 15.349 64.788C14.089 65.88 13.417 67.476 13.417 68.988C13.417 70.584 14.173 72.264 15.265 73.188C16.273 74.112 17.533 74.616 18.793 74.616H19.297H19.381H19.465H19.549H20.053C21.397 74.532 22.741 73.86 23.581 72.684C24.337 71.76 24.757 70.584 24.925 69.24V68.484C24.841 67.308 24.337 66.132 23.665 65.292ZM23.665 69.408C23.581 70.584 23.077 71.592 22.321 72.348C21.481 73.188 20.305 73.524 19.213 73.356C16.945 73.104 15.517 70.92 15.601 69.072C15.601 67.224 16.945 65.04 19.213 64.788C19.381 64.788 19.465 64.788 19.633 64.788C20.557 64.788 21.565 65.124 22.237 65.88C23.077 66.552 23.581 67.644 23.665 68.82C23.665 68.904 23.665 69.072 23.665 69.156C23.749 69.156 23.749 69.24 23.665 69.408Z" fill="#213564"/>
<path d="M39.7932 63.36C39.4572 63.36 39.1212 63.276 38.8692 63.36C37.4412 63.192 36.0132 63.78 35.0052 64.872C33.8292 65.964 33.1572 67.56 33.1572 69.072C33.1572 70.668 33.9132 72.348 35.0052 73.272C36.0132 74.196 37.2732 74.784 38.5332 74.784H39.0372H39.1212H39.2052C39.2892 74.784 39.2892 74.784 39.3732 74.784H39.8772C41.3052 74.616 42.5652 73.944 43.4052 72.852C44.1612 71.928 44.5812 70.752 44.7492 69.408V69.072C44.6652 66.216 42.4812 63.612 39.7932 63.36ZM43.4052 69.408C43.3212 70.584 42.8172 71.592 42.0612 72.348C41.2212 73.188 40.1292 73.524 38.9532 73.356C36.6852 73.104 35.2572 70.92 35.3412 69.072C35.3412 67.224 36.6852 65.04 38.9532 64.788C39.1212 64.788 39.2052 64.788 39.3732 64.788C40.2972 64.788 41.3052 65.124 41.9772 65.88C42.8172 66.72 43.4052 67.812 43.4052 69.072C43.4052 69.156 43.4052 69.324 43.4052 69.408Z" fill="#213564"/>
<path d="M30.049 73.188C29.797 73.104 29.461 73.104 29.125 73.188C28.285 73.02 27.361 73.356 26.605 73.944C26.017 74.532 25.345 75.54 25.429 76.632C25.429 77.724 25.933 78.732 26.689 79.32C27.193 79.824 28.033 80.076 28.705 80.076H29.209H29.293H29.377C29.461 80.076 29.545 80.076 29.545 80.076H30.049C31.057 79.824 31.729 79.404 32.065 78.732C32.485 78.144 32.737 77.304 32.737 76.548C32.821 75.204 31.897 73.524 30.049 73.188ZM30.805 78.312C30.385 78.648 29.797 78.816 29.209 78.648C28.117 78.396 27.697 77.388 27.697 76.632C27.697 76.212 27.781 75.708 28.033 75.372C28.285 74.952 28.705 74.7 29.209 74.532C29.377 74.532 29.461 74.448 29.629 74.448C30.049 74.448 30.469 74.616 30.805 74.868C31.225 75.204 31.561 75.96 31.561 76.548C31.561 77.304 31.225 77.976 30.805 78.312Z" fill="#213564"/>
<path d="M49.9572 73.188C49.7052 73.104 49.3692 73.104 49.0332 73.188C48.1932 73.02 47.2692 73.356 46.5132 73.944C45.9252 74.532 45.2532 75.54 45.3372 76.632C45.3372 77.724 45.8412 78.732 46.5972 79.32C47.1012 79.824 47.9412 80.076 48.6132 80.076H49.1172H49.2012H49.2852C49.3692 80.076 49.4532 80.076 49.4532 80.076H49.9572C50.9652 79.824 51.6372 79.404 51.9732 78.732C52.3932 78.144 52.7292 77.304 52.7292 76.548C52.7292 75.204 51.8052 73.524 49.9572 73.188ZM50.7132 78.312C50.2932 78.648 49.7052 78.816 49.1172 78.648C48.0252 78.396 47.6052 77.388 47.6052 76.632C47.6052 76.212 47.6892 75.708 47.9412 75.372C48.1932 74.952 48.6132 74.7 49.1172 74.532C49.2852 74.532 49.3692 74.448 49.5372 74.448C49.9572 74.448 50.3772 74.616 50.7132 74.868C51.1332 75.204 51.4692 75.96 51.4692 76.548C51.4692 77.304 51.2172 77.976 50.7132 78.312Z" fill="#213564"/>
<path d="M69.8651 73.188C69.6131 73.104 69.2771 73.104 68.9411 73.188C68.1011 73.02 67.1771 73.356 66.4211 73.944C65.7491 74.616 65.2451 75.624 65.2451 76.632C65.2451 77.64 65.6651 78.732 66.4211 79.32C66.9251 79.824 67.7651 80.076 68.4371 80.076H69.0251H69.1091H69.1931C69.2771 80.076 69.3611 80.076 69.3611 80.076H69.8651C70.5371 79.908 71.3771 79.572 71.8811 78.816C72.3011 78.228 72.5531 77.388 72.5531 76.632C72.6371 75.288 71.7131 73.524 69.8651 73.188ZM70.6211 78.312C70.2011 78.648 69.6131 78.816 69.0251 78.648C67.9331 78.396 67.5131 77.388 67.5131 76.632C67.5131 76.212 67.5971 75.708 67.8491 75.372C68.1011 74.952 68.5211 74.7 69.0251 74.532C69.1931 74.532 69.2771 74.448 69.4451 74.448C69.8651 74.448 70.2851 74.616 70.6211 74.868C71.0411 75.204 71.3771 75.96 71.3771 76.548C71.3771 77.304 71.1251 77.976 70.6211 78.312Z" fill="#213564"/>
<path d="M63.061 65.292C62.137 64.116 60.877 63.444 59.533 63.36C59.197 63.36 58.861 63.276 58.609 63.36C57.265 63.192 55.753 63.78 54.745 64.788C53.569 65.88 52.897 67.476 52.897 68.988C52.897 70.584 53.653 72.264 54.745 73.188C55.753 74.112 57.013 74.616 58.273 74.616H58.777H58.861H58.945H59.029H59.533C60.877 74.532 62.221 73.86 63.061 72.684C63.817 71.76 64.237 70.584 64.405 69.24V68.484C64.237 67.308 63.733 66.132 63.061 65.292ZM63.061 69.408C62.977 70.584 62.473 71.592 61.717 72.348C60.877 73.188 59.701 73.524 58.609 73.356C56.341 73.104 54.913 70.92 54.997 69.072C54.997 67.224 56.341 65.04 58.609 64.788C58.777 64.788 58.861 64.788 59.029 64.788C59.953 64.788 60.961 65.124 61.633 65.88C62.473 66.552 62.977 67.644 63.061 68.82C63.061 68.904 63.061 69.072 63.061 69.156C63.145 69.156 63.145 69.24 63.061 69.408Z" fill="#213564"/>
<path d="M79.1892 63.36C78.8532 63.36 78.5172 63.276 78.2652 63.36C76.8372 63.192 75.4092 63.78 74.4012 64.872C73.2252 65.964 72.5532 67.56 72.5532 69.072C72.5532 70.668 73.3092 72.348 74.4012 73.272C75.4092 74.196 76.6692 74.784 77.9292 74.784H78.4332H78.5172H78.6012C78.6852 74.784 78.6852 74.784 78.7692 74.784H79.2732C80.7012 74.616 82.0452 73.944 82.8012 72.852C83.5572 71.928 83.9772 70.752 84.1452 69.408V69.072C84.0612 66.216 81.8772 63.612 79.1892 63.36ZM82.8012 69.408C82.7172 70.584 82.2132 71.592 81.4572 72.348C80.6172 73.188 79.4412 73.524 78.3492 73.356C76.0812 73.104 74.6532 70.92 74.7372 69.072C74.7372 67.224 76.0812 65.04 78.3492 64.788C78.5172 64.788 78.6012 64.788 78.7692 64.788C79.6932 64.788 80.7012 65.124 81.3732 65.88C82.2132 66.72 82.8012 67.812 82.8012 69.072C82.8012 69.156 82.8012 69.324 82.8012 69.408Z" fill="#213564"/>
</svg>
