<svg width="90" height="64" viewBox="0 0 90 64" fill="none" xmlns="http://www.w3.org/2000/svg">
<path d="M47.7899 45.1131C48.4199 44.934 48.4199 45.4711 48.4199 45.9187C49.3199 46.5452 50.3099 47.2613 51.2999 47.8879C60.1199 48.3354 66.7799 43.8599 72.5399 38.0417C74.4299 36.0725 76.1399 33.8347 77.2199 31.2389C78.1199 28.9117 78.3899 26.4054 76.4999 24.3466C74.6999 22.1984 72.3599 22.8249 70.0199 23.6305C68.8499 24.0781 67.7699 24.6152 66.6899 25.1522C66.4199 25.2417 66.2399 25.3312 65.9699 25.4207C65.9699 25.2417 66.0599 24.9732 66.1499 24.7047C68.0399 20.0501 69.4799 15.3956 68.6699 10.2935C67.7699 4.83334 64.1699 3.22215 59.5799 6.35502C55.4399 9.21935 53.0099 13.3368 51.1199 17.9019C47.6099 26.5844 46.4399 35.7145 47.7899 45.1131Z" fill="#FFD100"/>
<path d="M36.1798 42.3384C31.2298 40.3692 25.9198 39.116 20.4298 38.8475C18.8998 38.8475 17.0998 38.579 16.3798 40.2797C15.6598 41.9804 16.9198 43.2335 17.9998 44.3076C22.3198 48.7832 27.9898 50.5734 34.0198 51.1104C36.3598 51.379 37.2598 51.6475 36.8998 54.2433C36.6298 55.944 36.5398 58.1818 38.5198 59.1664C40.5898 60.0615 42.3898 58.8978 44.1898 57.7342C46.4398 56.2125 47.3398 53.5272 49.3198 51.8265C44.9098 48.6937 40.5898 45.5608 36.1798 42.3384Z" fill="#FFD100"/>
<path d="M86.6698 28.8222C87.6598 25.3313 87.2098 23.183 86.5798 21.7508C85.4998 19.6026 83.9698 17.8124 80.2798 18.8865C84.1498 20.5872 84.2398 23.6306 84.0598 26.7634C83.7898 30.3438 82.1698 33.3872 80.1898 36.341C78.2998 39.1159 75.7798 41.4431 72.8998 43.6809C74.0698 43.8599 74.7898 43.7704 75.5098 43.3229C81.1798 40.011 84.9598 35.1774 86.6698 28.8222Z" fill="#002E6D"/>
<path d="M36.3598 42.2491C36.1798 40.1009 37.8898 38.8477 40.1398 39.3848C42.5698 40.0114 41.3098 41.533 43.8298 42.9652C45.8098 44.0393 47.3398 42.7862 52.5598 47.7093C58.8598 53.5274 62.3698 61.3149 60.5698 61.6729C60.0298 61.7624 58.2298 58.8086 55.3498 56.5708C48.1498 50.9316 36.3598 42.2491 36.3598 42.2491Z" fill="#002E6D"/>
<path d="M40.05 39.3848C41.58 13.9638 46.71 11.2785 52.74 2.32744C53.01 1.9694 52.56 1.61136 52.29 1.87989C49.95 4.02814 46.62 7.51905 43.47 12.2631C39.69 18.0813 39.24 31.9554 39.33 39.2953C39.33 39.7428 39.96 39.8323 40.05 39.3848Z" fill="#002E6D"/>
<path d="M37.1699 40.2795C16.2899 29.9858 11.8799 33.2977 2.15987 34.5508C1.79987 34.5508 1.61986 34.1033 1.97986 33.9243C4.67986 32.8501 8.90986 31.5075 14.1299 30.9704C20.4299 30.2543 31.6799 36.2515 37.4399 39.6529C37.7999 39.8319 37.5299 40.4585 37.1699 40.2795Z" fill="#002E6D"/>
</svg>
