<svg width="50" height="50" viewBox="0 0 50 50" fill="none" xmlns="http://www.w3.org/2000/svg">
<rect width="50" height="50" rx="25" fill="#213564"/>
<path d="M37.4897 14.1055H34.4236C34.3778 14.1055 34.3778 14.1055 34.332 14.1055C34.2863 14.1055 34.2405 14.1055 34.149 14.1512C34.1032 14.1512 34.0575 14.197 34.0117 14.197C34.0117 14.2428 33.9659 14.2428 33.9202 14.2885C33.8744 14.3343 33.8287 14.3343 33.8287 14.38C33.7829 14.4258 33.7829 14.4716 33.7371 14.5173C33.6914 14.5631 33.6914 14.6089 33.6914 14.6546C33.6914 14.7004 33.6456 14.7004 33.6456 14.7461L33.188 17.2631L13.4185 18.4529C13.327 18.4529 13.2812 18.4529 13.1897 18.4529C12.732 18.4987 12.4117 18.8648 12.4575 19.3224C12.4575 19.3682 12.4575 19.3682 12.4575 19.4139L13.8304 26.919C14.1507 28.0631 15.1117 29.2529 16.5761 29.2529H30.9914L30.671 30.9461H18.5897C17.0337 30.9461 15.7982 32.1817 15.7982 33.7377C15.7982 35.2936 17.0337 36.5292 18.5897 36.5292C20.1456 36.5292 21.3812 35.2936 21.3812 33.7377C21.3812 33.3258 21.2897 32.9139 21.1066 32.5478H28.5659C28.3829 32.9139 28.2914 33.28 28.2914 33.7377C28.2914 35.2936 29.527 36.5292 31.0829 36.5292C32.6388 36.5292 33.8744 35.2936 33.8744 33.7377C33.8744 32.6394 33.2337 31.7241 32.3185 31.2665L35.1558 15.7072H37.5354C37.9931 15.7072 38.3592 15.3411 38.3592 14.8834C38.3592 14.4258 37.9473 14.1055 37.4897 14.1055ZM31.8609 24.4936L28.4287 24.5394L28.6117 22.5716L32.227 22.48L31.8609 24.4936ZM14.7456 22.9834L18.1778 22.8919L18.4066 24.7224L15.0659 24.7682L14.7456 22.9834ZM19.2761 22.8461L23.0287 22.7546V24.6767L19.5049 24.7224L19.2761 22.8461ZM23.0287 21.6563L19.1388 21.7936L18.91 19.78L23.0287 19.5512V21.6563ZM24.127 19.4597L27.8795 19.2309L27.6507 21.519L24.127 21.6106V19.4597ZM23.0287 25.7292V27.6512H19.871L19.6422 25.775L23.0287 25.7292ZM24.127 25.6834L27.2846 25.6377L27.1015 27.6512H24.127V25.6834ZM24.127 24.6309V22.7089L27.5592 22.6173L27.3761 24.5851L24.127 24.6309ZM32.4558 21.3817L28.749 21.4733L28.9778 19.1394L32.9134 18.9106L32.4558 21.3817ZM17.8117 19.8258L18.0405 21.8394L14.5626 21.9309C14.4253 21.1529 14.288 20.5122 14.1965 20.0546L17.8117 19.8258ZM15.432 26.5987L15.2948 25.8665L18.5439 25.8207L18.7727 27.697H16.5761C15.8897 27.6512 15.5236 26.919 15.432 26.5987ZM28.1541 27.6512L28.3371 25.6377L31.6778 25.5919L31.3117 27.6512H28.1541ZM19.7337 33.7377C19.7337 34.3784 19.2304 34.9275 18.5439 34.9275C17.8575 34.9275 17.3541 34.4241 17.3541 33.7377C17.3541 33.097 17.8575 32.5478 18.5439 32.5478C19.2304 32.5478 19.7337 33.097 19.7337 33.7377ZM31.0371 34.9275C30.3965 34.9275 29.8473 34.4241 29.8473 33.7377C29.8473 33.097 30.3507 32.5478 31.0371 32.5478C31.7236 32.5478 32.227 33.0512 32.227 33.7377C32.227 34.3784 31.6778 34.9275 31.0371 34.9275Z" fill="white"/>
</svg>
