<svg width="700" height="66" viewBox="0 0 700 66" fill="none" xmlns="http://www.w3.org/2000/svg">
<path d="M1 25.8681C1 25.8681 33.7418 37.5299 72.5897 43.3188C120.702 50.534 190.818 48.2688 236.404 42.8993C277.147 38.1171 330.523 28.8045 358.001 24.274C387.9 19.324 412.115 19.9952 433.592 20.8342C482.125 22.7639 527.29 54.3094 531.185 49.695C534.238 46.0874 518.025 37.446 516.446 29.1401C514.972 21.5054 517.183 15.0453 523.816 10.5148C533.185 4.05465 565.822 0.614844 580.245 1.03433C607.723 1.78941 632.253 5.56481 655.836 11.6894C679.418 17.73 699 26.1198 699 26.1198M552.136 62.7829C550.03 65.2999 544.661 65.8033 540.555 63.6219C536.449 61.4406 534.975 55.4838 535.817 53.3025C536.344 51.8762 542.976 50.6178 547.082 52.7991C551.083 55.0644 556.347 57.7491 552.136 62.7829Z" stroke="#FFCE0A" stroke-width="2" stroke-miterlimit="10"/>
</svg>
