<svg width="311" height="240" viewBox="0 0 311 240" fill="none" xmlns="http://www.w3.org/2000/svg">
<path d="M223.051 50.5824C221.529 39.6355 222.817 28.9797 226.975 18.7898C229.142 13.491 232.011 8.59986 236.872 5.28086C242.201 1.67071 246.476 3.53401 247.53 9.88088C248.526 15.8784 246.769 21.2936 244.602 26.7088C244.544 27 244.427 27.2911 244.368 27.524C244.661 27.4076 244.895 27.3493 245.188 27.2329C246.476 26.6506 247.765 25.9519 249.111 25.486C251.805 24.4961 254.558 23.8556 256.724 26.3012C258.891 28.6886 258.657 31.6 257.544 34.3949C256.315 37.4228 254.323 40.0431 252.04 42.314C245.246 49.1849 237.516 54.3672 227.209 53.8431C226.097 53.0862 224.925 52.271 223.813 51.514C223.754 51.0482 223.813 50.4659 223.051 50.5824Z" fill="#FFD103"/>
<path d="M209.524 47.438C214.677 51.1646 219.772 54.833 224.926 58.5596C222.583 60.5976 221.588 63.6837 218.894 65.4888C216.786 66.8862 214.677 68.2255 212.276 67.1192C209.934 66.0128 210.051 63.3926 210.344 61.3546C210.812 58.3267 209.7 57.9773 207.006 57.7444C199.978 57.1039 193.361 55.0659 188.266 49.7672C187.036 48.4862 185.514 47.0887 186.392 45.1089C187.271 43.0709 189.379 43.4203 191.136 43.4785C197.519 43.6532 203.668 45.0507 209.524 47.438Z" fill="#FFD103"/>
<path d="M268.554 31.6C266.505 38.995 262.112 44.6431 255.553 48.5444C254.675 49.0684 253.914 49.1267 252.508 48.952C255.905 46.3317 258.774 43.6532 261 40.3342C263.284 36.8988 265.216 33.2886 265.509 29.0962C265.743 25.486 265.568 21.8759 261.058 19.8961C265.333 18.6733 267.149 20.7696 268.379 23.2734C269.14 25.0202 269.725 27.4658 268.554 31.6Z" fill="#213564"/>
<path d="M209.758 47.3216C209.758 47.3216 223.579 57.5115 231.953 64.0913C235.291 66.7116 237.458 70.2053 238.043 70.0888C240.152 69.6812 235.994 60.5394 228.674 53.7267C222.525 47.9621 220.768 49.4178 218.484 48.1368C215.556 46.4482 217.02 44.7013 214.15 43.9444C211.456 43.3039 209.465 44.8178 209.758 47.3216Z" fill="#213564"/>
<path d="M214.033 43.8861C213.974 44.4102 213.213 44.352 213.213 43.8279C213.154 35.2684 213.682 19.0809 218.074 12.21C221.704 6.62011 225.687 2.54414 228.381 0.0985614C228.732 -0.192579 229.2 0.215018 228.908 0.622615C221.763 11.1037 215.79 14.1898 214.033 43.8861Z" fill="#213564"/>
<path d="M210.637 44.9925C211.047 45.1672 211.339 44.4684 210.929 44.2355C204.195 40.276 191.077 33.2304 183.698 34.0456C177.666 34.6861 172.63 36.3165 169.526 37.5975C169.116 37.7722 169.292 38.3545 169.702 38.2962C181.122 36.8405 186.216 32.9392 210.637 44.9925Z" fill="#213564"/>
<path d="M49.6505 92.7396C48.1865 91.8661 46.0783 92.099 44.0286 92.332C40.3978 92.7978 36.767 94.6029 32.8433 97.7472C24.1176 104.735 18.0858 115.099 14.8649 128.55C13.2837 135.246 13.1666 142.699 13.7522 146.775C14.3964 151.725 16.4461 155.568 19.667 158.013C22.068 159.818 24.9961 160.75 28.3341 160.75C29.1539 160.75 30.0324 160.692 30.9108 160.575C37.9382 159.644 42.3889 156.965 46.9567 153.239C49.592 151.084 50.529 150.094 50.4118 149.512C50.4118 148.813 50.2362 148.406 50.0019 148.173C49.8262 148.056 49.6505 147.998 49.4163 147.998C49.0064 148.056 48.3622 148.406 47.4252 149.104C43.3844 152.016 39.2266 154.054 36.2985 154.403C32.4334 154.927 29.1539 154.228 26.5772 152.249C23.4735 149.92 21.4238 145.785 20.7211 140.428C18.3786 123.076 26.87 100.251 40.105 98.4459C41.569 98.2712 42.6817 98.3877 43.3259 98.9117C43.7358 99.2029 43.9701 99.6687 44.0286 100.251C44.2629 102.056 44.0872 103.978 43.5016 106.248V106.307V106.365C43.6187 106.714 43.8529 107.122 44.4971 107.064C45.4927 106.947 46.3125 106.714 47.0738 106.307C49.3577 105.2 50.119 104.211 50.6461 103.395C51.466 101.998 51.6416 99.7852 51.2317 96.5244C51.1146 95.0687 50.4704 93.2636 49.6505 92.7396Z" fill="#213564"/>
<path d="M88.6524 109.276C87.2469 108.228 85.4315 107.821 83.2647 108.112C81.7421 108.345 79.8681 109.335 79.3411 109.8C79.0483 109.8 78.1698 109.859 77.5257 109.975C75.0661 110.324 71.4938 113.76 68.9171 116.613C64.525 121.446 61.4798 125.871 59.3715 130.646C56.9119 136.12 56.0921 141.651 56.9119 147.008C57.6732 152.132 61.3626 155.102 66.6332 155.102C67.3359 155.102 68.0387 155.044 68.7414 154.927C76.3544 153.879 82.6205 148.58 87.364 139.147C91.5219 130.763 93.1616 123.309 92.2246 116.962C91.7561 113.294 90.5264 110.732 88.6524 109.276ZM81.3907 141.011C78.9897 146.368 75.476 149.628 71.4352 150.211C69.8541 150.444 68.4486 149.978 67.3945 148.93C66.2818 147.823 65.5205 146.018 65.2277 143.747C64.7592 140.428 65.5205 135.188 67.453 128.259C69.8541 119.408 73.1335 114.633 77.0572 114.109L78.6969 114.168L78.7555 114.051C78.7555 114.051 79.1068 113.585 79.8681 113.527C80.6294 113.411 81.3322 113.643 81.9763 114.109C83.3233 115.099 84.2603 117.195 84.6116 119.932C85.1972 123.542 84.3188 134.547 81.3907 141.011Z" fill="#213564"/>
<path d="M147.214 140.545C148.034 139.555 148.385 138.682 148.268 137.925C148.21 137.575 148.093 137.226 147.975 136.818C147.8 136.236 147.566 135.479 147.39 134.256C147.214 132.975 147.8 128.084 148.444 124.125C149.557 117.254 150.728 108.985 150.786 107.122C150.786 105.899 150.845 105.259 150.669 104.094C150.435 102.464 149.908 101.241 149.849 101.183C149.322 100.426 148.737 100.135 148.034 100.193C146.98 100.426 145.926 100.775 144.755 101.299C143.466 101.94 142.178 102.58 141.124 103.686C138.547 106.307 133.277 112.712 129.06 119.874C129.177 118.942 129.411 117.894 129.587 116.846C130.29 112.77 131.227 107.704 130.758 104.385C130.641 103.395 130.29 102.697 129.821 102.289C129.47 101.998 129.002 101.94 128.474 101.998C126.893 102.289 125.488 102.813 124.199 103.628C122.853 104.443 121.623 105.317 120.979 106.016C119.749 107.297 118.05 109.335 116.118 111.722C112.721 116.031 111.492 117.894 108.271 122.844L107.685 123.717L108.973 113.76C109.618 108.752 109.793 106.074 109.676 105.492C109.618 105.2 109.442 104.909 109.208 104.735C108.973 104.618 108.739 104.56 108.446 104.56C107.451 104.676 105.753 105.2 104.581 105.841C102.766 106.714 101.419 107.471 97.5539 110.383C95.9141 111.547 94.5672 112.654 94.6844 113.527C94.7429 113.818 94.86 114.051 95.0943 114.226C95.3285 114.4 95.6213 114.459 95.9141 114.4H95.9727L96.0313 114.342C96.0898 114.342 98.9593 111.78 100.716 111.547C101.009 111.547 101.126 111.955 101.126 112.13L100.95 114.866L98.608 130.413C98.608 130.471 97.3196 137.401 96.6169 142.117C96.1484 144.737 95.7385 148.056 95.9141 149.046C96.1484 149.861 96.6169 150.269 97.6124 150.269C97.9052 150.269 98.198 150.269 98.5494 150.211C100.833 149.92 103.176 147.416 103.879 146.193C104.406 145.32 104.523 144.796 104.64 143.573L104.757 142.816C104.874 141.942 104.933 141.244 105.167 140.312C105.928 136.469 106.924 133.266 108.154 130.53C110.086 126.046 113.834 119.99 117.465 115.507C119.632 112.945 121.33 110.907 122.325 110.79C122.443 110.79 122.735 110.849 122.853 111.722C122.853 112.304 122.501 115.507 122.15 117.836C121.506 122.087 120.334 128.725 120.334 128.783L118.402 139.555L118.168 140.894C117.699 143.573 117.465 144.97 117.582 145.611C117.641 146.135 117.816 146.775 118.226 147.125C118.519 147.358 118.929 147.416 119.397 147.358C120.042 147.241 120.686 146.95 121.506 146.309C123.204 144.97 125.019 142.233 125.371 141.593C125.722 140.894 125.898 140.195 125.956 139.38L127.303 132.801C127.655 131.054 127.83 130.53 128.24 129.656L128.474 129.132C130.231 124.59 134.741 116.846 138.313 112.304C139.894 110.208 141.007 109.16 141.651 109.102C142.119 109.102 142.529 109.276 142.705 110.732C142.822 111.605 142.471 114.983 141.651 120.223C141.124 123.542 140.89 125.231 140.187 128.725C139.425 132.451 138.664 138.274 138.664 138.332C138.137 141.768 138.079 142.583 138.196 143.689C138.371 144.796 138.664 145.494 139.191 145.902C139.484 146.135 139.894 146.251 140.304 146.193C142.119 145.785 144.403 143.98 147.214 140.545Z" fill="#213564"/>
<path d="M185.689 102.697C185.689 102.522 185.631 102.347 185.455 102.173C185.162 101.998 184.694 101.94 183.64 102.114C182.703 102.231 181.766 102.405 180.243 102.697C178.955 102.929 177.315 103.221 175.031 103.628C173.626 103.919 171.517 104.152 170.756 104.211C170.873 102.929 170.99 101.707 171.107 100.542C172.689 85.2281 173.45 77.542 181.063 76.4939C184.05 76.0863 186.685 77.6002 188.032 78.5901L188.149 78.6484L188.266 78.5901C190.433 77.4838 191.194 75.2711 190.96 73.6407C190.901 73.2331 190.726 72.8838 190.374 72.6508C189.496 72.0103 187.739 71.8357 184.928 72.2432C180.536 72.8255 175.617 75.3876 172.513 78.7648C170.112 81.3851 168.355 84.2383 167.067 87.499C165.427 91.8661 164.139 97.8054 163.319 105.259C162.675 105.317 160.391 105.55 158.751 105.783C156.584 106.074 155.413 106.307 154.3 107.18C153.188 108.112 152.719 109.218 152.895 110.616C153.07 111.838 154.476 111.664 155.003 111.547C156.408 111.373 161.328 110.499 162.616 110.266L161.445 117.836C159.337 135.537 156.643 148.872 150.435 156.616C148.503 159.003 146.219 160.342 144.872 161.099C144.696 161.216 144.52 161.274 144.403 161.391C143.818 161.682 143.759 162.089 143.818 162.613C143.876 163.079 144.403 163.312 144.989 163.312C145.106 163.312 145.223 163.312 145.34 163.312C146.863 163.137 150.435 161.391 152.661 159.178C157.873 153.937 161.152 148.289 164.197 139.147C168.472 126.279 169.819 111.198 169.995 109.335L171.693 109.102C177.959 108.228 182.761 105.841 183.991 105.026C185.221 104.036 185.748 103.337 185.689 102.697Z" fill="#213564"/>
<path d="M213.623 92.2737C212.218 91.2256 210.402 90.818 208.235 91.1092C206.654 91.3421 204.839 92.3319 204.312 92.7978C204.019 92.7978 203.141 92.856 202.496 92.9725C200.564 93.2636 197.577 95.5345 193.888 99.6105C189.437 104.443 186.45 108.869 184.342 113.643C181.883 119.117 181.063 124.649 181.883 130.006C182.644 135.13 186.333 138.099 191.604 138.099C192.307 138.099 193.009 138.041 193.712 137.925C201.325 136.876 207.591 131.578 212.335 122.145C216.493 113.76 218.132 106.307 217.195 99.9598C216.668 96.2915 215.497 93.6712 213.623 92.2737ZM206.361 124.008C203.96 129.365 200.447 132.626 196.406 133.208C195.059 133.383 193.829 133.092 192.834 132.335C191.428 131.287 190.491 129.307 190.14 126.687C189.671 123.368 190.433 118.127 192.365 111.198C194.766 102.347 197.987 97.6307 201.969 97.0484L203.668 97.1067L203.726 96.9902C203.726 96.9902 204.078 96.5244 204.839 96.4661C205.6 96.3497 206.303 96.5826 207.006 97.1067C208.353 98.0965 209.29 100.193 209.641 102.929C210.168 106.54 209.231 117.545 206.361 124.008Z" fill="#213564"/>
<path d="M252.391 88.7218C252.332 88.3142 252.215 87.732 251.688 87.3826C251.161 86.975 250.283 86.9168 248.994 87.0914C244.134 87.9649 240.737 90.5851 236.345 96.932C234.764 99.3194 233.3 101.998 231.543 105.2C231.894 103.454 232.304 101.823 232.656 100.193C233.651 95.651 234.471 92.0991 234.295 90.7598C234.178 90.0611 233.944 89.1877 233.007 89.3041C231.66 89.4788 230.723 89.8282 229.318 90.3522C225.16 91.9826 220.358 95.3016 220.475 96.2333C220.533 96.5244 220.826 97.5143 221.822 97.3396C222.173 97.2814 222.466 97.1067 222.759 96.8738C223.11 96.6409 223.461 96.4079 223.813 96.3497C224.34 96.2915 224.691 96.8155 224.75 97.1649C224.867 97.9801 224.867 99.2611 224.75 100.659C224.398 104.211 223.813 107.471 222.934 112.013C222.583 113.993 222.173 116.147 221.705 118.768C220.768 123.717 219.479 131.811 219.713 133.558C219.831 134.14 220.358 134.664 220.943 134.839C221.236 134.897 221.529 134.897 221.763 134.722C222.056 134.839 222.407 134.955 222.7 134.955C223.052 134.955 223.344 134.897 223.696 134.722C225.394 133.907 226.624 131.112 226.975 129.365C226.975 129.307 227.971 124.008 228.791 120.631C230.313 113.702 235.467 101.474 241.089 96.408C242.377 95.3016 243.724 94.6029 245.012 94.4282C247.12 94.137 248.116 95.1269 248.877 95.8257C248.936 95.8839 249.053 96.0003 249.111 96.0586L249.229 96.175L249.404 96.0586C250.985 94.894 252.625 90.4687 252.391 88.7218Z" fill="#213564"/>
<path d="M284.659 87.0332C284.542 86.2762 283.956 86.2762 282.609 86.4509C281.086 86.6838 279.915 86.9167 278.744 87.1496C277.397 87.4408 276.05 87.7319 274.059 87.9648C272.654 88.1395 270.604 88.4307 269.843 88.5471L271.482 79.5218C271.951 76.9597 272.244 76.0281 272.771 74.223L273.064 73.2331V73.1749C273.005 72.942 272.946 72.6508 272.712 72.4179C272.478 72.2432 272.244 72.185 271.834 72.2432C270.78 72.3597 269.784 72.6508 268.964 73.1167C266.622 74.2812 265.099 76.6686 264.396 80.3952L262.757 89.4788L258.072 90.1193C257.603 90.1775 257.252 90.2357 256.9 90.2357C255.554 90.4104 254.675 90.4687 253.68 91.4003C252.918 92.099 252.157 92.9725 252.333 94.4282C252.391 94.7775 252.508 95.0104 252.743 95.1851C253.094 95.418 253.621 95.5345 254.441 95.418C255.729 95.2434 260.766 94.3699 262.054 94.137C261.878 95.3598 261.703 96.4662 261.527 97.3396L261.41 98.0383C260.707 102.289 259.243 111.78 258.306 120.223C258.189 121.097 258.072 122.028 258.013 122.96C257.603 126.279 257.252 129.423 257.369 130.297C257.603 131.228 258.365 131.519 259.184 131.519C259.477 131.519 259.711 131.461 260.004 131.461C262.23 131.17 265.978 126.919 266.505 125.871V125.813C266.797 125.056 266.915 124.649 266.856 123.95C266.797 123.542 266.68 123.193 266.563 122.844C266.446 122.494 266.329 122.145 266.27 121.737C266.153 120.98 266.036 118.942 266.27 116.205C266.915 109.16 268.261 100.309 269.023 95.5345C269.198 94.5446 269.316 93.7877 269.374 93.2054C269.96 93.1472 271.599 92.9725 272.712 92.7396C274.586 92.3902 275.64 92.1573 277.339 91.6332C279.505 91.0509 281.379 90.2357 282.96 89.1876C284.19 88.4307 284.776 87.8484 284.659 87.0332Z" fill="#213564"/>
<path d="M308.435 118.593C308.435 117.952 307.556 117.836 307.439 118.418C305.038 126.919 297.191 148.115 276.519 154.345C241.616 164.884 170.054 170.474 115.064 175.656C94.2161 177.636 83.8507 180.548 78.9901 182.469C78.2873 182.76 78.5801 183.808 79.3414 183.692C87.4815 182.411 105.577 179.558 113.483 178.917C171.518 173.851 254.558 170.591 284.6 155.684C304.511 145.785 308.201 126.57 308.435 118.593Z" fill="#213563"/>
<path d="M309.313 132.859C309.313 132.859 303.457 153.704 277.924 163.254C235.291 179.15 93.5131 177.054 53.4569 192.251C6.02195 210.302 0.634277 234.176 0.634277 234.176C0.634277 234.176 23.122 226.955 63.8809 221.366C150.377 209.429 224.926 210.535 275.054 197.084C320.967 184.682 309.313 132.859 309.313 132.859Z" fill="#FFD103"/>
<path d="M2.80122 239.649C2.80122 239.649 42.8574 221.191 156.057 216.241C157.17 216.183 157.404 217.057 156.233 217.057C155.12 217.115 89.3554 224.219 65.2865 227.887C35.1858 232.487 8.71595 238.252 3.21115 239.94C2.50841 240.173 2.80122 239.649 2.80122 239.649Z" fill="#213563"/>
<path d="M92.1078 206.401C92.1078 206.867 91.6979 207.274 91.2294 207.333L90.1753 207.449C89.7068 207.507 89.3554 207.158 89.414 206.692L90.2339 194.231L85.7246 194.755L85.1975 197.783C84.3191 203.198 83.0893 206.401 81.8595 207.624C81.2153 208.264 80.4541 208.614 79.5756 208.73H79.4585C78.9314 208.788 78.5801 208.497 78.5801 207.973L78.6386 207.158C78.6972 206.401 78.8143 206.168 79.5756 205.877C80.9811 205.353 82.0352 201.976 82.8551 195.687L83.1479 193.358C83.265 192.892 83.6164 192.484 84.0849 192.426L92.2249 191.495C92.6934 191.436 93.0448 191.786 92.9863 192.251L92.1078 206.401Z" fill="#213563"/>
<path d="M102.766 203.722C103 203.606 103.176 203.548 103.293 203.489C103.527 203.489 103.762 203.548 103.937 203.781L104.113 204.072C104.171 204.188 104.23 204.363 104.23 204.538C104.23 204.829 104.113 205.062 103.82 205.236C102.766 205.993 101.653 206.401 100.423 206.576C98.7838 206.75 97.554 206.401 96.617 205.527C95.68 204.654 95.2701 203.431 95.3872 201.801C95.5043 200.287 96.0314 198.948 97.0855 197.783C98.081 196.677 99.4279 196.036 101.009 195.862C102.297 195.745 103.41 196.036 104.289 196.793C105.167 197.55 105.518 198.657 105.46 200.054C105.46 200.345 105.401 200.52 105.401 200.636C105.343 201.044 104.874 201.51 104.464 201.568L97.9639 202.267C98.081 203.781 99.1937 204.479 100.833 204.305C101.536 204.305 102.18 204.072 102.766 203.722ZM102.883 200.054C102.942 198.715 102.18 197.9 100.716 198.074C99.2523 198.249 98.3153 199.064 97.9639 200.578L102.883 200.054Z" fill="#213563"/>
<path d="M110.321 197.55L109.852 204.479C109.852 204.945 109.442 205.353 108.974 205.411L108.037 205.527C107.568 205.586 107.217 205.236 107.275 204.771L107.802 196.211C107.802 195.745 108.212 195.338 108.681 195.279L113.717 194.697C114.186 194.639 114.537 194.988 114.479 195.454L114.42 196.211C114.42 196.677 114.01 197.084 113.542 197.143L110.321 197.55Z" fill="#213563"/>
<path d="M117.933 194.231C118.402 194.173 118.753 194.522 118.695 194.988L118.168 203.548C118.168 204.014 117.758 204.421 117.289 204.479L116.352 204.596C115.884 204.654 115.532 204.305 115.591 203.839L116.118 195.279C116.118 194.814 116.528 194.406 116.996 194.348L117.933 194.231ZM118.987 199.821C118.87 199.646 118.753 199.414 118.812 199.181C118.812 198.948 118.929 198.715 119.105 198.482L122.033 194.348C122.325 193.94 122.677 193.707 123.145 193.649L124.082 193.532C124.551 193.474 124.844 193.824 124.785 194.231C124.785 194.406 124.668 194.581 124.551 194.755L121.506 198.657L124.492 202.383C124.609 202.5 124.668 202.674 124.609 202.849C124.609 203.257 124.258 203.664 123.789 203.722L122.735 203.839C122.267 203.897 121.974 203.722 121.681 203.431L118.987 199.821Z" fill="#213563"/>
<path d="M131.051 203.198C129.411 203.373 128.123 203.024 127.245 202.092C126.308 201.219 125.898 199.996 125.956 198.424C126.073 196.851 126.659 195.512 127.713 194.406C128.767 193.3 130.114 192.659 131.754 192.484C133.393 192.31 134.682 192.659 135.619 193.532C136.556 194.464 136.966 195.687 136.849 197.201C136.732 198.773 136.204 200.112 135.092 201.219C134.038 202.383 132.691 203.024 131.051 203.198ZM128.709 198.132C128.591 199.821 129.646 200.927 131.227 200.753C132.808 200.578 134.038 199.297 134.155 197.55C134.272 195.862 133.159 194.755 131.637 194.93C130.055 195.105 128.826 196.386 128.709 198.132Z" fill="#213563"/>
<path d="M147.741 196.502C147.8 196.735 147.917 197.201 148.151 197.9C148.327 197.201 148.444 196.735 148.62 196.386L150.435 191.436C150.67 190.912 151.021 190.563 151.548 190.505L152.192 190.446C152.719 190.388 153.129 190.796 153.129 191.32C153.129 191.436 153.071 191.553 153.012 191.727L149.03 200.927C148.21 202.791 147.507 204.072 146.922 204.771C146.336 205.469 145.633 205.819 144.872 205.877C144.345 205.935 143.759 205.877 143.232 205.644C142.998 205.527 142.881 205.353 142.881 205.003C142.881 204.887 142.939 204.771 142.939 204.712L143.291 204.072C143.466 203.722 143.701 203.548 143.994 203.49C144.111 203.49 144.286 203.49 144.521 203.49C144.579 203.49 144.696 203.49 144.813 203.49C145.399 203.431 145.985 202.849 146.453 201.743L146.687 201.16L143.232 192.717C143.174 192.543 143.174 192.426 143.174 192.368C143.232 191.844 143.642 191.378 144.169 191.32L145.106 191.203C145.575 191.145 145.868 191.32 145.985 191.727L147.741 196.502Z" fill="#213563"/>
<path d="M161.21 192.019C160.683 191.786 160.098 191.727 159.454 191.786C158.692 191.844 158.048 192.193 157.462 192.776C156.877 193.358 156.525 194.115 156.467 194.988C156.35 196.735 157.58 197.783 159.161 197.608C159.863 197.55 160.508 197.259 161.152 196.793C161.386 196.677 161.562 196.56 161.679 196.56C161.972 196.502 162.206 196.619 162.323 196.851L162.674 197.259C162.792 197.376 162.792 197.492 162.792 197.725C162.792 198.016 162.616 198.307 162.44 198.482C161.386 199.414 160.215 199.938 158.868 200.054C157.228 200.229 155.94 199.879 155.003 199.006C154.066 198.132 153.656 196.91 153.714 195.279C153.832 193.765 154.359 192.426 155.413 191.32C156.467 190.213 157.755 189.515 159.219 189.34C160.508 189.224 161.562 189.34 162.44 189.748C162.674 189.864 162.792 190.097 162.792 190.446C162.792 190.563 162.733 190.679 162.674 190.796L162.323 191.436C162.089 191.786 161.855 191.96 161.562 192.019C161.503 192.077 161.327 192.077 161.21 192.019Z" fill="#213563"/>
<path d="M173.918 190.563C173.86 191.727 172.982 192.776 171.927 193.067C173.333 193.3 173.977 193.998 173.918 195.221C173.801 197.259 172.162 198.482 168.941 198.831C168.589 198.889 168.004 198.889 167.242 198.948C166.423 199.006 165.954 199.064 165.778 199.064C165.31 199.064 164.959 198.773 165.017 198.307L165.544 189.748C165.603 189.282 165.954 188.874 166.423 188.816C167.535 188.641 168.589 188.467 169.526 188.408C172.572 188.059 174.036 188.816 173.918 190.563ZM167.828 194.581L167.711 196.851C168.707 196.793 169.292 196.793 169.409 196.735C170.522 196.619 171.225 196.095 171.283 195.338C171.342 194.522 170.756 194.231 169.468 194.348L167.828 194.581ZM167.887 192.95L169.526 192.776C170.405 192.659 171.108 192.193 171.108 191.436C171.166 190.679 170.639 190.388 169.585 190.505C168.882 190.563 168.355 190.679 168.004 190.738L167.887 192.95Z" fill="#213563"/>
<path d="M175.675 194.988C175.792 192.834 177.373 191.495 179.54 191.262C180.477 191.145 181.18 191.32 181.765 191.669V191.378C181.883 189.806 181.414 189.107 180.067 189.282C179.482 189.34 178.896 189.515 178.369 189.748C178.252 189.806 178.076 189.864 177.959 189.864C177.608 189.922 177.373 189.748 177.256 189.457L177.139 189.224C177.081 189.049 177.081 188.932 177.081 188.874C177.081 188.583 177.256 188.292 177.608 188.117C178.603 187.535 179.599 187.244 180.536 187.127C183.405 186.836 184.459 188.117 184.284 190.912L183.932 196.269C183.932 196.735 183.522 197.143 183.054 197.201L182.468 197.259C182 197.317 181.648 196.968 181.707 196.502V196.153C181.063 197.084 180.009 197.667 178.662 197.783C176.729 198.016 175.558 196.968 175.675 194.988ZM181.648 193.3C181.238 193.008 180.653 192.892 179.95 193.008C179.013 193.125 178.31 193.649 178.252 194.464C178.193 195.221 178.779 195.629 179.599 195.512C180.477 195.396 181.121 195.046 181.59 194.348L181.648 193.3Z" fill="#213563"/>
<path d="M194.415 195.92C193.946 195.978 193.595 195.629 193.653 195.163L194.005 189.515L189.378 195.862C189.086 196.269 188.734 196.502 188.266 196.56L187.212 196.677C186.743 196.735 186.392 196.386 186.45 195.92L186.977 187.36C186.977 186.894 187.387 186.487 187.856 186.429L188.793 186.312C189.261 186.254 189.613 186.603 189.554 187.069L189.203 192.717L193.829 186.37C194.122 185.963 194.473 185.73 194.942 185.672L195.996 185.555C196.464 185.497 196.816 185.846 196.757 186.312L196.23 194.872C196.23 195.338 195.82 195.745 195.352 195.803L194.415 195.92Z" fill="#213563"/>
<path d="M207.942 186.836C207.884 188.001 207.005 189.049 205.951 189.34C207.357 189.573 208.001 190.272 207.942 191.495C207.825 193.533 206.186 194.755 202.965 195.105C202.613 195.163 202.028 195.163 201.266 195.221C200.447 195.279 199.978 195.338 199.802 195.338C199.334 195.338 198.982 195.046 199.041 194.581L199.568 186.021C199.627 185.555 199.978 185.148 200.447 185.089C201.559 184.915 202.613 184.74 203.55 184.682C206.596 184.274 208.06 185.031 207.942 186.836ZM201.852 190.796L201.735 193.067C202.73 193.008 203.316 193.008 203.433 192.95C204.546 192.834 205.249 192.31 205.307 191.553C205.366 190.738 204.78 190.446 203.492 190.563L201.852 190.796ZM201.969 189.165L203.609 188.991C204.487 188.874 205.19 188.408 205.19 187.651C205.249 186.895 204.722 186.603 203.667 186.72C202.965 186.778 202.438 186.895 202.086 186.953L201.969 189.165Z" fill="#213563"/>
<path d="M209.699 191.262C209.817 189.107 211.398 187.768 213.565 187.535C214.502 187.419 215.204 187.593 215.79 187.943V187.651C215.907 186.079 215.438 185.381 214.092 185.555C213.506 185.613 212.92 185.788 212.393 186.021C212.276 186.079 212.1 186.138 211.983 186.138C211.632 186.196 211.398 186.021 211.281 185.73L211.163 185.497C211.105 185.322 211.105 185.206 211.105 185.148C211.105 184.856 211.281 184.565 211.632 184.391C212.628 183.808 213.623 183.517 214.56 183.401C217.43 183.11 218.484 184.391 218.308 187.186L217.957 192.543C217.957 193.008 217.547 193.416 217.078 193.474L216.493 193.532C216.024 193.591 215.673 193.241 215.731 192.776V192.426C215.087 193.358 214.033 193.94 212.686 194.057C210.754 194.231 209.582 193.183 209.699 191.262ZM215.673 189.515C215.263 189.224 214.677 189.107 213.974 189.224C213.037 189.34 212.335 189.864 212.276 190.679C212.218 191.436 212.803 191.844 213.623 191.727C214.502 191.611 215.146 191.262 215.614 190.563L215.673 189.515Z" fill="#213563"/>
<path d="M227.561 189.864C227.795 189.748 227.971 189.689 228.088 189.631C228.322 189.631 228.556 189.689 228.732 189.922L228.908 190.213C228.966 190.33 229.025 190.505 229.025 190.679C229.025 190.97 228.908 191.203 228.615 191.378C227.561 192.135 226.448 192.543 225.218 192.717C223.579 192.892 222.349 192.543 221.412 191.669C220.475 190.796 220.065 189.573 220.182 187.943C220.299 186.429 220.826 185.089 221.88 183.925C222.876 182.818 224.223 182.178 225.804 182.003C227.092 181.887 228.205 182.178 229.084 182.935C229.962 183.692 230.313 184.798 230.255 186.196C230.255 186.487 230.196 186.662 230.196 186.778C230.138 187.186 229.669 187.651 229.259 187.71L222.759 188.408C222.876 189.922 223.989 190.621 225.628 190.446C226.273 190.446 226.917 190.272 227.561 189.864ZM227.678 186.196C227.737 184.856 226.975 184.041 225.511 184.216C224.047 184.391 223.11 185.206 222.759 186.72L227.678 186.196Z" fill="#213563"/>
<path d="M234.998 191.378C234.53 191.436 234.178 191.087 234.237 190.621L234.647 183.867L232.187 184.158C231.719 184.216 231.367 183.867 231.426 183.401L231.484 182.469C231.484 182.003 231.894 181.596 232.363 181.537L239.8 180.722C240.269 180.664 240.62 181.013 240.561 181.479L240.503 182.411C240.503 182.877 240.093 183.284 239.624 183.343L237.165 183.634L236.755 190.388C236.755 190.854 236.345 191.262 235.877 191.32L234.998 191.378Z" fill="#213563"/>
<path d="M248.702 182.353C248.175 182.12 247.589 182.061 246.945 182.12C246.183 182.178 245.539 182.527 244.954 183.11C244.368 183.692 244.017 184.449 243.958 185.322C243.841 187.069 245.071 188.117 246.652 187.943C247.355 187.884 247.999 187.593 248.643 187.127C248.877 187.011 249.053 186.894 249.17 186.894C249.463 186.836 249.697 186.953 249.814 187.186L250.166 187.593C250.283 187.71 250.283 187.826 250.283 188.001C250.283 188.292 250.107 188.583 249.931 188.758C248.877 189.689 247.706 190.213 246.359 190.33C244.719 190.505 243.431 190.155 242.494 189.282C241.557 188.408 241.147 187.186 241.206 185.555C241.323 184.041 241.85 182.702 242.904 181.596C243.958 180.489 245.246 179.791 246.71 179.616C247.999 179.499 249.053 179.616 249.931 180.024C250.166 180.14 250.283 180.373 250.283 180.722C250.283 180.839 250.224 180.955 250.166 181.072L249.814 181.712C249.58 182.062 249.346 182.236 249.053 182.294C248.936 182.411 248.819 182.411 248.702 182.353Z" fill="#213563"/>
<path d="M252.391 189.457C251.981 189.515 251.688 189.165 251.747 188.758C251.747 188.583 251.805 188.467 251.922 188.292L253.855 185.613C252.859 185.381 252.04 184.449 252.098 182.877C252.215 180.722 253.914 179.092 257.31 178.684L259.77 178.393C260.238 178.335 260.59 178.684 260.531 179.15L260.004 187.71C260.004 188.176 259.594 188.583 259.125 188.641L258.189 188.758C257.72 188.816 257.369 188.467 257.427 188.001L257.544 185.788L256.139 185.963L254.265 188.641C253.972 189.049 253.621 189.282 253.211 189.34L252.391 189.457ZM257.72 183.925L257.896 180.955L256.783 181.072C255.612 181.188 254.909 182.003 254.851 182.819C254.792 183.634 255.553 184.158 256.373 184.041L257.72 183.925Z" fill="#213563"/>
<path d="M169.175 158.304C169.058 158.945 168.999 159.527 168.941 159.993C168.882 160.459 168.824 160.866 168.765 161.216C168.706 161.565 168.706 161.856 168.648 162.089C168.589 162.322 168.589 162.555 168.531 162.73L170.873 162.497C171.107 162.497 171.342 162.439 171.459 162.439C171.635 162.439 171.752 162.38 171.869 162.38C171.986 162.38 172.103 162.322 172.162 162.322C172.279 162.322 172.337 162.264 172.454 162.264C172.513 162.264 172.63 162.264 172.689 162.264C172.747 162.264 172.806 162.322 172.806 162.439C172.806 162.555 172.747 162.73 172.513 162.846C172.279 162.963 171.927 163.137 171.4 163.254C171.283 163.312 171.107 163.312 170.873 163.37C170.639 163.429 170.346 163.429 169.995 163.487C169.643 163.545 169.292 163.545 168.941 163.603C168.589 163.661 168.238 163.661 167.945 163.72C167.828 163.72 167.769 163.72 167.652 163.72C167.535 163.72 167.477 163.72 167.36 163.778C167.301 163.778 167.301 163.836 167.242 163.836C167.125 163.894 167.067 163.894 167.008 163.894C166.832 163.894 166.774 163.836 166.715 163.661C166.715 163.545 166.715 163.429 166.715 163.254C166.715 163.079 166.774 162.904 166.774 162.73C166.832 162.555 166.832 162.322 166.891 162.147C166.95 161.915 166.95 161.74 167.008 161.565L168.648 152.54C168.706 152.19 168.765 151.899 168.824 151.666C168.882 151.434 168.999 151.201 169.116 151.084C169.175 150.968 169.292 150.851 169.409 150.677C169.526 150.56 169.643 150.444 169.761 150.385C169.995 150.269 170.17 150.152 170.405 150.152C170.463 150.152 170.522 150.211 170.522 150.327C170.522 150.385 170.522 150.444 170.463 150.618C170.405 150.793 170.346 150.968 170.288 151.201C170.229 151.434 170.17 151.666 170.112 151.958C170.053 152.249 169.995 152.482 169.936 152.715C169.819 153.18 169.761 153.704 169.643 154.287C169.526 154.869 169.409 155.451 169.351 155.975C169.233 156.499 169.175 157.023 169.116 157.431C169.233 157.839 169.175 158.13 169.175 158.304Z" fill="#213564"/>
<path d="M178.428 159.236C177.725 160.342 177.081 161.158 176.554 161.74C176.026 162.322 175.558 162.672 175.089 162.788C174.68 162.846 174.387 162.73 174.152 162.497C173.918 162.264 173.743 161.856 173.743 161.391C173.684 160.634 173.743 159.818 174.035 159.003C174.328 158.188 174.68 157.489 175.207 156.791C175.734 156.092 176.261 155.568 176.846 155.102C177.432 154.636 178.018 154.345 178.72 154.112C178.955 154.054 179.189 153.937 179.482 153.879C179.774 153.821 179.95 153.821 180.009 153.763C180.126 153.763 180.301 153.763 180.36 153.763C180.477 153.763 180.536 153.821 180.536 153.879C180.536 153.996 180.477 154.17 180.419 154.287C180.36 154.345 180.301 154.403 180.184 154.461C180.126 154.52 180.009 154.52 179.892 154.578C179.774 154.578 179.657 154.578 179.423 154.578C179.189 154.578 179.013 154.578 178.837 154.578C178.545 154.636 178.252 154.694 178.018 154.869C177.783 155.044 177.491 155.218 177.256 155.451C177.022 155.684 176.788 155.975 176.554 156.266C176.319 156.558 176.144 156.907 175.968 157.256C175.792 157.606 175.617 157.955 175.499 158.363C175.382 158.829 175.265 159.294 175.207 159.644C175.148 160.051 175.148 160.401 175.207 160.808C175.265 161.099 175.324 161.332 175.382 161.449C175.499 161.565 175.558 161.565 175.675 161.565C175.851 161.565 176.085 161.391 176.378 161.158C176.612 160.925 176.905 160.575 177.139 160.168C177.432 159.76 177.666 159.353 177.9 158.887C178.135 158.421 178.369 158.013 178.545 157.547C178.662 157.256 178.779 156.965 178.837 156.732C178.896 156.441 178.955 156.266 179.013 156.15C179.072 155.975 179.13 155.742 179.189 155.626C179.247 155.451 179.364 155.335 179.54 155.16C179.716 155.044 179.892 154.927 180.067 154.869C180.243 154.811 180.36 154.753 180.477 154.753C180.594 154.753 180.653 154.811 180.653 154.869C180.594 155.16 180.477 155.451 180.419 155.801C180.36 156.092 180.301 156.383 180.184 156.732C180.126 157.082 180.067 157.373 180.009 157.722C179.95 158.246 179.892 158.77 179.833 159.294C179.774 159.818 179.774 160.226 179.833 160.459C179.833 160.575 179.892 160.692 179.95 160.808C180.009 160.925 180.067 161.041 180.126 161.099L180.301 161.274C180.301 161.332 180.243 161.449 180.184 161.565C180.126 161.682 180.009 161.856 179.892 162.031C179.774 162.206 179.657 162.322 179.482 162.439C179.364 162.555 179.247 162.613 179.13 162.613C178.955 162.613 178.837 162.555 178.72 162.497C178.603 162.38 178.545 162.148 178.486 161.798C178.486 161.565 178.428 161.274 178.428 160.983C178.428 160.692 178.428 160.401 178.428 160.11C178.428 159.818 178.486 159.469 178.486 159.178L178.428 159.236Z" fill="#213564"/>
<path d="M186.333 155.393C186.392 155.16 186.45 154.927 186.45 154.753C186.45 154.578 186.45 154.287 186.45 154.054C186.45 153.821 186.275 153.704 185.982 153.704C185.572 153.763 185.221 153.937 184.928 154.228C184.576 154.578 184.342 154.985 184.108 155.451C183.874 155.975 183.698 156.499 183.639 157.14C183.522 157.78 183.522 158.363 183.581 159.003C183.639 159.644 183.815 160.168 184.108 160.517C184.284 160.692 184.459 160.808 184.635 160.866C184.811 160.925 185.103 160.925 185.455 160.866C185.689 160.866 185.923 160.75 186.099 160.634C186.275 160.517 186.509 160.401 186.685 160.226C186.802 160.11 186.919 160.051 186.977 160.051C187.036 160.051 187.095 160.051 187.153 160.11C187.212 160.168 187.27 160.226 187.27 160.342C187.27 160.401 187.212 160.459 187.036 160.634C186.919 160.75 186.685 160.925 186.45 161.099C186.158 161.274 185.865 161.391 185.513 161.507C185.162 161.623 184.752 161.74 184.342 161.798C183.757 161.856 183.229 161.74 182.82 161.449C182.41 161.158 182.117 160.634 182.058 159.935C181.883 158.246 182.351 156.616 183.522 154.985C183.757 154.636 184.049 154.287 184.342 154.054C184.635 153.763 184.928 153.53 185.162 153.355C185.455 153.18 185.689 153.006 185.982 152.889C186.216 152.773 186.45 152.715 186.626 152.715C186.743 152.715 186.86 152.715 186.977 152.715C187.095 152.715 187.212 152.715 187.329 152.773C187.446 152.831 187.504 152.889 187.622 152.947C187.68 153.006 187.739 153.122 187.739 153.297C187.797 153.704 187.797 154.112 187.739 154.52C187.739 154.636 187.68 154.811 187.622 154.985C187.563 155.16 187.446 155.277 187.329 155.451C187.153 155.626 186.977 155.742 186.802 155.859C186.626 155.917 186.509 155.975 186.45 155.975C186.392 155.975 186.333 155.975 186.275 155.859L186.333 155.393Z" fill="#213564"/>
<path d="M193.185 152.831C193.537 152.773 193.829 152.773 194.064 152.715C194.298 152.656 194.532 152.656 194.825 152.598C194.942 152.598 195.059 152.598 195.118 152.598C195.176 152.598 195.176 152.656 195.176 152.715C195.176 152.831 195.059 152.947 194.884 153.122C194.766 153.18 194.649 153.297 194.474 153.355C194.298 153.413 194.064 153.53 193.829 153.588C193.654 153.646 193.537 153.646 193.42 153.704C193.302 153.704 193.127 153.763 193.01 153.763C192.951 153.763 192.892 153.763 192.775 153.821C192.717 153.821 192.6 153.821 192.541 153.821H192.307C192.307 153.996 192.248 154.228 192.19 154.578C192.131 154.927 192.073 155.277 192.014 155.742C191.955 156.15 191.897 156.616 191.78 157.082C191.663 157.547 191.663 158.013 191.604 158.479C191.546 158.712 191.546 158.945 191.546 159.178C191.546 159.353 191.546 159.527 191.546 159.644C191.546 159.76 191.546 159.818 191.604 159.877C191.604 159.935 191.663 159.993 191.663 160.11C191.663 160.168 191.663 160.226 191.663 160.284C191.663 160.342 191.604 160.401 191.604 160.459C191.546 160.517 191.487 160.575 191.428 160.692C191.311 160.808 191.253 160.925 191.136 161.041C191.018 161.158 190.901 161.274 190.784 161.332C190.667 161.449 190.55 161.449 190.433 161.507C190.14 161.507 190.023 161.449 189.964 161.274C189.964 161.216 189.964 161.099 189.964 160.983C189.964 160.808 190.023 160.692 190.023 160.459C190.023 160.284 190.081 160.051 190.081 159.877C190.081 159.644 190.14 159.469 190.14 159.236C190.199 158.829 190.257 158.421 190.316 157.955C190.374 157.547 190.433 157.082 190.491 156.732C190.55 156.325 190.609 155.975 190.667 155.626C190.726 155.277 190.784 154.985 190.784 154.811C190.784 154.694 190.843 154.578 190.843 154.461C190.843 154.345 190.901 154.17 190.96 153.996C190.726 154.054 190.491 154.054 190.316 154.112C190.14 154.17 189.964 154.17 189.789 154.17C189.613 154.17 189.496 154.228 189.437 154.228C189.203 154.228 189.086 154.17 189.086 154.054C189.086 153.937 189.086 153.821 189.145 153.704C189.203 153.646 189.262 153.53 189.32 153.472C189.437 153.355 189.554 153.297 189.672 153.297C189.789 153.297 189.964 153.297 190.14 153.239L191.077 153.122L191.428 151.259C191.487 150.968 191.604 150.677 191.721 150.444C191.838 150.211 192.073 149.978 192.307 149.861C192.483 149.803 192.658 149.745 192.834 149.687C192.951 149.687 193.01 149.745 193.01 149.803C192.951 149.92 192.951 150.036 192.892 150.153C192.834 150.269 192.834 150.327 192.834 150.444C192.834 150.56 192.775 150.618 192.775 150.735C192.775 150.851 192.717 150.968 192.717 151.084L192.365 152.947L193.185 152.831Z" fill="#213564"/>
<path d="M197.284 160.517C196.699 160.575 196.23 160.459 195.82 160.226C195.41 159.935 195.176 159.527 195.118 158.887C195.059 158.421 195.059 157.897 195.118 157.373C195.176 156.849 195.352 156.266 195.645 155.684C195.879 155.16 196.113 154.694 196.465 154.287C196.757 153.821 197.109 153.413 197.519 152.947C197.87 152.54 198.163 152.249 198.456 152.074C198.748 151.841 198.983 151.725 199.158 151.725C199.217 151.725 199.217 151.725 199.276 151.725C199.334 151.725 199.334 151.725 199.393 151.725H199.51C199.568 151.666 199.627 151.608 199.803 151.55C199.978 151.492 200.095 151.434 200.271 151.434C200.798 151.375 201.149 151.55 201.442 151.841C201.677 152.191 201.852 152.656 201.911 153.239C202.028 154.52 201.735 155.975 200.857 157.606C199.92 159.353 198.748 160.342 197.284 160.517ZM200.564 153.646C200.505 153.18 200.388 152.831 200.213 152.598C200.037 152.365 199.861 152.249 199.627 152.249C199.568 152.249 199.568 152.249 199.51 152.307C199.51 152.307 199.451 152.307 199.451 152.365L199.393 152.423H199.1C198.339 152.482 197.694 153.413 197.167 155.218C196.933 155.917 196.816 156.558 196.757 157.082C196.699 157.606 196.64 158.013 196.699 158.363C196.757 158.829 196.874 159.236 197.109 159.469C197.343 159.702 197.577 159.818 197.929 159.76C198.28 159.702 198.631 159.585 198.983 159.294C199.334 159.003 199.627 158.596 199.92 157.955C200.095 157.664 200.213 157.256 200.271 156.849C200.388 156.441 200.447 156.034 200.505 155.626C200.564 155.218 200.622 154.869 200.622 154.52C200.564 154.112 200.564 153.821 200.564 153.646Z" fill="#213564"/>
<path d="M208.704 151.55C208.528 151.725 208.235 151.841 208.001 151.841C207.708 151.899 207.416 151.899 207.181 151.899C206.947 151.899 206.654 151.899 206.361 151.899C205.893 151.958 205.483 152.074 205.132 152.365C204.839 152.598 204.663 152.947 204.722 153.413C204.722 153.53 204.78 153.646 204.839 153.763C204.897 153.879 204.956 153.937 205.073 153.996C205.249 154.112 205.483 154.228 205.717 154.345C205.952 154.461 206.186 154.578 206.42 154.694C206.654 154.811 206.889 154.927 207.064 155.044C207.298 155.16 207.474 155.277 207.591 155.335C208.001 155.626 208.177 155.917 208.235 156.325C208.235 156.616 208.235 156.849 208.118 157.198C208.001 157.489 207.884 157.78 207.708 158.072C207.533 158.363 207.24 158.654 206.947 158.887C206.654 159.12 206.303 159.353 205.952 159.527C205.717 159.644 205.483 159.702 205.249 159.76C205.015 159.818 204.722 159.877 204.312 159.935C204.078 159.935 203.902 159.935 203.668 159.935C203.433 159.877 203.258 159.877 203.023 159.76C202.848 159.702 202.672 159.585 202.496 159.469C202.379 159.353 202.262 159.236 202.204 159.061C202.204 158.945 202.262 158.829 202.321 158.712C202.379 158.596 202.496 158.479 202.672 158.304C202.731 158.246 202.848 158.13 202.965 158.072C203.141 157.955 203.258 157.897 203.316 157.897C203.375 158.072 203.492 158.246 203.551 158.363C203.668 158.537 203.785 158.654 203.902 158.77C204.019 158.887 204.195 158.945 204.429 159.003C204.605 159.061 204.839 159.061 205.132 159.061C205.425 159.003 205.717 158.945 205.952 158.829C206.186 158.712 206.42 158.596 206.537 158.421C206.713 158.246 206.83 158.072 206.889 157.839C206.947 157.606 207.006 157.431 207.006 157.198C207.006 156.965 206.889 156.791 206.771 156.616C206.654 156.441 206.479 156.325 206.244 156.208C205.834 156.034 205.483 155.859 205.132 155.684C204.78 155.568 204.429 155.335 204.078 155.102C203.843 154.985 203.668 154.811 203.609 154.636C203.551 154.461 203.492 154.228 203.492 153.996C203.492 153.879 203.492 153.704 203.551 153.53C203.609 153.297 203.726 153.064 203.902 152.831C204.078 152.598 204.312 152.307 204.663 152.074C204.956 151.841 205.424 151.608 205.893 151.434C206.127 151.375 206.42 151.259 206.654 151.201C206.947 151.142 207.181 151.084 207.357 151.026C207.533 151.026 207.708 150.968 207.884 150.968C208.06 150.968 208.235 150.968 208.411 150.909L208.938 150.851C208.997 151.142 208.938 151.375 208.704 151.55Z" fill="#213564"/>
<path d="M211.398 155.393C211.398 155.451 211.398 155.568 211.398 155.626C211.398 155.684 211.398 155.742 211.398 155.801C211.457 156.558 211.691 157.14 211.984 157.547C212.277 157.955 212.804 158.13 213.506 158.013C213.682 158.013 213.858 157.955 214.033 157.897C214.209 157.839 214.385 157.722 214.56 157.664C214.736 157.547 214.912 157.489 215.029 157.315C215.088 157.373 215.146 157.489 215.146 157.664C215.146 157.722 215.088 157.839 214.912 157.955C214.736 158.072 214.56 158.246 214.326 158.363C214.092 158.479 213.799 158.654 213.506 158.712C213.214 158.829 212.862 158.887 212.569 158.945C211.808 159.003 211.164 158.887 210.695 158.479C210.227 158.072 209.934 157.431 209.876 156.616C209.817 155.917 209.876 155.218 209.993 154.52C210.168 153.879 210.461 153.18 210.93 152.482C211.222 152.074 211.515 151.725 211.867 151.434C212.218 151.142 212.628 150.793 213.155 150.444C213.448 150.269 213.682 150.094 213.916 150.036C214.151 149.978 214.385 149.861 214.502 149.861C214.853 149.803 215.088 149.861 215.263 149.92C215.439 149.978 215.497 150.153 215.556 150.385C215.556 150.502 215.556 150.618 215.556 150.793C215.556 150.968 215.439 151.201 215.322 151.434C215.205 151.666 215.029 151.958 214.795 152.249C214.56 152.54 214.268 152.889 213.858 153.297C213.565 153.588 213.214 153.879 212.921 154.112C212.628 154.345 212.394 154.52 212.159 154.694C211.925 154.869 211.632 154.985 211.457 155.16L211.398 155.393ZM211.457 154.287C211.749 154.17 211.984 154.112 212.218 153.937C212.452 153.821 212.745 153.588 213.096 153.297C213.565 152.889 213.858 152.482 213.975 152.132C214.092 151.783 214.151 151.492 214.092 151.259C214.092 151.026 213.916 150.909 213.623 150.968C213.448 150.968 213.214 151.084 212.979 151.259C212.745 151.434 212.511 151.725 212.277 152.074C212.042 152.423 211.867 152.831 211.749 153.18C211.574 153.53 211.457 153.937 211.457 154.287Z" fill="#213564"/>
<path d="M228.674 146.717C228.615 147.008 228.556 147.358 228.498 147.707C228.439 148.056 228.381 148.406 228.322 148.697C228.264 149.046 228.205 149.396 228.147 149.803L228.966 149.745L230.606 149.512C230.84 149.454 230.957 149.512 231.016 149.687C231.016 149.803 230.899 149.92 230.723 150.094C230.489 150.211 230.138 150.385 229.669 150.56C229.493 150.618 229.259 150.618 229.025 150.677C228.791 150.735 228.439 150.735 228.029 150.793L227.737 152.365C227.678 152.773 227.619 153.18 227.561 153.588C227.502 153.996 227.444 154.461 227.385 154.985C227.385 155.218 227.327 155.451 227.327 155.684C227.327 155.975 227.327 156.15 227.268 156.325C227.268 156.441 227.21 156.558 227.21 156.616C227.21 156.732 227.151 156.791 227.034 156.907C226.975 156.965 226.917 157.082 226.8 157.198C226.741 157.315 226.624 157.373 226.507 157.489C226.39 157.606 226.273 157.664 226.214 157.722C226.097 157.78 225.98 157.839 225.921 157.839C225.628 157.839 225.511 157.78 225.511 157.606C225.511 157.489 225.511 157.373 225.511 157.14C225.511 156.965 225.57 156.732 225.57 156.558C225.628 156.325 225.628 156.15 225.687 155.975C225.745 155.801 225.745 155.626 225.745 155.568C225.804 155.335 225.804 155.102 225.863 154.869C225.921 154.636 225.98 154.345 226.038 153.996C226.097 153.646 226.155 153.239 226.214 152.715C226.273 152.249 226.39 151.666 226.448 150.968H226.214C225.98 150.968 225.804 150.968 225.804 150.793C225.804 150.56 225.863 150.385 225.98 150.269C226.097 150.153 226.331 150.094 226.565 150.036L227.268 146.368C227.268 146.309 227.327 146.193 227.327 146.018C227.327 145.844 227.385 145.669 227.385 145.552C227.327 145.552 227.268 145.552 227.151 145.552C227.092 145.552 226.975 145.552 226.917 145.552C226.741 145.552 226.682 145.494 226.624 145.378C226.624 145.261 226.741 145.145 226.975 145.028C227.21 144.912 227.444 144.796 227.795 144.679C228.088 144.621 228.439 144.504 228.732 144.446C228.849 144.446 229.025 144.388 229.201 144.388C229.376 144.388 229.611 144.33 229.845 144.33C230.196 144.271 230.43 144.271 230.723 144.213C230.957 144.213 231.192 144.155 231.367 144.155C231.66 144.097 231.894 144.097 232.07 144.039C232.246 143.98 232.422 143.98 232.597 143.922C232.656 143.922 232.773 143.922 232.831 143.922C232.89 143.922 232.949 143.98 232.949 144.039C232.949 144.155 232.831 144.271 232.656 144.446C232.48 144.563 232.304 144.679 231.953 144.796C231.602 144.912 231.309 144.97 230.899 145.028L230.255 145.087C230.138 145.087 230.02 145.087 229.903 145.145C229.728 145.145 229.611 145.203 229.493 145.203C229.318 145.261 229.142 145.261 228.966 145.32C228.908 145.494 228.908 145.669 228.849 145.844C228.791 146.018 228.791 146.135 228.732 146.309C228.674 146.426 228.674 146.542 228.674 146.717Z" fill="#213564"/>
<path d="M233.886 154.228C233.827 154.403 233.827 154.578 233.769 154.811C233.71 154.985 233.71 155.218 233.652 155.393C233.593 155.626 233.593 155.801 233.534 156.034C233.534 156.15 233.476 156.266 233.417 156.441C233.359 156.616 233.3 156.732 233.183 156.849C233.066 156.965 233.007 157.023 232.89 157.082C232.773 157.14 232.656 157.14 232.539 157.023C232.48 157.082 232.422 157.082 232.363 157.023C232.305 156.965 232.246 156.907 232.246 156.791C232.246 156.732 232.246 156.558 232.246 156.325C232.246 156.092 232.305 155.859 232.363 155.626C232.422 155.335 232.48 155.044 232.539 154.753C232.597 154.461 232.656 154.17 232.715 153.879C232.773 153.472 232.89 153.064 232.949 152.715C233.007 152.365 233.066 152.074 233.125 151.783C233.183 151.492 233.242 151.259 233.242 150.968C233.3 150.735 233.3 150.444 233.359 150.211C233.359 149.92 233.417 149.687 233.359 149.512C233.359 149.454 233.3 149.396 233.3 149.337C233.242 149.279 233.183 149.279 233.125 149.279C233.066 149.279 233.007 149.337 232.949 149.396C232.89 149.454 232.832 149.454 232.773 149.512C232.656 149.512 232.597 149.454 232.597 149.337C232.597 149.337 232.656 149.279 232.715 149.163C232.832 149.104 232.949 148.988 233.066 148.872C233.242 148.755 233.417 148.639 233.593 148.58C233.769 148.522 234.003 148.406 234.237 148.289C234.354 148.231 234.471 148.173 234.589 148.173C234.706 148.173 234.823 148.115 234.94 148.115C235.057 148.115 235.116 148.173 235.116 148.347C235.116 148.464 235.116 148.58 235.057 148.755C234.998 148.93 234.998 149.163 234.94 149.454C234.881 149.687 234.823 149.978 234.764 150.327C234.706 150.677 234.589 150.968 234.53 151.317H234.589C234.764 150.968 234.94 150.677 235.116 150.385C235.291 150.094 235.408 149.861 235.584 149.628C235.818 149.279 236.053 149.046 236.228 148.813C236.404 148.58 236.638 148.406 236.814 148.289C236.99 148.173 237.224 148.056 237.4 147.94C237.575 147.882 237.809 147.823 237.985 147.765C238.219 147.707 238.395 147.765 238.454 147.823C238.512 147.882 238.571 147.998 238.571 148.056C238.571 148.115 238.571 148.231 238.512 148.406C238.454 148.522 238.454 148.697 238.395 148.813C238.337 148.988 238.278 149.104 238.219 149.221C238.161 149.337 238.102 149.396 237.985 149.454C237.927 149.396 237.809 149.279 237.692 149.163C237.575 149.046 237.4 149.046 237.165 149.046C236.872 149.046 236.638 149.221 236.404 149.396C236.111 149.628 235.877 149.92 235.643 150.327C235.408 150.735 235.174 151.142 234.94 151.608C234.706 152.074 234.53 152.54 234.354 152.947C234.12 153.472 234.003 153.879 233.886 154.228Z" fill="#213564"/>
<path d="M239.918 152.423C239.918 152.482 239.918 152.598 239.918 152.656C239.918 152.715 239.918 152.773 239.918 152.831C239.976 153.588 240.21 154.17 240.503 154.578C240.796 154.985 241.323 155.16 242.026 155.044C242.202 155.044 242.377 154.985 242.553 154.927C242.729 154.869 242.904 154.753 243.08 154.694C243.256 154.578 243.431 154.52 243.548 154.345C243.607 154.403 243.666 154.52 243.666 154.694C243.666 154.753 243.607 154.869 243.431 154.985C243.256 155.102 243.08 155.277 242.846 155.393C242.611 155.509 242.319 155.684 242.026 155.742C241.733 155.859 241.382 155.917 241.089 155.975C240.328 156.034 239.683 155.917 239.215 155.51C238.746 155.102 238.454 154.461 238.395 153.646C238.336 152.947 238.395 152.249 238.512 151.55C238.688 150.909 238.981 150.211 239.449 149.512C239.742 149.104 240.035 148.755 240.386 148.464C240.738 148.173 241.147 147.823 241.675 147.474C241.967 147.299 242.202 147.125 242.436 147.066C242.67 147.008 242.904 146.892 243.021 146.892C243.373 146.834 243.607 146.892 243.783 146.95C243.958 147.008 244.017 147.183 244.076 147.416C244.076 147.532 244.076 147.649 244.076 147.823C244.076 147.998 243.958 148.231 243.841 148.464C243.724 148.697 243.548 148.988 243.314 149.279C243.08 149.57 242.787 149.92 242.377 150.327C242.084 150.618 241.733 150.909 241.44 151.142C241.147 151.375 240.913 151.55 240.679 151.725C240.445 151.899 240.152 152.016 239.976 152.19L239.918 152.423ZM239.976 151.317C240.269 151.201 240.503 151.142 240.738 150.968C240.972 150.851 241.265 150.618 241.616 150.327C242.084 149.92 242.377 149.512 242.494 149.163C242.611 148.813 242.67 148.522 242.611 148.289C242.611 148.056 242.436 147.94 242.143 147.998C241.967 147.998 241.733 148.115 241.499 148.289C241.265 148.464 241.03 148.755 240.796 149.104C240.562 149.454 240.386 149.861 240.269 150.211C240.093 150.618 239.976 150.968 239.976 151.317Z" fill="#213564"/>
<path d="M246.593 151.725C246.593 151.783 246.593 151.899 246.593 151.958C246.593 152.016 246.593 152.074 246.593 152.132C246.652 152.889 246.886 153.472 247.179 153.879C247.472 154.287 247.999 154.461 248.702 154.345C248.877 154.345 249.053 154.287 249.229 154.228C249.404 154.17 249.58 154.054 249.756 153.996C249.931 153.879 250.107 153.821 250.224 153.646C250.283 153.704 250.341 153.821 250.341 153.996C250.341 154.054 250.283 154.17 250.107 154.287C249.931 154.403 249.756 154.578 249.522 154.694C249.287 154.811 248.994 154.985 248.702 155.044C248.409 155.16 248.057 155.218 247.765 155.277C247.003 155.335 246.359 155.218 245.891 154.811C245.422 154.403 245.129 153.763 245.071 152.947C245.012 152.249 245.071 151.55 245.188 150.851C245.364 150.211 245.656 149.512 246.125 148.813C246.418 148.406 246.711 148.056 247.062 147.765C247.413 147.474 247.823 147.125 248.35 146.775C248.643 146.601 248.877 146.426 249.112 146.368C249.346 146.309 249.58 146.193 249.697 146.193C250.049 146.135 250.283 146.193 250.459 146.251C250.634 146.309 250.693 146.484 250.751 146.717C250.751 146.834 250.751 146.95 250.751 147.125C250.751 147.299 250.634 147.532 250.517 147.765C250.4 147.998 250.224 148.289 249.99 148.58C249.756 148.871 249.463 149.221 249.053 149.628C248.76 149.92 248.409 150.211 248.116 150.444C247.823 150.677 247.589 150.851 247.355 151.026C247.12 151.201 246.828 151.317 246.652 151.492L246.593 151.725ZM246.652 150.618C246.945 150.502 247.179 150.444 247.413 150.269C247.648 150.153 247.94 149.92 248.292 149.628C248.76 149.221 249.053 148.813 249.17 148.464C249.287 148.115 249.346 147.823 249.287 147.59C249.287 147.358 249.112 147.241 248.819 147.299C248.643 147.299 248.409 147.416 248.175 147.59C247.94 147.765 247.706 148.056 247.472 148.406C247.238 148.755 247.062 149.163 246.945 149.512C246.769 149.92 246.711 150.269 246.652 150.618Z" fill="#213564"/>
<path d="M252.977 144.912C252.567 144.621 252.157 144.33 251.864 144.039C251.571 143.747 251.395 143.514 251.337 143.282C251.337 143.223 251.337 143.107 251.395 142.99C251.454 142.874 251.454 142.758 251.571 142.641C251.63 142.525 251.688 142.466 251.805 142.35C251.923 142.292 251.981 142.233 252.098 142.233C252.215 142.233 252.332 142.233 252.391 142.35C252.45 142.466 252.508 142.525 252.567 142.641C252.684 142.816 252.86 142.99 252.977 143.165C253.152 143.34 253.328 143.456 253.504 143.631C253.562 143.165 253.562 142.699 253.621 142.292C253.679 141.884 253.738 141.593 253.796 141.477C253.855 141.418 253.914 141.36 253.972 141.302C254.031 141.244 254.148 141.244 254.324 141.185C254.382 141.127 254.441 141.127 254.499 141.127C254.558 141.127 254.616 141.069 254.733 141.069C254.792 141.069 254.851 141.069 254.851 141.127C254.851 141.185 254.851 141.244 254.851 141.302C254.792 141.535 254.733 141.826 254.733 142.059C254.675 142.292 254.675 142.525 254.616 142.758C254.558 142.99 254.499 143.282 254.499 143.514C254.733 143.282 254.968 143.049 255.319 142.699C255.612 142.408 255.905 142.059 256.139 141.768C256.198 141.651 256.256 141.535 256.315 141.477C256.373 141.36 256.432 141.302 256.549 141.302C256.607 141.302 256.666 141.302 256.666 141.36C256.666 141.36 256.666 141.418 256.725 141.535C256.725 141.768 256.666 142.059 256.549 142.292C256.432 142.525 256.198 142.758 256.022 142.932C255.788 143.165 255.612 143.398 255.378 143.631C255.143 143.864 254.909 144.097 254.675 144.33C255.085 144.563 255.495 144.737 255.846 144.854C256.198 144.97 256.432 145.087 256.607 145.203C256.607 145.203 256.549 145.32 256.49 145.378C256.432 145.494 256.373 145.611 256.315 145.727C256.256 145.844 256.198 145.96 256.139 146.018C256.08 146.135 256.022 146.135 255.905 146.193C255.788 146.193 255.553 146.135 255.261 146.077C254.968 146.018 254.675 145.844 254.324 145.669C254.324 145.902 254.265 146.193 254.206 146.601C254.148 146.833 254.089 147.008 254.031 147.066C253.972 147.125 253.855 147.183 253.738 147.183C253.621 147.183 253.504 147.183 253.445 147.183C253.387 147.183 253.328 147.125 253.269 147.125C253.269 146.775 253.328 146.426 253.328 146.193C253.328 145.96 253.387 145.669 253.445 145.378C253.094 145.611 252.742 145.844 252.508 146.018C252.215 146.193 252.04 146.251 251.923 146.309C251.747 146.309 251.63 146.251 251.63 146.135C251.63 146.018 251.747 145.902 252.04 145.785C252.157 145.494 252.508 145.203 252.977 144.912Z" fill="#213564"/>
</svg>
