<svg width="108" height="55" viewBox="0 0 108 55" fill="none" xmlns="http://www.w3.org/2000/svg">
<path d="M8.8705 15.0053L6.79856 16.4129C6.28058 16.7968 5.69784 16.9888 5.05036 16.9888C4.01439 16.9888 3.17266 16.5409 2.58993 15.7091L0.582734 12.9579C0.194245 12.4461 0 11.8703 0 11.2305C0 10.2068 0.453237 9.37501 1.29496 8.79918L9.77698 2.657C10.9424 1.82525 12.0432 1.37738 13.0791 1.37738H15.5396C17.1583 1.37738 18.518 2.72098 18.518 4.32051V43.029C18.518 44.6286 17.1583 45.9722 15.5396 45.9722H11.7842C10.1655 45.9722 8.80575 44.6286 8.80575 43.029V15.0053H8.8705Z" fill="#FFCE0B"/>
<path d="M28.4893 48.4034C29.2016 47.5717 29.59 46.7399 29.59 45.8442V45.5883C29.2663 45.9082 28.7483 46.0361 27.9713 46.0361H27.5828C25.4462 46.0361 23.439 43.7328 23.439 40.8537C23.439 37.2707 25.6404 34.9034 29.7195 34.9034C33.8634 34.9674 36.4534 38.2944 36.4534 42.9651C36.4534 48.5314 34.7051 51.6665 29.2016 54.4177C28.8778 54.6096 28.4246 54.6736 27.9066 54.6736C26.8059 54.6736 26.0289 54.2257 25.5757 53.394C25.3814 53.0101 25.2519 52.6262 25.2519 52.1783C25.2519 51.2186 25.7052 50.3869 26.6116 49.811C27.4534 49.3632 28.1008 48.8513 28.4893 48.4034Z" fill="#FFCE0B"/>
<path d="M64.7482 23.003C68.8273 20.9556 71.223 16.7968 71.223 12.4461C71.223 8.99112 69.7338 6.17595 66.8201 4.0006C63.9065 1.76126 60.2806 0.673584 56.0072 0.673584C51.669 0.673584 48.1726 1.76126 45.259 4.0006C42.3453 6.23993 40.8561 9.0551 40.8561 12.4461C40.8561 17.3726 42.7985 20.8916 46.6834 23.0669C42.6043 24.9224 39.7554 28.8892 39.7554 34.4556C39.7554 38.2305 41.3093 41.1736 44.3525 43.3489C47.3957 45.5883 51.3453 46.7399 56.0719 46.7399C60.928 46.7399 64.7482 45.5883 67.7913 43.221C70.8345 40.9177 72.3237 37.7186 72.3237 33.6238C72.3237 28.1214 68.9568 24.2826 64.7482 23.003ZM55.9424 10.2068C59.2446 10.2068 60.928 11.5504 60.928 14.1736C60.928 16.4129 59.3741 18.3323 56.5252 18.3323H55.6834C52.7698 18.3323 51.1511 16.4129 51.1511 14.1736C51.1511 11.8703 52.7698 10.2068 55.9424 10.2068ZM62.0288 32.7921C62.0288 35.7992 60.0216 37.2707 56.0072 37.2707C51.928 37.2707 50.0503 35.3513 50.0503 32.6001C50.0503 29.593 52.6403 27.8655 55.7482 27.8655H56.5252C59.8273 27.8655 61.964 29.529 62.0288 32.6001V32.7921Z" fill="#FFCE0B"/>
<path d="M89.4822 22.811C88.1225 21.6594 86.3096 21.0836 84.1082 21.0836C81.9067 21.0836 80.0938 21.6594 78.7341 22.811C77.3743 24.0267 76.6621 25.5622 76.6621 27.6096C76.6621 29.593 77.3743 31.1926 78.7341 32.4082C80.0938 33.6238 81.9067 34.2637 84.1082 34.2637C86.3096 34.2637 88.1225 33.6878 89.4822 32.4082C90.842 31.1926 91.5542 29.657 91.5542 27.6096C91.6189 25.5622 90.9067 23.9627 89.4822 22.811ZM84.1082 29.9769C82.6837 29.9769 81.583 29.0812 81.583 27.6096C81.583 26.9058 81.842 26.33 82.2952 25.9461C83.2017 25.1144 85.0146 25.1144 85.9859 25.9461C86.4391 26.394 86.6333 26.9058 86.6333 27.6096C86.6333 29.0812 85.6621 29.9769 84.1082 29.9769Z" fill="#FFCE0B"/>
<path d="M86.0505 45.1404C85.7268 45.5883 85.2735 45.7802 84.6908 45.7802C84.3023 45.7802 83.9138 45.6523 83.5253 45.3963C83.0073 45.0764 82.6836 44.5646 82.6836 43.9887C82.6836 43.6688 82.8131 43.3489 83.0073 43.093L98.6117 22.4271C98.9354 21.9793 99.3886 21.7873 99.9066 21.7873C100.36 21.7873 100.748 21.9153 101.137 22.1712C101.655 22.6191 101.979 23.0669 101.979 23.6428C101.979 23.9627 101.849 24.2826 101.655 24.6025L86.0505 45.1404Z" fill="#FFCE0B"/>
<path d="M105.928 35.0954C104.568 33.9437 102.755 33.3679 100.554 33.3679C98.3525 33.3679 96.5396 33.9437 95.1799 35.0954C93.8201 36.311 93.1079 37.8466 93.1079 39.894C93.1079 41.9414 93.8201 43.4769 95.1799 44.6925C96.5396 45.9082 98.3525 46.548 100.554 46.548C102.755 46.548 104.568 45.9722 105.928 44.6925C107.288 43.4769 108 41.9414 108 39.894C108 37.8466 107.353 36.247 105.928 35.0954ZM100.554 42.2613C99.1295 42.2613 98.0288 41.3655 98.0288 39.894C98.0288 39.1902 98.2878 38.6143 98.741 38.2304C99.6475 37.3987 101.46 37.3987 102.432 38.2304C102.885 38.6783 103.079 39.1902 103.079 39.894C103.079 41.3655 102.108 42.2613 100.554 42.2613Z" fill="#FFCE0B"/>
</svg>
