<svg width="36" height="36" viewBox="0 0 36 36" fill="none" xmlns="http://www.w3.org/2000/svg">
<g clip-path="url(#clip0_115_56)">
<path d="M34.7398 17.9998C34.7398 21.3106 33.758 24.5471 31.9186 27.3C30.0792 30.0529 27.4647 32.1985 24.4059 33.4655C21.3471 34.7325 17.9812 35.064 14.734 34.4181C11.4867 33.7722 8.50394 32.1779 6.16281 29.8367C3.82167 27.4956 2.22734 24.5128 1.58143 21.2656C0.935511 18.0183 1.26702 14.6525 2.53403 11.5936C3.80104 8.53481 5.94665 5.92038 8.69953 4.08096C11.4524 2.24155 14.6889 1.25977 17.9998 1.25977C20.1981 1.25977 22.3749 1.69276 24.4059 2.53402C26.4369 3.37529 28.2823 4.60835 29.8367 6.1628C31.3912 7.71725 32.6243 9.56265 33.4655 11.5936C34.3068 13.6246 34.7398 15.8014 34.7398 17.9998Z" fill="#FFCE0E"/>
<path d="M8.18994 25.5424H8.65794V22.6804H8.18994V22.6084H9.14394L9.91794 24.8764H9.93594L10.7099 22.6084H11.6279V22.6804H11.1599V25.5424H11.6279V25.5964H10.2779V25.5424H10.7459V22.6984L9.73794 25.5964L8.72994 22.7344V25.5424H9.19794V25.5964H8.18994V25.5424Z" fill="#1E1E1C"/>
<path d="M13.1039 25.542H13.5719V22.68H13.1039V22.626H15.4979V23.346H15.4439C15.4129 23.2455 15.3707 23.1489 15.3179 23.058C15.2806 22.9794 15.2321 22.9066 15.1739 22.842C15.1159 22.7796 15.0408 22.7358 14.9579 22.716C14.8652 22.6852 14.7674 22.673 14.6699 22.68H13.9679V23.976H14.2379C14.3164 23.9797 14.395 23.9736 14.4719 23.958C14.5331 23.9432 14.5891 23.9121 14.6339 23.868C14.6859 23.8156 14.7285 23.7547 14.7599 23.688C14.8055 23.5912 14.8359 23.488 14.8499 23.382H14.9039V24.696H14.8499C14.8319 24.606 14.8139 24.534 14.7959 24.462C14.777 24.3915 14.7466 24.3246 14.7059 24.264C14.6675 24.2073 14.6186 24.1584 14.5619 24.12C14.4845 24.0792 14.3973 24.0605 14.3099 24.066H13.9679V25.578H14.7599C14.8918 25.5826 15.0224 25.5515 15.1379 25.488C15.2342 25.4243 15.3194 25.3453 15.3899 25.254C15.4555 25.1678 15.5044 25.0701 15.5339 24.966C15.5672 24.886 15.5855 24.8006 15.5879 24.714H15.6419V25.632H13.0859V25.542H13.1039Z" fill="#1E1E1C"/>
<path d="M17.2979 25.5421H17.7659V22.6801H17.2979V22.6261H18.7919C18.8524 22.6222 18.9132 22.6283 18.9719 22.6441C19.0274 22.6475 19.0821 22.6596 19.1339 22.6801L19.2959 22.7341C19.4555 22.7841 19.607 22.8569 19.7459 22.9501C19.8699 23.0349 19.9743 23.1454 20.0519 23.2741C20.1299 23.3972 20.1905 23.5305 20.2319 23.6701C20.2675 23.8175 20.2857 23.9685 20.2859 24.1201C20.2897 24.291 20.2654 24.4612 20.2139 24.6241C20.1725 24.7638 20.1119 24.8971 20.0339 25.0201C19.9633 25.1327 19.8716 25.2305 19.7639 25.3081C19.6606 25.3911 19.5453 25.4579 19.4219 25.5061C19.359 25.538 19.2925 25.5622 19.2239 25.5781C19.1659 25.5987 19.1053 25.6109 19.0439 25.6141C18.9899 25.6141 18.9179 25.6321 18.8279 25.6321H17.3159V25.5421H17.2979ZM18.1799 25.5421C18.2339 25.5421 18.2879 25.5601 18.3419 25.5601H18.5579C18.6542 25.5631 18.7506 25.5571 18.8459 25.5421C18.9379 25.5266 19.0283 25.5025 19.1159 25.4701C19.2034 25.4398 19.2833 25.3906 19.3499 25.3261C19.4295 25.2608 19.4966 25.1815 19.5479 25.0921C19.6339 24.9475 19.6948 24.7892 19.7279 24.6241C19.7655 24.4527 19.7836 24.2776 19.7819 24.1021C19.7834 23.9028 19.7653 23.7039 19.7279 23.5081C19.697 23.3363 19.6226 23.1751 19.5119 23.0401C19.4196 22.9064 19.2872 22.8056 19.1339 22.7521C18.9455 22.6751 18.7432 22.6384 18.5399 22.6441H18.1799V25.5421Z" fill="#1E1E1C"/>
<path d="M21.978 25.5424H22.428V22.6804H21.978V22.6084H23.328V22.6804H22.86V25.5424H23.328V25.5964H21.978V25.5424Z" fill="#1E1E1C"/>
<path d="M24.6958 25.5421H25.0738L26.2078 22.5361H26.3158L27.4498 25.5421H27.8278V25.5961H26.5318V25.5421H26.9998L26.5678 24.3721H25.5958L25.1638 25.5421H25.6318V25.5961H24.7318V25.5421H24.6958ZM26.0638 23.0941L25.5958 24.3181H26.5138L26.0638 23.0941Z" fill="#1E1E1C"/>
<path d="M23.7962 10.3862V21.6542H20.8442V21.4382H21.8882V13.5722C21.8882 11.0342 23.7962 10.3862 23.7962 10.3862ZM22.4102 13.1762C22.4102 13.2153 22.4218 13.2536 22.4436 13.2862C22.4653 13.3187 22.4962 13.3441 22.5324 13.3591C22.5686 13.3741 22.6084 13.378 22.6468 13.3704C22.6852 13.3627 22.7205 13.3439 22.7482 13.3162C22.7759 13.2885 22.7948 13.2532 22.8024 13.2148C22.81 13.1764 22.8061 13.1366 22.7911 13.1004C22.7761 13.0642 22.7508 13.0333 22.7182 13.0115C22.6856 12.9898 22.6474 12.9782 22.6082 12.9782C22.5558 12.9786 22.5057 12.9996 22.4687 13.0367C22.4317 13.0737 22.4107 13.1238 22.4102 13.1762ZM22.4102 14.1482C22.4102 14.1873 22.4218 14.2256 22.4436 14.2582C22.4653 14.2907 22.4962 14.3161 22.5324 14.3311C22.5686 14.3461 22.6084 14.35 22.6468 14.3424C22.6852 14.3347 22.7205 14.3159 22.7482 14.2882C22.7759 14.2605 22.7948 14.2252 22.8024 14.1868C22.81 14.1484 22.8061 14.1086 22.7911 14.0724C22.7761 14.0362 22.7508 14.0053 22.7182 13.9835C22.6856 13.9618 22.6474 13.9502 22.6082 13.9502C22.5815 13.9473 22.5545 13.9505 22.5292 13.9595C22.5039 13.9684 22.4809 13.9829 22.4619 14.0019C22.4429 14.0209 22.4284 14.0439 22.4195 14.0692C22.4105 14.0945 22.4074 14.1215 22.4102 14.1482ZM22.4102 15.1022C22.4102 15.1413 22.4218 15.1796 22.4436 15.2122C22.4653 15.2447 22.4962 15.2701 22.5324 15.2851C22.5686 15.3001 22.6084 15.304 22.6468 15.2964C22.6852 15.2887 22.7205 15.2699 22.7482 15.2422C22.7759 15.2145 22.7948 15.1792 22.8024 15.1408C22.81 15.1024 22.8061 15.0626 22.7911 15.0264C22.7761 14.9902 22.7508 14.9593 22.7182 14.9375C22.6856 14.9158 22.6474 14.9042 22.6082 14.9042C22.5815 14.9013 22.5545 14.9045 22.5292 14.9135C22.5039 14.9224 22.4809 14.9369 22.4619 14.9559C22.4429 14.9749 22.4284 14.9979 22.4195 15.0232C22.4105 15.0485 22.4074 15.0755 22.4102 15.1022ZM22.4102 16.0562C22.4102 16.0953 22.4218 16.1336 22.4436 16.1662C22.4653 16.1987 22.4962 16.2241 22.5324 16.2391C22.5686 16.2541 22.6084 16.258 22.6468 16.2504C22.6852 16.2427 22.7205 16.2239 22.7482 16.1962C22.7759 16.1685 22.7948 16.1332 22.8024 16.0948C22.81 16.0564 22.8061 16.0166 22.7911 15.9804C22.7761 15.9442 22.7508 15.9133 22.7182 15.8915C22.6856 15.8698 22.6474 15.8582 22.6082 15.8582C22.5815 15.8553 22.5545 15.8585 22.5292 15.8675C22.5039 15.8764 22.4809 15.8909 22.4619 15.9099C22.4429 15.9289 22.4284 15.9519 22.4195 15.9772C22.4105 16.0025 22.4074 16.0295 22.4102 16.0562ZM22.4102 17.0102C22.4102 17.0493 22.4218 17.0876 22.4436 17.1202C22.4653 17.1527 22.4962 17.1781 22.5324 17.1931C22.5686 17.2081 22.6084 17.212 22.6468 17.2044C22.6852 17.1967 22.7205 17.1779 22.7482 17.1502C22.7759 17.1225 22.7948 17.0872 22.8024 17.0488C22.81 17.0104 22.8061 16.9706 22.7911 16.9344C22.7761 16.8982 22.7508 16.8673 22.7182 16.8455C22.6856 16.8238 22.6474 16.8122 22.6082 16.8122C22.5558 16.8126 22.5057 16.8336 22.4687 16.8707C22.4317 16.9077 22.4107 16.9578 22.4102 17.0102ZM22.8062 18.9182C22.8062 18.879 22.7946 18.8407 22.7728 18.8082C22.7511 18.7756 22.7201 18.7502 22.684 18.7352C22.6478 18.7203 22.608 18.7163 22.5696 18.724C22.5312 18.7316 22.4959 18.7505 22.4682 18.7782C22.4405 18.8058 22.4216 18.8411 22.414 18.8795C22.4064 18.9179 22.4103 18.9578 22.4253 18.9939C22.4403 19.0301 22.4656 19.061 22.4982 19.0828C22.5308 19.1046 22.569 19.1162 22.6082 19.1162C22.6606 19.1157 22.7107 19.0947 22.7477 19.0577C22.7847 19.0206 22.8057 18.9705 22.8062 18.9182ZM22.8062 17.9642C22.8062 17.925 22.7946 17.8867 22.7728 17.8542C22.7511 17.8216 22.7201 17.7962 22.684 17.7812C22.6478 17.7662 22.608 17.7623 22.5696 17.77C22.5312 17.7776 22.4959 17.7965 22.4682 17.8242C22.4405 17.8518 22.4216 17.8871 22.414 17.9255C22.4064 17.9639 22.4103 18.0038 22.4253 18.0399C22.4403 18.0761 22.4656 18.107 22.4982 18.1288C22.5308 18.1506 22.569 18.1622 22.6082 18.1622C22.6606 18.1617 22.7107 18.1407 22.7477 18.1037C22.7847 18.0666 22.8057 18.0165 22.8062 17.9642ZM27.4502 11.0882L27.6662 10.7282L27.3062 10.3682L25.7762 11.4302V21.4202H24.7322V21.6362H27.4682L27.6842 21.2762L27.4682 20.9162L27.6842 20.5562L27.4682 20.1962L27.6842 19.8542L27.4682 19.4942L27.6842 19.1342L27.4682 18.7742L27.6842 18.4142L27.4682 18.0542L27.6842 17.6942L27.4682 17.3342L27.6842 16.9742L27.4682 16.6142L27.6842 16.2542L27.4682 15.9122L27.6842 15.5522L27.4682 15.1922L27.6842 14.8502L27.4682 14.4902L27.6842 14.1302L27.4682 13.7702L27.6842 13.4102L27.4682 13.0502L27.6842 12.6902L27.4682 12.3302L27.6842 11.9702L27.4682 11.6102L27.6842 11.2502L27.4502 11.0882ZM16.2002 17.2622C16.4498 17.6738 16.5748 18.149 16.5602 18.6302C16.5795 19.167 16.4143 19.6943 16.0922 20.1242C15.7878 20.5159 15.4005 20.8355 14.9582 21.0602C14.5144 21.2961 14.0334 21.4544 13.5362 21.5282C13.0908 21.6099 12.639 21.652 12.1862 21.6542C11.7542 21.6542 11.3042 21.6542 10.8722 21.6362C10.4402 21.6182 10.0082 21.6182 9.5582 21.6182H7.2002V21.4022H8.6402V10.7102H7.2002V10.4942H9.5582C9.9902 10.4942 10.4222 10.4942 10.8542 10.4762C11.2862 10.4582 11.7182 10.4582 12.1502 10.4582C12.5793 10.4572 13.0075 10.4994 13.4282 10.5842C13.8549 10.6592 14.2676 10.7988 14.6522 10.9982C15.0126 11.1917 15.326 11.4621 15.5702 11.7902C15.8142 12.1577 15.9398 12.5911 15.9302 13.0322C15.9409 13.4399 15.8141 13.8393 15.5702 14.1662C15.3374 14.4684 15.0506 14.7247 14.7242 14.9222C14.3952 15.1129 14.0447 15.2639 13.6802 15.3722C13.382 15.4702 13.0743 15.5365 12.7622 15.5702V15.6242C13.1857 15.6651 13.6065 15.7312 14.0222 15.8222C14.4458 15.9243 14.8521 16.0881 15.2282 16.3082C15.6153 16.5547 15.9465 16.8797 16.2002 17.2622ZM10.9442 15.5702H11.5922C11.9727 15.5888 12.3529 15.5275 12.7082 15.3902C12.9557 15.2833 13.1679 15.1086 13.3202 14.8862C13.4596 14.6693 13.5459 14.4226 13.5722 14.1662C13.6087 13.8917 13.6267 13.6151 13.6262 13.3382C13.6273 12.9404 13.5972 12.5432 13.5362 12.1502C13.4928 11.8615 13.3885 11.5854 13.2302 11.3402C13.0889 11.1233 12.8801 10.9588 12.6362 10.8722C12.3262 10.7539 11.9958 10.6989 11.6642 10.7102C11.5499 10.7072 11.4355 10.7132 11.3222 10.7282C11.2142 10.7462 11.0882 10.7462 10.9802 10.7642V15.5702H10.9442ZM14.0222 18.4682C14.0177 18.2273 13.9996 17.987 13.9682 17.7482C13.9348 17.442 13.8496 17.1438 13.7162 16.8662C13.5625 16.5668 13.3405 16.3078 13.0682 16.1102C12.7122 15.8737 12.2888 15.7599 11.8622 15.7862H10.9622V21.4382C11.2608 21.4752 11.5614 21.4932 11.8622 21.4922C12.1657 21.4963 12.4683 21.4599 12.7622 21.3842C13.0292 21.3042 13.267 21.1477 13.4462 20.9342C13.6533 20.6621 13.8005 20.3492 13.8782 20.0162C13.9821 19.5069 14.0304 18.9879 14.0222 18.4682ZM18.9362 10.4762C18.7918 10.4739 18.6485 10.5015 18.5153 10.5573C18.3821 10.613 18.2619 10.6957 18.1622 10.8002C18.0593 10.901 17.9776 11.0215 17.922 11.1544C17.8663 11.2873 17.8378 11.4301 17.8382 11.5742C17.8359 11.7185 17.8636 11.8618 17.9193 11.995C17.9751 12.1282 18.0578 12.2484 18.1622 12.3482C18.2631 12.4511 18.3835 12.5328 18.5164 12.5884C18.6494 12.644 18.7921 12.6725 18.9362 12.6722C19.0806 12.6744 19.2239 12.6468 19.3571 12.591C19.4902 12.5353 19.6105 12.4526 19.7102 12.3482C19.8131 12.2473 19.8948 12.1268 19.9504 11.9939C20.0061 11.861 20.0346 11.7183 20.0342 11.5742C20.0318 11.2837 19.9154 11.0058 19.71 10.8004C19.5046 10.595 19.2267 10.4785 18.9362 10.4762ZM18.9362 14.9402C18.9362 14.9402 19.1342 17.1182 17.9822 17.7842V21.4382H16.9382V21.6542H19.8902V18.4862C19.8902 15.6422 18.9362 14.9402 18.9362 14.9402Z" fill="#1E1E1C"/>
</g>
<defs>
<clipPath id="clip0_115_56">
<rect width="36" height="36" fill="white"/>
</clipPath>
</defs>
</svg>
