<svg width="83" height="54" viewBox="0 0 83 54" fill="none" xmlns="http://www.w3.org/2000/svg">
<path d="M1.5625 42.7446V29.3747C1.5625 28.9193 2.05074 28.9193 2.05074 28.9193H3.87348C3.87348 28.9193 4.32917 28.9193 4.32917 29.3747V30.253C4.32917 30.2855 4.32917 30.253 4.32917 30.253C4.32917 30.253 4.36172 30.253 4.36172 30.2205C5.07779 29.1145 6.21701 28.6265 7.51897 28.6265C10.8715 28.6265 12.3688 31.294 12.3688 34.3193C12.3688 37.1494 10.8064 39.7843 7.68172 39.7843C6.4123 39.7843 5.20799 39.2639 4.49191 38.1904C4.49191 38.1904 4.49191 38.1904 4.45936 38.1904C4.45936 38.1904 4.45936 38.1904 4.45936 38.2229V42.7446C4.45936 43.2 4.00368 43.2 4.00368 43.2H2.01819C2.05074 43.2651 1.5625 43.2651 1.5625 42.7446ZM9.50446 34.2217C9.50446 32.5301 8.85348 30.806 6.93309 30.806C5.0127 30.806 4.42681 32.4976 4.42681 34.2217C4.42681 35.9458 5.07779 37.6048 6.99819 37.6048C8.88603 37.6048 9.50446 35.9458 9.50446 34.2217Z" fill="#1D3762"/>
<path d="M15.5261 32.1723H13.4755C13.0198 32.1723 13.0198 31.847 13.0524 31.7169C13.4755 29.3747 15.7539 28.6265 17.9998 28.6265C20.1155 28.6265 22.6869 29.0819 22.6869 31.6193V37.1494C22.6869 37.8651 22.7194 38.5482 22.8496 39.0361C22.8822 39.2313 23.0124 39.4916 22.5567 39.4916H20.4084C20.083 39.4916 19.9528 39.1663 19.9202 39.0361C19.8877 38.8735 19.8226 38.6783 19.8226 38.5157C19.8226 38.4831 19.8226 38.5157 19.79 38.5157C18.8786 39.459 17.5116 39.7843 16.2422 39.7843C14.2241 39.7843 12.5967 38.8084 12.5967 36.6289C12.5967 34.2542 14.4194 33.6687 16.2422 33.4084C18.0324 33.1482 19.7249 33.2133 19.7249 32.0096C19.7249 30.7735 18.8461 30.5783 17.8371 30.5783C16.8931 30.5783 16.2096 30.9036 15.9818 31.6843C15.9492 31.847 15.9167 32.1723 15.5261 32.1723ZM19.7575 34.3518C19.7575 34.3193 19.7249 34.3518 19.7575 34.3518C19.2041 34.7747 18.2277 34.8072 17.3163 34.9373C16.4049 35.1 15.5912 35.4253 15.5912 36.4988C15.5912 37.5723 16.4049 37.8651 17.3814 37.8651C19.6598 37.8651 19.7249 36.0434 19.7249 35.4253L19.7575 34.3518Z" fill="#1D3762"/>
<path d="M51.0365 32.1723H48.9859C48.5302 32.1723 48.5302 31.847 48.5628 31.7169C48.9859 29.3747 51.2644 28.6265 53.5428 28.6265C55.6585 28.6265 58.2298 29.0819 58.2298 31.6193V37.1494C58.2298 37.8651 58.2624 38.5482 58.3926 39.0362C58.4251 39.2313 58.5553 39.4916 58.0997 39.4916H55.9514C55.6259 39.4916 55.4957 39.1663 55.4632 39.0362C55.4306 38.8735 55.3655 38.6783 55.3655 38.5157C55.3655 38.4832 55.3655 38.5157 55.333 38.5157C54.4216 39.4591 53.0546 39.7844 51.7851 39.7844C49.7671 39.7844 48.1396 38.8085 48.1396 36.6289C48.1396 34.2542 49.9624 33.6687 51.7851 33.4085C53.5753 33.1482 55.2679 33.2133 55.2679 32.0097C55.2679 30.7735 54.3891 30.5783 53.38 30.5783C52.4361 30.5783 51.7526 30.9036 51.5247 31.6844C51.4597 31.847 51.4271 32.1723 51.0365 32.1723ZM55.2679 34.3518C55.2679 34.3193 55.2353 34.3518 55.2679 34.3518C54.7146 34.7747 53.7381 34.8072 52.8267 34.9374C51.9153 35.1 51.1016 35.4253 51.1016 36.4988C51.1016 37.5723 51.9153 37.8651 52.8918 37.8651C55.1702 37.8651 55.2353 36.0434 55.2353 35.4253V34.3518H55.2679Z" fill="#1D3762"/>
<path d="M65.8464 32.1723H63.7958C63.3401 32.1723 63.3401 31.847 63.3727 31.7169C63.7958 29.3747 66.0742 28.6265 68.3201 28.6265C70.4358 28.6265 73.0072 29.0819 73.0072 31.6193V37.1494C73.0072 37.8651 73.0397 38.5482 73.1699 39.0362C73.2025 39.2313 73.3327 39.4916 72.877 39.4916H70.7288C70.4033 39.4916 70.2731 39.1663 70.2405 39.0362C70.208 38.8735 70.1429 38.6783 70.1429 38.5157C70.1429 38.4832 70.1429 38.5157 70.1103 38.5157C69.1989 39.4591 67.8319 39.7844 66.5625 39.7844C64.5444 39.7844 62.917 38.8085 62.917 36.6289C62.917 34.2542 64.7397 33.6687 66.5625 33.4085C68.3527 33.1482 70.0452 33.2133 70.0452 32.0097C70.0452 30.7735 69.1664 30.5783 68.1574 30.5783C67.2135 30.5783 66.5299 30.9036 66.3021 31.6844C66.3021 31.847 66.2044 32.1723 65.8464 32.1723ZM70.0778 34.3518C70.0778 34.3193 70.0778 34.3518 70.0778 34.3518C69.5244 34.7747 68.548 34.8072 67.6366 34.9374C66.7252 35.1 65.9115 35.4253 65.9115 36.4988C65.9115 37.5723 66.7252 37.8651 67.7017 37.8651C69.9801 37.8651 70.0452 36.0434 70.0452 35.4253V34.3518H70.0778Z" fill="#1D3762"/>
<path d="M23.6309 39.0362V29.3747C23.6309 28.8868 24.0865 28.9193 24.0865 28.9193H25.9093C25.9093 28.9193 26.365 28.9193 26.365 29.3747V30.8711V30.9036C26.365 30.9036 26.3975 30.9036 26.3975 30.8711C26.9509 29.5374 28.383 28.6591 29.7826 28.6591C29.8152 28.6591 29.9128 28.6591 29.9454 28.6591C30.1081 28.6591 30.4336 28.7566 30.4336 29.147V31.0012C30.4336 31.4892 30.1407 31.4241 29.9454 31.4241C29.7501 31.4241 29.5222 31.3916 29.3595 31.3916C27.2113 31.3916 26.4626 32.9205 26.4626 34.8073V39.1338C26.4626 39.5892 26.0069 39.5892 26.0069 39.5892H24.0214C24.0865 39.4916 23.6309 39.4916 23.6309 39.0362Z" fill="#1D3762"/>
<path d="M31.2793 39.0362V29.3747C31.2793 28.9193 31.7675 28.9193 31.7675 28.9193H33.5903C33.5903 28.9193 34.046 28.9193 34.046 29.3747V30.3181C34.0785 30.3181 34.0785 30.3181 34.0785 30.2856C34.8271 29.2121 35.9338 28.594 37.3009 28.594C38.6354 28.594 39.8071 29.0819 40.393 30.3506C41.0115 29.4398 42.1181 28.594 43.6154 28.594C45.8938 28.594 47.4887 29.635 47.4887 32.3675V39.0036C47.4887 39.4591 47.033 39.4591 47.033 39.4591H45.0801C45.0801 39.4591 44.6244 39.4591 44.6244 39.0036V33.4735C44.6244 32.0747 44.4942 30.8711 42.8342 30.8711C41.1742 30.8711 40.8813 32.2374 40.8813 33.5386V38.9711C40.8813 39.4591 40.4256 39.4265 40.4256 39.4265H38.4401C38.4401 39.4265 37.9844 39.4265 37.9844 38.9711V33.506C37.9844 32.2699 38.082 30.8711 36.1942 30.8711C35.6083 30.8711 34.2087 31.2289 34.2087 33.3109V39.0036C34.2087 39.4591 33.753 39.4591 33.753 39.4591H31.7675C31.735 39.4916 31.2793 39.4916 31.2793 39.0362Z" fill="#1D3762"/>
<path d="M59.3047 39.0361V26.1867C59.3047 26.1867 59.3047 25.7313 59.7602 25.7313H61.7451C62.2007 25.7313 62.2007 26.1867 62.2007 26.1867V39.0361C62.2007 39.4916 61.7451 39.4916 61.7451 39.4916H59.7602C59.7602 39.4916 59.3047 39.4916 59.3047 39.0361Z" fill="#1D3762"/>
<path d="M77.8899 26.1867V28.3988C77.8899 28.3988 77.8899 28.8542 78.3455 28.8542H79.5499C80.0055 28.8542 80.0055 29.3096 80.0055 29.3096V30.2855C80.0055 30.7735 79.5499 30.741 79.5499 30.741H78.3455C78.3455 30.741 77.8899 30.741 77.8899 31.1964V35.9783C77.8899 36.9542 78.1503 37.2145 79.1267 37.2145C79.2895 37.2145 79.4197 37.2145 79.5499 37.2145C80.0055 37.1819 80.0055 37.1819 80.0055 37.6699V39.0036C80.0055 39.0036 80.0055 39.4265 79.5499 39.459C79.1267 39.4916 78.7361 39.4916 78.313 39.4916C76.5228 39.4916 74.9605 39.0687 74.9605 36.9867V31.2289C74.9605 31.2289 74.9604 30.7735 74.5048 30.7735H73.691C73.691 30.7735 73.2354 30.7735 73.2354 30.3181V29.3422C73.2354 29.3422 73.2353 28.8867 73.691 28.8867H74.5048C74.9604 28.8867 74.9605 28.4313 74.9605 28.4313V26.2193C74.9605 26.2193 74.9604 25.7639 75.4161 25.7639H77.4016C77.8899 25.6988 77.8899 26.1867 77.8899 26.1867Z" fill="#1D3762"/>
<path d="M50.7436 15.0614C51.4596 13.9229 51.8502 11.7759 51.9804 9.82409C52.1106 7.87228 52.2408 6.3759 51.2644 5.92048C50.3204 5.49758 48.9208 6.50602 47.0981 7.64457C45.2753 8.78313 43.42 10.312 42.704 11.4831C41.5322 13.3373 42.411 15.647 44.6569 16.6229C46.8702 17.6313 49.6044 16.9157 50.7436 15.0614Z" fill="#1671B3"/>
<path d="M40.7835 11.5807C39.9698 10.5072 37.9843 9.07591 36.0313 8.03495C34.0784 6.96146 32.6137 6.05061 31.6372 6.53856C30.7259 7.02652 31.0514 8.55543 31.3443 10.5072C31.6698 12.459 32.3208 14.541 33.1345 15.647C34.5015 17.4036 37.2682 17.9566 39.3839 16.8506C41.5321 15.6795 42.118 13.3374 40.7835 11.5807Z" fill="#1671B3"/>
<path d="M32.2564 17.1759C30.7266 17.2084 28.2854 17.9566 26.2674 18.8349C24.2493 19.7133 22.5568 20.3639 22.5893 21.2747C22.6219 22.1855 24.3795 22.706 26.5278 23.4542C28.676 24.2024 31.1497 24.8205 32.6795 24.788C35.1533 24.6904 37.1062 22.9663 36.976 20.8843C36.8783 18.7374 34.7627 17.0783 32.2564 17.1759Z" fill="#1671B3"/>
<path d="M52.3713 24.1048C53.9011 24.0723 56.3423 23.3241 58.3603 22.4458C60.3783 21.5675 62.0709 20.9169 62.0383 20.006C62.0058 19.0952 60.2481 18.5747 58.0999 17.794C55.9517 17.0458 53.4779 16.4277 51.9481 16.4602C49.4744 16.5578 47.5215 18.2819 47.6517 20.3639C47.7493 22.5434 49.865 24.1374 52.3713 24.1048Z" fill="#1671B3"/>
<path d="M43.5503 2.60241C42.6715 1.17108 42.0205 0 41.1091 0C40.1977 0.0325301 39.7095 1.23614 38.9609 2.73253C38.2448 4.22892 37.6915 5.95301 37.724 7.02651C37.8217 8.7506 39.5793 10.1169 41.5974 10.0843C43.6479 9.98675 45.2428 8.55542 45.1452 6.83133C45.1777 5.7253 44.4291 4.03373 43.5503 2.60241Z" fill="#3CA1D7"/>
<path d="M24.4773 10.6699C22.5895 10.5723 21.0597 10.4747 20.6365 11.1253C20.2134 11.7759 21.2224 12.7843 22.3616 14.053C23.5334 15.3217 25.0632 16.6554 26.1699 17.1434C27.9926 17.9566 30.271 17.4036 31.215 15.8096C32.1589 14.2807 31.4754 12.394 29.5875 11.5807C28.4809 11.0927 26.3652 10.7349 24.4773 10.6699Z" fill="#3CA1D7"/>
<path d="M61.2903 12.7843C62.3319 11.4181 63.1781 10.4096 62.6899 9.72651C62.2017 9.07591 60.7044 9.30362 58.8166 9.53133C56.9287 9.72651 54.8456 10.1819 53.7715 10.7349C52.0464 11.6458 51.5256 13.5651 52.6648 15.0614C53.7715 16.5578 56.0824 17.0133 57.8401 16.0374C58.9142 15.4843 60.2813 14.0855 61.2903 12.7843Z" fill="#3CA1D7"/>
<path d="M39.6126 3.22048C39.0267 4.42409 38.571 5.82289 38.6361 6.63614C38.7337 8.03493 40.1333 9.10843 41.7933 9.0759C42.2165 9.0759 42.5745 8.97831 42.9 8.88072C42.8675 8.88072 42.8024 8.88072 42.7698 8.88072C41.1098 9.14096 39.58 8.23012 39.3522 6.86385C39.1894 6.0506 39.4824 4.58674 39.938 3.31807C40.2635 2.34216 40.5239 1.49638 40.9796 1.13855C40.4263 1.39879 40.0682 2.21204 39.6126 3.22048Z" fill="white"/>
<path d="M27.2108 16.0699C26.2668 15.8096 24.8998 14.9639 23.8257 14.0855C23.0445 13.4675 22.1657 12.7193 21.8076 12.1337C21.9378 12.6217 22.5562 13.2723 23.2398 14.0855C24.1837 15.1265 25.388 16.1349 26.2994 16.5578C27.7315 17.2084 29.5543 16.7205 30.3029 15.5169C30.3355 15.4843 30.3355 15.4193 30.4006 15.3867C29.5868 16.0699 28.35 16.3952 27.2108 16.0699Z" fill="white"/>
<path d="M54.4875 11.0928C53.0879 11.841 52.6973 13.4024 53.5761 14.541C54.1946 15.4193 55.3663 15.8097 56.473 15.6795C55.5942 15.647 54.813 15.2566 54.2922 14.6386C53.3483 13.5325 53.6738 11.9711 55.0408 11.1253C55.6918 10.7024 56.8636 10.3771 58.1004 10.1494C56.6683 10.3446 55.2687 10.6699 54.4875 11.0928Z" fill="white"/>
<path d="M45.9593 23.8771C44.4295 25.894 41.5327 26.3494 39.5146 24.8205C37.464 23.2916 37.0409 20.4289 38.5707 18.3795C40.1005 16.3301 42.9974 15.9072 45.0154 17.4361C47.0335 18.9325 47.4891 21.8277 45.9593 23.8771Z" fill="#FFDC0F"/>
<path d="M43.2904 12.3614L43.3229 12.2313L43.3554 12.1012L43.4531 12.0361L43.4856 11.906L43.5507 11.7759V11.7434L43.6158 11.6458L43.6809 11.5807L43.746 11.4831L43.8111 11.4181L43.9088 11.288L43.9739 11.1904L44.0715 11.1253L44.1366 10.9952L44.2343 10.9301L44.3645 10.8L44.4296 10.7024L44.5598 10.6374L44.6574 10.5072L44.7551 10.4096L44.8853 10.3121L45.0154 10.2145L45.1782 10.0518L45.3409 9.92169L45.5362 9.75904L45.7315 9.62892L45.9268 9.46627L46.0896 9.33615L46.2849 9.1735L46.5127 9.07591L46.708 8.94578L46.8707 8.78313L47.066 8.65301L47.2613 8.55542L47.359 8.49036L47.4892 8.39277H47.5217H47.5868H47.6194V8.45783H47.6519V8.49036V8.52289L47.6194 8.55542L47.4892 8.68554L47.359 8.78313L47.1962 8.94578L47.0009 9.10844L46.8382 9.23856L46.6754 9.40121L46.4476 9.56386L46.2849 9.72651L46.1221 9.88916L45.9594 10.0518L45.7966 10.2145L45.6339 10.3771L45.5037 10.5398L45.3735 10.6699L45.3084 10.7349L45.2107 10.8651L45.0805 10.9952L45.0154 11.0928L44.9178 11.1904L44.8527 11.288L44.7551 11.4181L44.7225 11.4831L44.6574 11.5807L44.5598 11.7108L44.5272 11.7759L44.4296 11.8735L44.397 11.9711L44.3645 12.0687L44.2994 12.1663V12.1988L44.2343 12.3289L44.2017 12.4265L44.1366 12.5241V12.6542L44.1041 12.7843L44.0715 12.8819V12.9795V13.1096V13.2072V13.3374V13.4349V13.5651V13.6627L44.1041 13.7602L44.1366 13.8904V13.9554L44.2017 14.0855L44.2343 14.2157L44.2668 14.2807L44.3645 14.4108L44.397 14.5084L44.4296 14.5735L44.5272 14.7036L44.5923 14.8012L44.6574 14.8663L44.7225 14.9639L44.8202 15.0289L44.8853 15.1265L45.0154 15.1916L45.0805 15.2892L45.1782 15.3542L45.3084 15.4518L45.3735 15.5169L45.5037 15.5819L45.6339 15.647L45.7641 15.6795L45.8943 15.7446L45.9919 15.8096L46.1221 15.8422L46.2523 15.9072L46.4151 15.9398L46.5453 15.9723H46.708L46.8382 16.0374H46.9684L47.1311 16.0699H47.2613H47.4241H47.5217H47.6845L47.8147 16.0374H47.9774H48.0425L48.0751 16.0699V16.1024H48.1076V16.1349L48.0751 16.2V16.2325H48.0425L47.8798 16.2651L47.7496 16.2976L47.6194 16.3627H47.4566H47.3264L47.1637 16.3952H47.0335H46.8707H46.7405H46.5778L46.4476 16.3627H46.2849L46.1872 16.2976H45.9919L45.8943 16.2651L45.7315 16.2325L45.6013 16.2L45.4386 16.1349L45.3084 16.0699L45.1782 16.0374L45.0154 15.9398L44.8853 15.9072L44.7551 15.8096L44.6574 15.7446L44.5272 15.647L44.4296 15.5819L44.2994 15.4843L44.2343 15.4193L44.1041 15.3217L44.0064 15.2241L43.9413 15.1265L43.8437 15.0289L43.7786 14.9639L43.6809 14.8337L43.6158 14.7361L43.5182 14.6386L43.4856 14.5084L43.4531 14.3783L43.3554 14.2807L43.3229 14.1831L43.2904 14.053L43.2253 13.9554V13.8253L43.1927 13.7277V13.5976L43.1602 13.5V13.4024V13.2723V13.1422V13.0446V12.947L43.1927 12.8169V12.6867L43.2253 12.5566" fill="#3CA1D7"/>
<path d="M34.3396 15.6795L34.2745 15.6144L34.1443 15.5169L34.0467 15.4518L33.949 15.3217L33.8514 15.2241L33.7863 15.1265L33.6886 15.0289H33.6561V14.9964L33.5584 14.8988L33.5259 14.8337L33.4282 14.7036L33.3632 14.5735L33.3306 14.5084L33.233 14.3783L33.2004 14.2482L33.1353 14.1181L33.0702 14.0205L33.0377 13.8903L32.94 13.7277L32.9075 13.5976L32.8749 13.4675L32.7773 13.3048L32.7447 13.1747L32.7122 12.947L32.6145 12.7193L32.5169 12.4916L32.4843 12.2313L32.4192 12.0361L32.3541 11.7759L32.3216 11.5482L32.289 11.3205L32.1914 11.0928V10.8325L32.1588 10.7024L32.1263 10.5397V10.3771L32.0612 10.1819L32.0286 10.0193V9.85661L31.9961 9.69396V9.6289V9.59637H32.0286V9.56384H32.0612H32.1263H32.1588H32.1914V9.59637L32.2565 9.72649L32.289 9.79155L32.3541 9.9542L32.4192 10.1819L32.4843 10.3446L32.582 10.5397L32.6145 10.7024L32.7122 10.865L32.7447 11.0928L32.8098 11.2879L32.8749 11.5482L32.94 11.7434L33.0377 11.9385L33.1028 12.1988L33.2004 12.394L33.2655 12.6542L33.3632 12.8494L33.4933 13.0446L33.5584 13.2723L33.6561 13.4024L33.7212 13.565L33.7863 13.6626L33.8514 13.7928L33.949 13.9229L34.0141 14.053L34.0467 14.1831L34.1443 14.2807L34.2094 14.3783L34.3071 14.5084L34.4047 14.5735L34.4698 14.7036L34.5024 14.8012L34.6 14.8663H34.6326L34.7628 14.9964L34.8604 15.0614L34.9255 15.159L35.0557 15.2241L35.1208 15.2891L35.251 15.3542L35.3812 15.4518L35.5114 15.4843L35.5765 15.5819L35.7067 15.6144L35.8369 15.647L35.9671 15.6795L36.0973 15.7446L36.26 15.7771L36.3902 15.8096L36.4879 15.8422H36.6181L36.7483 15.9072H36.911H37.0412H37.2039H37.3341H37.4969H37.6271H37.7898L37.92 15.8422H38.0828L38.1804 15.8096L38.3432 15.7771L38.4733 15.7446L38.6361 15.6795L38.7663 15.647L38.8965 15.6144L39.0592 15.5169L39.1894 15.4843V15.4518H39.222H39.2545V15.4843H39.3196L39.3522 15.5169V15.5819V15.6144H39.3196V15.647L39.1894 15.7446L39.0918 15.8096L38.9941 15.8422L38.8965 15.9397L38.7663 15.9723L38.6361 16.0699L38.5384 16.1024L38.3432 16.2L38.2455 16.2325L38.1153 16.265L37.9526 16.2976L37.8224 16.3626L37.6922 16.3952H37.5294L37.3992 16.4277H37.2365H37.1063L36.9435 16.4602H36.8133H36.7157H36.553L36.4228 16.4277H36.26L36.1298 16.3952H35.9671L35.8369 16.3626L35.7067 16.2976L35.5765 16.265L35.4788 16.2325L35.3161 16.2L35.1859 16.1349L35.0557 16.1024L34.9255 16.0373L34.7953 15.9723L34.6651 15.9072L34.6 15.8422" fill="#3CA1D7"/>
<path d="M29.1318 23.6825L28.904 23.6175L28.6436 23.5198L28.3832 23.4873L28.1554 23.3897L27.895 23.3246L27.6671 23.227L27.4393 23.1619L27.2114 23.0643L27.0487 23.0318L26.8534 22.9992L26.6907 22.9016L26.5279 22.8691L26.3652 22.7714L26.2024 22.7389L26.0397 22.6413L25.8769 22.6088L25.7467 22.5762H25.7142V22.5437L25.6816 22.4786V22.4461V22.4135H25.7142V22.381H25.7467H25.7793L26.0071 22.4135L26.2024 22.4461L26.3977 22.4786L26.6256 22.5437L26.8209 22.5762L27.1138 22.6413L27.4393 22.7064L27.7322 22.7714L27.9926 22.804L28.2205 22.9016L28.4809 22.9341L28.7412 22.9992L28.9691 23.0318L29.2295 23.0643L29.4573 23.0968L29.7177 23.1619L29.9781 23.1945L30.206 23.227H30.4663L30.6291 23.2595H30.7918H30.9546L31.1173 23.3246H31.2801H31.4428H31.573H31.7358H31.8985H32.0287H32.1914H32.3216H32.4518H32.582L32.7122 23.2595H32.7448L32.9075 23.227H33.0377L33.2005 23.1945L33.3307 23.1619L33.4283 23.0968L33.5911 23.0643L33.7212 23.0318L33.8514 22.9341L33.9816 22.9016L34.1118 22.804L34.2095 22.7714L34.3397 22.7064L34.4373 22.6088L34.5675 22.5762L34.6652 22.4786L34.7628 22.4135L34.8605 22.2834L34.9581 22.1857L35.0558 22.1207L35.1209 22.023L35.2185 21.9254L35.3161 21.8278L35.3487 21.7627L35.4138 21.6326L35.4789 21.5675H35.5114H35.544H35.5765V21.6326H35.6416V21.6651V21.6977L35.5765 21.8278L35.544 21.958L35.5114 22.0881L35.4789 22.1532L35.3812 22.2834L35.3487 22.4135L35.2511 22.4786L35.186 22.6088L35.0883 22.7389L35.0558 22.804L34.9256 22.9016L34.8605 23.0318L34.7628 23.0968L34.6652 23.1945L34.5675 23.2595L34.4699 23.3571L34.3397 23.4222L34.2095 23.5198L34.1444 23.5524L34.0142 23.65L33.884 23.6825L33.7863 23.7802L33.6561 23.8127L33.4934 23.8452L33.3632 23.9428L33.233 23.9754H33.1028L32.9401 24.0079L32.8099 24.0405H32.6471L32.5169 24.1055H32.3542H32.1914V24.1381H32.1589H32.0287H31.8985H31.8009L31.6707 24.1055H31.5405H31.3777H31.2475L31.1173 24.0405H30.9546L30.7918 24.0079H30.6616L30.4989 23.9754L30.3361 23.9428H30.1734L30.0107 23.8778L29.8479 23.8452L29.5875 23.8127" fill="#3CA1D7"/>
<path d="M48.8232 20.2988V20.1687V20.0711L48.8558 19.941V19.8108L48.8883 19.6807V19.5506L48.9534 19.453L48.986 19.3554L49.0185 19.2253L49.0511 19.1277L49.1487 19.0301L49.1813 18.9L49.2138 18.7699L49.3115 18.7048L49.4091 18.6072L49.4742 18.5096L49.5719 18.412L49.637 18.3145L49.7346 18.2494L49.7997 18.1518L49.8974 18.0867L50.0276 17.9892L50.0927 17.9241L50.2229 17.8265L50.2879 17.7614L50.4181 17.6964L50.5483 17.6313L50.646 17.5988L50.7436 17.5012L50.8738 17.4687L51.004 17.4361L51.1342 17.3711L51.297 17.3386L51.4272 17.306L51.5574 17.2735L51.655 17.2084H51.7201L51.7527 17.2735H51.7852V17.306L51.8178 17.3386H51.7852V17.3711V17.4361H51.7527V17.4687L51.6225 17.5012L51.4923 17.5337L51.3946 17.6313L51.2644 17.6639L51.1668 17.7614L51.0366 17.794L50.9715 17.8916L50.8413 17.9566L50.7436 18.0542L50.6785 18.1193L50.5483 18.1518L50.4832 18.2819L50.3856 18.3795L50.2879 18.4446L50.2554 18.5422L50.1903 18.6072L50.0927 18.7373L50.0601 18.8349L50.0276 18.9325L49.9299 19.0301L49.8974 19.1602L49.8648 19.2253L49.7997 19.3554L49.7672 19.453V19.5506L49.7346 19.6807V19.8108L49.6695 19.9084V20.006V20.1361V20.2663L49.7346 20.3964V20.4614L49.7672 20.5916V20.7217L49.7997 20.8518L49.8648 20.9819L49.8974 21.047L49.9299 21.1771L49.9625 21.2422L50.0601 21.3723L50.0927 21.4699L50.1903 21.5675L50.2229 21.6651L50.2879 21.7627L50.3856 21.8277L50.4832 21.9578L50.5483 22.0229L50.646 22.1205L50.7436 22.1855L50.8413 22.2506L50.9715 22.3157L51.0366 22.4133L51.1668 22.4783L51.297 22.5434L51.4272 22.6084L51.5574 22.641L51.655 22.7386L51.7852 22.7711L51.9154 22.8036L52.0456 22.8687L52.2083 22.9012H52.3385L52.5013 22.9337L52.6315 22.9988H52.7291H52.8919H53.0872H53.1848H53.3476H53.5428H53.6405L53.7707 22.9337H53.9334H54.0636L54.1938 22.9012H54.3566L54.4868 22.8687H54.6495L54.8123 22.8036H54.975H55.0076H55.0727V22.8687H55.1052V22.9012V22.9337L55.0727 22.9988L55.0076 23.0313L54.8448 23.0639L54.6821 23.0964L54.5193 23.1614L54.3566 23.194L54.2264 23.2265L54.0636 23.259H53.9009L53.7707 23.3241L53.6079 23.3566H53.4778L53.3476 23.3892H53.1848L53.0872 23.4217H52.957H52.8268H52.6966H52.5338H52.3711H52.2083H52.0456L51.9154 23.3892H51.7527L51.5899 23.3566L51.4597 23.3241L51.297 23.259L51.1668 23.2265L51.0366 23.194L50.8738 23.0964L50.7436 23.0639L50.646 22.9988L50.5158 22.9337L50.3856 22.8687L50.2554 22.7711L50.1252 22.706L50.0601 22.6084L49.9299 22.5434L49.8648 22.4458L49.7672 22.3807L49.637 22.2831L49.5719 22.1855L49.4742 22.088L49.4417 21.9904L49.344 21.9253L49.2789 21.7952L49.2138 21.6976L49.1487 21.5675L49.1162 21.5024L49.0511 21.3723L48.986 21.2422L48.9534 21.1446V21.0145L48.8883 20.9169L48.8558 20.7867V20.6892L48.8232 20.559" fill="#3CA1D7"/>
<path d="M78.7361 54H4.26392C1.92039 54 0 52.1133 0 49.7711C0 47.4289 1.88784 45.5422 4.26392 45.5422H78.7361C81.0796 45.5422 83 47.4289 83 49.7711C83 52.0482 81.1122 54 78.7361 54Z" fill="#002E6D"/>
<path d="M5.50032 46.8434C5.85836 46.7458 6.37915 46.7133 7.06268 46.7133C7.8113 46.7133 8.33209 46.8759 8.72268 47.1687C9.04817 47.4614 9.27601 47.8843 9.27601 48.4048C9.27601 48.9253 9.11326 49.3482 8.78777 49.6735C8.36464 50.0964 7.74621 50.2916 6.99758 50.2916C6.80228 50.2916 6.63954 50.2916 6.50934 50.259V52.3735H5.46777L5.50032 46.8434ZM6.54189 49.4783C6.67209 49.5108 6.83483 49.5108 7.03013 49.5108C7.8113 49.5108 8.26699 49.153 8.26699 48.4699C8.26699 47.8518 7.84385 47.5265 7.09522 47.5265C6.80228 47.5265 6.60699 47.559 6.50934 47.559V49.4783H6.54189Z" fill="white"/>
<path d="M11.8154 46.8759C12.1735 46.7783 12.7594 46.7458 13.3778 46.7458C14.159 46.7458 14.7448 46.8759 15.1029 47.2012C15.3958 47.4615 15.5911 47.8518 15.5911 48.3072C15.5911 49.0229 15.1029 49.5108 14.5495 49.706V49.7386C14.9727 49.9012 15.2005 50.259 15.3307 50.812C15.4935 51.5277 15.6562 52.1783 15.7864 52.3735H14.8099C14.7123 52.2108 14.6146 51.7554 14.4519 51.0398C14.2892 50.2916 14.0288 50.0964 13.4754 50.0639H12.9872V52.3735H11.9456V46.8434L11.8154 46.8759ZM12.8245 49.3157H13.4429C14.159 49.3157 14.5495 48.9578 14.5495 48.4048C14.5495 47.7868 14.1264 47.494 13.4754 47.494C13.1499 47.494 12.9221 47.5265 12.857 47.5265V49.2831H12.8245V49.3157Z" fill="white"/>
<path d="M23.1746 49.5108C23.1746 51.3651 22.0029 52.4386 20.4731 52.4386C18.9107 52.4386 17.8691 51.2349 17.8691 49.6084C17.8691 47.8843 18.9433 46.6807 20.5707 46.6807C22.2307 46.6807 23.1746 47.9169 23.1746 49.5108ZM19.0084 49.6084C19.0084 50.747 19.5942 51.6578 20.5707 51.6578C21.5472 51.6578 22.1331 50.747 22.1331 49.5434C22.1331 48.4699 21.5797 47.494 20.6033 47.494C19.5617 47.494 19.0084 48.4374 19.0084 49.6084Z" fill="white"/>
<path d="M25.7461 46.7783H28.9675V47.6241H26.7548V49.1855H28.8048V49.9988H26.7548V52.341H25.7461V46.7783Z" fill="white"/>
<path d="M34.7627 49.8687H32.647V51.5277H35.0231V52.341H31.6055V46.7783H34.8929V47.6241H32.647V49.0554H34.7627V49.8687Z" fill="white"/>
<path d="M37.5612 51.2349C37.8867 51.4301 38.3749 51.5928 38.9282 51.5928C39.5792 51.5928 39.9698 51.3 39.9698 50.812C39.9698 50.3892 39.6769 50.1614 38.9933 49.8687C38.082 49.5434 37.4635 49.0554 37.4635 48.2747C37.4635 47.3639 38.2447 46.6807 39.449 46.6807C40.0675 46.6807 40.4906 46.8108 40.8161 46.9735L40.5557 47.7867C40.3604 47.6566 39.9698 47.5265 39.449 47.5265C38.798 47.5265 38.5377 47.8518 38.5377 48.1771C38.5377 48.6 38.8631 48.7952 39.6118 49.088C40.5882 49.4458 41.0439 49.9663 41.0439 50.747C41.0439 51.6578 40.3929 52.4386 38.9282 52.4386C38.3424 52.4386 37.7239 52.2759 37.3984 52.0807L37.5612 51.2349Z" fill="white"/>
<path d="M43.5504 51.2349C43.8759 51.4301 44.3642 51.5928 44.9175 51.5928C45.5685 51.5928 45.9591 51.3 45.9591 50.812C45.9591 50.3892 45.6661 50.1614 44.9826 49.8687C44.0712 49.5434 43.4528 49.0554 43.4528 48.2747C43.4528 47.3639 44.234 46.6807 45.4383 46.6807C46.0567 46.6807 46.4799 46.8108 46.8053 46.9735L46.5449 47.7867C46.3497 47.6566 45.9591 47.5265 45.4383 47.5265C44.7873 47.5265 44.5269 47.8518 44.5269 48.1771C44.5269 48.6 44.8524 48.7952 45.601 49.0879C46.5775 49.4458 47.0332 49.9663 47.0332 50.747C47.0332 51.6578 46.3822 52.4386 44.9175 52.4386C44.3316 52.4386 43.7132 52.2759 43.3877 52.0807L43.5504 51.2349Z" fill="white"/>
<path d="M50.6135 46.7783H49.5723V52.3735H50.6135V46.7783Z" fill="white"/>
<path d="M58.3934 49.5108C58.3934 51.3651 57.2216 52.4386 55.6918 52.4386C54.1295 52.4386 53.0879 51.2349 53.0879 49.6084C53.0879 47.8843 54.162 46.6807 55.7895 46.6807C57.4495 46.6807 58.3934 47.9169 58.3934 49.5108ZM54.2271 49.6084C54.2271 50.747 54.813 51.6578 55.7895 51.6578C56.7659 51.6578 57.3518 50.747 57.3518 49.5434C57.3518 48.4699 56.7985 47.494 55.822 47.494C54.7804 47.494 54.2271 48.4374 54.2271 49.6084Z" fill="white"/>
<path d="M60.9639 52.341V46.7458H62.1356L63.5678 49.1205C63.9258 49.7386 64.2839 50.3892 64.5117 51.0072C64.4141 50.259 64.4141 49.5759 64.4141 48.6976V46.7458H65.358V52.341H64.2839L62.8517 49.8687C62.4937 49.2506 62.1031 48.6 61.8752 47.9169H61.8427C61.8752 48.6651 61.8752 49.4133 61.8752 50.2916V52.3084H60.9639V52.341Z" fill="white"/>
<path d="M69.3618 50.7795L68.8736 52.341H67.832L69.6548 46.7458H70.9893L72.812 52.341H71.7054L71.2171 50.7795H69.3618ZM70.9567 49.9988L70.5011 48.6325C70.3709 48.3072 70.3058 47.8843 70.2081 47.559C70.1105 47.8843 70.0454 48.2747 69.9477 48.6L69.5246 49.9988H70.9567Z" fill="white"/>
<path d="M75.1885 46.7783H76.23V51.5277H78.541V52.341H75.1885V46.7783Z" fill="white"/>
</svg>
