<svg width="156" height="156" viewBox="0 0 156 156" fill="none" xmlns="http://www.w3.org/2000/svg">
<g clip-path="url(#clip0_154_1035)">
<path d="M35.36 18.2L43.264 27.768L41.912 28.9119L31.2 26.624L36.712 33.28L35.152 34.528L27.248 24.96L28.6 23.816L39.312 26.104L33.8 19.448L35.36 18.2Z" fill="#213564"/>
<path d="M52.416 22.672L45.968 26.208L40.04 15.392L46.28 11.96L47.216 13.728L42.848 16.12L44.304 18.824L48.256 16.64L49.192 18.408L45.24 20.592L46.8 23.4L51.376 20.904L52.416 22.672Z" fill="#213564"/>
<path d="M64.0644 5.82395L66.0404 5.19995V18.096L64.0644 18.616L58.7604 10.816L58.4484 20.28L56.4724 20.8L49.5044 9.98395L51.8964 9.35995L56.6804 17.16L56.8884 7.90395L58.9684 7.27995L64.1684 14.976L64.0644 5.82395Z" fill="#213564"/>
<path d="M75.7122 13.936C75.7122 13.52 75.5042 13.208 75.1922 13C74.8802 12.688 74.5682 12.48 74.1522 12.376C73.7362 12.168 73.2162 12.064 72.8002 11.856C72.2802 11.648 71.8641 11.44 71.4481 11.232C71.0321 11.024 70.6161 10.608 70.3041 10.192C69.9921 9.77602 69.7841 9.15202 69.7841 8.52802C69.6801 7.59202 69.9922 6.76002 70.7202 6.03202C71.4482 5.30402 72.2801 4.99202 73.4241 4.88802C74.9841 4.78402 76.2321 5.20002 77.0641 6.03202L76.0241 7.69602C75.4001 7.07202 74.5682 6.86402 73.7362 6.86402C73.2162 6.86402 72.8001 7.07202 72.4881 7.28002C72.1761 7.59202 72.0722 7.90402 72.0722 8.32002C72.0722 8.52802 72.1762 8.73602 72.2802 8.94402C72.3842 9.15202 72.4882 9.25602 72.5922 9.36002C72.5922 9.36002 72.8001 9.46402 73.0081 9.56802C73.2161 9.67202 73.4241 9.77602 73.5281 9.88002C73.6321 9.98402 73.9442 9.98402 74.2562 10.192C74.5682 10.4 74.8801 10.296 74.9841 10.4C75.5041 10.608 76.0242 10.816 76.4402 11.024C76.8562 11.232 77.2721 11.648 77.5841 12.064C77.8961 12.48 78.0001 13.104 78.1041 13.728C78.2081 14.768 77.7921 15.6 77.0641 16.328C76.3361 17.056 75.4002 17.368 74.1522 17.472C73.3202 17.472 72.4882 17.368 71.6562 17.16C70.8242 16.848 70.3042 16.432 69.9922 15.808L71.1362 14.248C71.4482 14.664 71.9681 14.976 72.4881 15.184C73.0081 15.392 73.5281 15.496 74.0481 15.496C74.5681 15.496 74.9842 15.288 75.2962 14.976C75.6082 14.664 75.7122 14.352 75.7122 13.936Z" fill="#213564"/>
<path d="M88.1921 17.7839L80.4961 17.0559L81.6401 4.67993L83.8241 4.88793L82.8881 15.1839L88.4001 15.7039L88.1921 17.7839Z" fill="#213564"/>
<path d="M96.928 20.072L89.856 18.304L92.872 6.23999L99.84 8.00799L99.32 9.98399L94.536 8.73599L93.808 11.752L98.176 12.896L97.656 14.872L93.288 13.728L92.456 16.848L97.448 18.096L96.928 20.072Z" fill="#213564"/>
<path d="M105.768 12.4798L102.128 10.8158L102.96 8.94385L112.32 13.1038L111.488 14.9758L107.848 13.3118L103.688 22.7758L101.712 21.9438L105.768 12.4798Z" fill="#213564"/>
<path d="M116.792 18.3041L113.464 16.0161L114.608 14.3521L123.032 20.072L121.888 21.736L118.56 19.4481L112.736 28.0801L110.968 26.832L116.792 18.3041Z" fill="#213564"/>
<path d="M122.72 36.5039L117.416 31.4079L125.944 22.4639L131.144 27.3519L129.792 28.8079L126.152 25.3759L124.072 27.5599L127.296 30.5759L125.944 32.0319L122.72 29.0159L120.536 31.3039L124.28 34.8399L122.72 36.5039Z" fill="#213564"/>
<path d="M129.376 37.4399L125.632 40.2479L124.384 38.4799L134.264 31.0959C134.68 31.6159 134.992 32.1359 135.512 32.6559C135.928 33.1759 136.344 33.6959 136.552 34.1119C138.32 36.5039 138.216 38.4799 136.136 40.0399C135.408 40.5599 134.576 40.8719 133.848 40.8719C133.12 40.8719 132.392 40.6639 131.872 40.2479L130.104 46.3839L128.544 44.3039L130.208 38.7919L129.376 37.4399ZM134.888 35.1519C134.888 35.1519 134.784 35.0479 134.68 34.9439C134.576 34.8399 134.472 34.7359 134.368 34.5279C134.264 34.3199 134.056 34.2159 133.952 34.0079L131.04 36.1919L131.872 37.3359C132.288 37.8559 132.808 38.2719 133.328 38.3759C133.848 38.4799 134.368 38.3759 134.888 38.0639C135.824 37.3359 135.824 36.3999 134.888 35.1519Z" fill="#213564"/>
<path d="M138.32 48.256C139.152 47.944 139.984 47.944 140.816 48.256C141.752 48.568 142.376 49.296 142.792 50.232C143.104 51.064 143.208 51.896 142.792 52.832C142.376 53.768 141.856 54.288 141.024 54.6C140.088 55.016 139.256 55.016 138.32 54.704C137.384 54.392 136.76 53.768 136.448 52.936C136.032 52 136.032 51.064 136.344 50.128C136.76 49.296 137.384 48.672 138.32 48.256Z" fill="#FFCE0A"/>
<path d="M151.216 72.1759L138.944 74.0479L138.632 72.3839L146.12 64.3759L137.592 65.6239L137.28 63.6479L149.552 61.7759L149.76 63.4399L142.272 71.4479L150.8 70.1999L151.216 72.1759Z" fill="#213564"/>
<path d="M138.632 84.448L138.944 77.064L151.32 77.584L151.008 84.76L148.928 84.656L149.136 79.664L146.016 79.56L145.808 84.032L143.728 83.928L143.936 79.456L140.712 79.352L140.504 84.552L138.632 84.448Z" fill="#213564"/>
<path d="M147.056 103.168L146.536 105.144L135.512 98.5919L136.032 96.6159L145.496 95.9919L137.592 90.8959L138.112 88.9199L151.008 88.5039L150.384 90.8959L141.232 90.9999L149.032 95.8879L148.512 97.9679L139.256 98.3839L147.056 103.168Z" fill="#213564"/>
<path d="M134.16 108.992C134.472 109.2 134.888 109.2 135.2 109.096C135.616 108.992 135.928 108.784 136.344 108.472C136.656 108.16 137.072 107.848 137.488 107.536C137.904 107.224 138.32 106.912 138.736 106.704C139.152 106.496 139.672 106.288 140.192 106.288C140.712 106.288 141.336 106.392 141.856 106.704C142.688 107.12 143.312 107.848 143.52 108.784C143.728 109.72 143.624 110.76 143.104 111.696C142.376 113.048 141.44 113.984 140.296 114.192L139.36 112.424C140.192 112.112 140.816 111.592 141.232 110.864C141.44 110.344 141.544 109.928 141.44 109.616C141.336 109.2 141.128 108.888 140.816 108.784C140.608 108.68 140.4 108.68 140.192 108.576C139.984 108.576 139.776 108.576 139.672 108.576C139.568 108.576 139.36 108.68 139.048 108.888C138.736 109.096 138.632 109.096 138.528 109.2C138.424 109.304 138.216 109.408 137.904 109.616C137.592 109.824 137.488 110.032 137.28 110.032C136.864 110.344 136.448 110.656 136.032 110.864C135.616 111.176 135.096 111.28 134.576 111.28C134.056 111.28 133.432 111.176 132.912 110.864C131.976 110.344 131.456 109.616 131.248 108.68C131.04 107.64 131.248 106.704 131.768 105.56C132.184 104.832 132.704 104.208 133.328 103.584C133.952 103.064 134.68 102.752 135.304 102.856L136.032 104.624C135.512 104.728 134.992 104.936 134.576 105.248C134.16 105.56 133.744 105.976 133.536 106.496C133.328 107.016 133.224 107.432 133.328 107.848C133.536 108.472 133.744 108.784 134.16 108.992Z" fill="#213564"/>
<path d="M124.384 117.728L128.96 111.488L138.944 118.768L137.696 120.536L129.376 114.4L126.048 118.872L124.384 117.728Z" fill="#213564"/>
<path d="M117.936 124.072L123.136 118.872L131.872 127.712L126.776 132.704L125.32 131.248L128.856 127.712L126.672 125.528L123.552 128.648L122.096 127.192L125.216 124.072L122.928 121.784L119.288 125.424L117.936 124.072Z" fill="#213564"/>
<path d="M119.912 135.512L123.24 133.224L124.384 134.888L116.064 140.816L114.92 139.152L118.248 136.864L112.32 128.44L114.088 127.192L119.912 135.512Z" fill="#213564"/>
<path d="M109.2 141.96L112.84 140.296L113.672 142.168L104.416 146.536L103.584 144.664L107.224 143L102.856 133.64L104.832 132.704L109.2 141.96Z" fill="#213564"/>
<path d="M90.584 137.696L97.656 135.72L100.984 147.68L94.12 149.656L93.6 147.68L98.384 146.328L97.552 143.312L93.288 144.56L92.768 142.584L97.032 141.336L96.2 138.216L91.208 139.568L90.584 137.696Z" fill="#213564"/>
<path d="M86.424 143L86.008 138.424L88.192 138.216L89.44 150.488C88.816 150.592 88.192 150.592 87.464 150.696C86.736 150.8 86.112 150.8 85.696 150.904C82.68 151.216 81.12 150.072 80.808 147.576C80.704 146.64 80.912 145.808 81.328 145.184C81.744 144.56 82.264 144.144 82.888 143.832L78.52 139.152L81.12 138.944L84.968 143.208L86.424 143ZM85.488 148.824C85.592 148.824 85.592 148.824 85.8 148.824C85.904 148.824 86.112 148.824 86.32 148.72C86.528 148.72 86.736 148.616 86.944 148.616L86.632 144.976L85.176 145.08C84.448 145.184 83.928 145.392 83.512 145.808C83.096 146.224 82.888 146.64 82.992 147.264C83.096 148.512 83.928 149.032 85.488 148.824Z" fill="#213564"/>
<path d="M72.4881 145.08C72.3841 145.912 71.9681 146.64 71.1361 147.264C70.4081 147.888 69.4721 148.096 68.4321 147.888C67.4961 147.784 66.7681 147.368 66.2481 146.536C65.7281 145.808 65.5201 144.976 65.6241 144.144C65.7281 143.208 66.1441 142.376 66.8721 141.752C67.6001 141.128 68.4321 140.92 69.3681 141.024C70.4081 141.128 71.2401 141.648 71.7601 142.376C72.3841 143.104 72.5921 144.04 72.4881 145.08Z" fill="#FFCE0A"/>
<path d="M45.3442 143.728L50.0242 132.288L51.5842 132.912L54.6002 143.416L57.8242 135.512L59.6962 136.24L55.0162 147.68L53.4562 147.056L50.4402 136.552L47.2162 144.56L45.3442 143.728Z" fill="#213564"/>
<path d="M41.2883 126.672L47.4243 130.728L40.6643 141.024L34.6323 137.072L35.7763 135.408L39.9363 138.112L41.6003 135.512L37.8563 133.016L39.0003 131.352L42.7443 133.848L44.5123 131.144L40.2483 128.336L41.2883 126.672Z" fill="#213564"/>
<path d="M20.9042 124.28L19.4482 122.824L30.7842 116.688L32.2402 118.144L27.8722 126.568L36.2962 122.408L37.7522 123.864L31.5122 135.2L29.8482 133.432L34.4242 125.528L26.2082 129.688L24.7522 128.128L29.1202 119.912L20.9042 124.28Z" fill="#213564"/>
<path d="M22.4641 110.24C22.1521 110.448 21.9441 110.76 21.8401 111.072C21.7361 111.488 21.7361 111.904 21.7361 112.32C21.8401 112.736 21.8401 113.256 21.9441 113.776C22.0481 114.296 22.0481 114.816 22.0481 115.336C22.0481 115.856 21.9441 116.272 21.6321 116.792C21.4241 117.312 21.0081 117.728 20.4881 118.04C19.6561 118.56 18.8241 118.664 17.8881 118.456C16.9521 118.144 16.2241 117.52 15.6001 116.584C14.7681 115.232 14.5601 113.984 14.8721 112.84L16.8481 112.944C16.6401 113.776 16.7441 114.608 17.2641 115.336C17.5761 115.752 17.8881 116.064 18.2001 116.168C18.5121 116.272 18.9281 116.272 19.2401 116.064C19.4481 115.96 19.5521 115.856 19.6561 115.648C19.7601 115.44 19.8641 115.336 19.8641 115.128C19.8641 114.92 19.9681 114.816 19.9681 114.504C19.9681 114.192 19.9681 113.984 19.9681 113.88C19.9681 113.776 19.9681 113.464 19.8641 113.152C19.8641 112.84 19.7601 112.528 19.7601 112.424C19.6561 111.904 19.6561 111.384 19.6561 110.864C19.6561 110.344 19.7601 109.824 20.0721 109.408C20.3841 108.992 20.6961 108.472 21.3201 108.16C22.1521 107.64 23.0881 107.536 24.1281 107.848C25.0641 108.16 25.8961 108.888 26.5201 109.824C26.9361 110.552 27.2481 111.28 27.3521 112.216C27.4561 113.048 27.3521 113.776 26.9361 114.296L25.0641 113.984C25.2721 113.464 25.3761 112.944 25.2721 112.32C25.1681 111.696 25.0641 111.28 24.7521 110.76C24.4401 110.344 24.1281 110.032 23.7121 109.824C23.2961 109.616 22.8801 110.032 22.4641 110.24Z" fill="#213564"/>
<path d="M20.0724 97.344L23.0884 104.52L11.6484 109.304L10.8164 107.328L20.3844 103.272L18.2004 98.176L20.0724 97.344Z" fill="#213564"/>
<path d="M17.9922 88.6079L19.7602 95.7839L7.69623 98.6959L6.03223 91.7279L8.00823 91.2079L9.15223 96.0959L12.1682 95.3679L11.1282 90.9999L13.1042 90.4799L14.1442 94.8479L17.2642 94.1199L16.0162 89.1279L17.9922 88.6079Z" fill="#213564"/>
<path d="M7.07217 84.344L7.38417 88.4L5.30417 88.504L4.57617 78.312L6.65617 78.208L6.96817 82.16L17.2642 81.432L17.4722 83.616L7.07217 84.344Z" fill="#213564"/>
<path d="M7.07218 71.864L6.65618 75.92L4.68018 75.712L5.72018 65.52L7.69618 65.728L7.28018 69.68L17.5762 70.72L17.3682 72.904L7.07218 71.864Z" fill="#213564"/>
<path d="M20.3842 58.1359L18.4082 65.2079L6.44824 61.8799L8.32024 55.0159L10.2962 55.5359L9.04824 60.3199L12.0642 61.1519L13.2082 56.8879L15.1842 57.4079L14.0402 61.6719L17.1602 62.5039L18.5122 57.5119L20.3842 58.1359Z" fill="#213564"/>
<path d="M17.9924 51.792L22.1524 53.768L21.2164 55.744L9.98438 50.44C10.2964 49.92 10.5044 49.296 10.8164 48.672C11.1284 48.048 11.3364 47.528 11.5444 47.112C12.7924 44.408 14.6644 43.576 16.9524 44.72C17.7844 45.136 18.4084 45.656 18.7204 46.384C19.0324 47.112 19.1364 47.736 19.1364 48.36L25.3764 47.008L24.2324 49.4L18.6164 50.544L17.9924 51.792ZM13.4164 47.944C13.4164 48.048 13.3124 48.048 13.3124 48.152C13.3124 48.256 13.2084 48.464 13.1044 48.672C13.0004 48.88 12.8964 49.088 12.7924 49.296L16.1204 50.856L16.7444 49.608C17.0564 48.984 17.1604 48.36 17.0564 47.84C16.9524 47.32 16.6404 46.904 16.1204 46.592C14.8724 46.176 14.0404 46.592 13.4164 47.944Z" fill="#213564"/>
<path d="M23.296 38.7919C22.568 38.2719 22.256 37.5439 22.152 36.5039C22.048 35.5679 22.36 34.6319 22.984 33.9039C23.608 33.1759 24.336 32.7599 25.272 32.6559C26.208 32.5519 27.04 32.7599 27.664 33.3839C28.392 34.0079 28.912 34.7359 29.12 35.6719C29.328 36.6079 29.016 37.4399 28.496 38.1679C27.872 38.9999 27.04 39.4159 26.104 39.5199C24.96 39.7279 24.128 39.4159 23.296 38.7919Z" fill="#FFCE0A"/>
</g>
<g clip-path="url(#clip1_154_1035)">
<path d="M99.8273 64.4236L82.0587 79.4863L81.247 80.2079C79.2626 81.8314 76.4666 81.8314 74.4822 80.2079L73.6705 79.4863L55.9019 64.4236L62.7568 59.553L70.8744 53.6903L74.4822 51.0746C76.4666 49.4511 79.2626 49.4511 81.247 51.0746L84.8548 53.6903L92.9724 59.553L99.8273 64.4236Z" stroke="#213564" stroke-width="1.27835" stroke-miterlimit="10" stroke-linecap="round" stroke-linejoin="round"/>
<path d="M74.4822 80.1176C76.4665 81.7412 79.2626 81.7412 81.2469 80.1176L82.0587 79.3961L92.9724 70.1961V54.502C92.9724 54.051 92.6116 53.6902 92.1606 53.6902H63.4783C63.0273 53.6902 62.6665 54.1412 62.6665 54.4118V70.1059L73.6704 79.3961L74.4822 80.1176Z" fill="#FFCE0A"/>
<path d="M99.8273 64.4236V92.7452C99.8273 93.1961 99.647 93.5569 99.3764 93.8275C99.1058 94.0981 98.745 94.2785 98.3842 94.2785H57.345C56.9842 94.2785 56.6234 94.0981 56.3528 93.8275C56.0822 93.5569 55.9019 93.1961 55.9019 92.7452V64.4236L73.6705 79.3961L74.4822 80.1177C76.4666 81.7412 79.2626 81.7412 81.247 80.1177L82.0587 79.3961L99.8273 64.4236Z" stroke="#213564" stroke-width="1.27835" stroke-miterlimit="10" stroke-linecap="round" stroke-linejoin="round"/>
<path d="M99.2864 93.9176C99.0158 94.1882 98.655 94.3685 98.2942 94.3685H57.3452C56.9844 94.3685 56.6236 94.1882 56.353 93.9176L73.6707 79.396L74.4824 80.1176C76.4668 81.7411 79.2628 81.7411 81.2471 80.1176L82.0589 79.396L99.2864 93.9176Z" stroke="#213564" stroke-width="1.27835" stroke-miterlimit="10" stroke-linecap="round" stroke-linejoin="round"/>
<path d="M71.5962 67.9412C71.3256 65.9569 72.0471 63.8824 73.5805 62.5294C73.7609 62.349 73.9413 62.1686 74.1217 61.9882C75.7452 60.5451 78.0001 60.0941 80.0746 60.6353C81.9687 61.2667 83.3216 63.0706 83.3216 65.0549C83.4118 66.2275 83.0511 67.3098 82.3295 68.2118C81.8785 68.7529 81.2471 69.0235 80.5256 68.9333C80.3452 68.9333 80.255 68.8431 80.1648 68.7529C80.0746 68.6627 80.0746 68.4824 80.1648 68.3922C80.706 66.3176 81.2471 63.251 81.2471 63.0706C81.2471 62.8902 81.1569 62.6196 81.0667 62.5294C80.8864 62.349 80.706 62.349 80.4354 62.4392C80.255 62.5294 80.0746 62.7098 80.0746 62.8902C80.0746 62.8902 80.0746 63.1608 79.9844 63.5216C79.8942 63.4314 79.804 63.3412 79.7138 63.1608C78.8118 62.2588 77.4589 61.9882 76.2864 62.6196C75.3844 63.1608 74.6628 63.8824 74.2118 64.8745C74.0315 65.2353 73.8511 65.5961 73.7609 65.9569C73.3099 67.3098 73.6707 68.7529 74.6628 69.6549C75.204 70.0157 75.8354 70.2863 76.4667 70.2863C77.3687 70.2863 78.1805 69.9255 78.902 69.3843C78.9922 69.2941 79.0824 69.2039 79.0824 69.1137C79.0824 69.2039 79.1726 69.2941 79.1726 69.3843C79.4432 69.8353 79.804 70.1059 80.255 70.1961C81.4275 70.3765 82.6001 70.0157 83.3216 69.1137C84.2236 67.9412 84.7648 66.5882 84.6746 65.0549C84.5844 62.5294 82.9609 60.2745 80.5256 59.5529C78.0001 58.8314 75.3844 59.4627 73.4001 61.0863C73.2197 61.2667 72.9491 61.4471 72.7687 61.6275C70.9648 63.251 70.0628 65.6863 70.4236 68.1216C70.8746 70.2863 72.4079 72.0902 74.4824 72.8118C75.8354 73.2627 77.1883 73.4431 78.5413 73.4431C80.9766 73.5333 83.3217 72.5412 84.9452 70.6471C85.1256 70.3765 85.1256 70.0157 84.855 69.7451C84.5844 69.4745 84.2236 69.5647 84.0432 69.7451C84.0432 69.7451 84.0432 69.7451 83.953 69.8353C81.7883 72.5412 77.6393 72.451 74.753 71.549C73.2197 71.098 71.9569 69.6549 71.5962 67.9412ZM79.6236 65.3255C79.5334 65.8667 79.4432 66.3176 79.2628 66.8588C78.902 67.4 78.5413 67.9412 78.0001 68.3922C77.2785 69.0235 76.1962 69.1137 75.3844 68.6627C74.753 68.0314 74.5726 67.0392 74.9334 66.2275C75.0236 65.9569 75.1138 65.6863 75.2942 65.4157C75.655 64.6941 76.1962 64.1529 76.9177 63.702C77.5491 63.3412 78.3609 63.4314 78.902 63.9726C79.1726 64.4235 79.4432 64.7843 79.6236 65.3255Z" fill="#213564"/>
</g>
<defs>
<clipPath id="clip0_154_1035">
<rect width="156" height="156" fill="white"/>
</clipPath>
<clipPath id="clip1_154_1035">
<rect width="46" height="46" fill="white" transform="translate(55 49)"/>
</clipPath>
</defs>
</svg>
