<svg width="73" height="57" viewBox="0 0 73 57" fill="none" xmlns="http://www.w3.org/2000/svg">
<g opacity="0.3">
<path d="M66.519 5.58229C70.7363 10.0617 73 15.0856 73 23.2295C73 37.5602 62.9411 50.4046 48.3133 56.7549L44.6573 51.1129C58.3108 43.7265 60.9801 34.1413 62.0445 28.0978C59.846 29.2361 56.9679 29.6333 54.1472 29.3712C46.7616 28.6874 40.94 22.6235 40.94 15.0856C40.94 11.2849 42.4496 7.6398 45.1368 4.9523C47.824 2.26472 51.4687 0.754883 55.2689 0.754883C57.3705 0.773298 59.4475 1.20954 61.379 2.03832C63.3104 2.86709 65.0575 4.07176 66.519 5.58229ZM25.5793 5.58229C29.7961 10.0617 32.06 15.0856 32.06 23.2295C32.06 37.5602 22.0011 50.4046 7.37329 56.7549L3.71732 51.1129C17.3708 43.7265 20.0401 34.1413 21.1045 28.0978C18.9061 29.2361 16.028 29.6333 13.2072 29.3712C5.82162 28.6874 0 22.6235 0 15.0856C0 11.2849 1.50966 7.6398 4.19684 4.9523C6.88402 2.26472 10.5287 0.754883 14.329 0.754883C16.4306 0.773298 18.5075 1.20954 20.439 2.03832C22.3705 2.86709 24.1178 4.07176 25.5793 5.58229Z" fill="#009ACE"/>
</g>
</svg>
