<svg width="36" height="36" viewBox="0 0 36 36" fill="none" xmlns="http://www.w3.org/2000/svg">
<path d="M0.5 18C0.5 8.33494 8.33494 0.5 18 0.5C27.6651 0.5 35.5 8.33494 35.5 18C35.5 27.6651 27.6651 35.5 18 35.5C8.33494 35.5 0.5 27.6651 0.5 18Z" stroke="#213564"/>
<path d="M24.4654 10.1413C24.4654 10.1413 26.1306 9.44868 25.9918 11.1306C25.9455 11.8232 25.5293 14.2472 25.2055 16.8691L24.0954 24.6358C24.0954 24.6358 24.0029 25.7736 23.1703 25.9715C22.3377 26.1694 21.0889 25.2789 20.8576 25.081C20.6726 24.9327 17.3886 22.7065 16.2323 21.6182C15.9085 21.3214 15.5384 20.7277 16.2785 20.0351L21.1352 15.0882C21.6902 14.4946 22.2453 13.1094 19.9326 14.7914L13.457 19.491C13.457 19.491 12.717 19.9857 11.3294 19.5405L8.32289 18.5511C8.32289 18.5511 7.2128 17.809 9.10921 17.067C13.7346 14.7419 19.4238 12.3674 24.4654 10.1413Z" fill="#213564"/>
</svg>
