<svg width="36" height="36" viewBox="0 0 36 36" fill="none" xmlns="http://www.w3.org/2000/svg">
<path d="M35.5 18C35.5 27.665 27.665 35.5 18 35.5C8.33501 35.5 0.5 27.665 0.5 18C0.5 8.33502 8.33501 0.5 18 0.5C27.665 0.5 35.5 8.33502 35.5 18Z" stroke="#213564"/>
<path d="M27 14.5707C27 13.8889 26.7156 13.2351 26.2093 12.753C25.7031 12.2708 25.0165 12 24.3005 12H11.6995C11.345 12 10.994 12.0665 10.6664 12.1957C10.3389 12.3249 10.0413 12.5142 9.79066 12.753C9.53999 12.9917 9.34115 13.2751 9.20549 13.587C9.06983 13.8989 9 14.2331 9 14.5707V21.4293C9 21.7669 9.06983 22.1011 9.20549 22.413C9.34115 22.7249 9.53999 23.0083 9.79066 23.247C10.0413 23.4858 10.3389 23.6751 10.6664 23.8043C10.994 23.9335 11.345 24 11.6995 24H24.3005C25.0165 24 25.7031 23.7292 26.2093 23.247C26.7156 22.7649 27 22.1111 27 21.4293V14.5707ZM16.4363 20.6548V14.6953L22.1347 17.675L16.4363 20.6548Z" fill="#213564"/>
</svg>
