<svg width="50" height="50" viewBox="0 0 50 50" fill="none" xmlns="http://www.w3.org/2000/svg">
<rect width="50" height="50" rx="25" fill="#213564"/>
<path d="M35.9688 21.4563C35.725 21.2938 35.4 21.2938 35.1562 21.4563L31.5813 23.8938V21.3751C31.5813 20.8876 31.2563 20.5626 30.7688 20.5626H29.9563C30.4438 19.8313 30.7688 19.0188 30.7688 18.1251C30.7688 15.8501 28.9812 14.0626 26.7063 14.0626C25.65 14.0626 24.5938 14.4688 23.7812 15.2813C22.6438 12.8438 19.8 11.7063 17.3625 12.8438C14.925 13.9813 13.7875 16.8251 14.925 19.2626C15.1687 19.7501 15.4125 20.1563 15.7375 20.5626H14.4375C13.95 20.5626 13.625 20.8876 13.625 21.3751V32.7501C13.625 33.2376 13.95 33.5626 14.4375 33.5626H30.6875C31.175 33.5626 31.5 33.2376 31.5 32.7501V30.2313L35.1562 32.6688C35.5625 32.9126 36.05 32.8313 36.2937 32.4251C36.375 32.2626 36.4563 32.1001 36.4563 31.9376V22.1876C36.375 21.8626 36.2125 21.6188 35.9688 21.4563ZM26.625 15.6876C28.0063 15.6876 29.0625 16.7438 29.0625 18.1251C29.0625 19.5063 28.0063 20.5626 26.625 20.5626C25.2437 20.5626 24.1875 19.5063 24.1875 18.1251C24.1875 16.7438 25.2437 15.6876 26.625 15.6876ZM23.375 20.5626H22.8875C22.9688 20.4813 23.05 20.4001 23.1312 20.2376C23.2937 20.4001 23.2937 20.4813 23.375 20.5626ZM16.0625 17.3126C16.0625 15.5251 17.525 14.0626 19.3125 14.0626C21.1 14.0626 22.5625 15.5251 22.5625 17.3126C22.5625 19.1001 21.1 20.5626 19.3125 20.5626C17.525 20.5626 16.0625 19.1001 16.0625 17.3126ZM29.875 31.9376H15.25V22.1876H29.875V31.9376ZM34.75 30.3938L31.5 28.2001V25.8438L34.75 23.6501V30.3938Z" fill="#FCFCFC"/>
</svg>
