<svg width="190" height="3" viewBox="0 0 190 3" fill="none" xmlns="http://www.w3.org/2000/svg">
<path fill-rule="evenodd" clip-rule="evenodd" d="M0.251739 2.37967C0.440543 2.51186 0.692282 2.64404 0.944021 2.64404H1.13283C1.15686 2.6188 1.1809 2.60319 1.20144 2.58987C1.23466 2.56831 1.2587 2.5527 1.2587 2.51186C1.29016 2.51186 1.32163 2.49533 1.3531 2.47881C1.38456 2.46229 1.41603 2.44576 1.4475 2.44576C1.47897 2.44576 1.51043 2.42924 1.5419 2.41272C1.57337 2.39619 1.60484 2.37967 1.6363 2.37967C1.6363 2.31358 1.69924 2.24748 1.76217 2.18139C1.76217 2.18139 1.82511 2.11529 1.82511 2.0492C1.88804 1.98311 1.88804 1.91701 1.88804 1.85092V1.65264C1.88804 1.38827 1.76217 1.12389 1.6363 0.92561L1.51043 0.793423C1.47897 0.793423 1.4475 0.7769 1.41603 0.760376C1.38456 0.743853 1.3531 0.727329 1.32163 0.727329C1.25869 0.661236 1.19576 0.661236 1.13283 0.661236C0.818152 0.595142 0.503478 0.727329 0.251739 0.92561C0.212843 0.92561 0.197986 0.950856 0.177455 0.985744C0.164765 1.00731 0.149908 1.03255 0.125869 1.0578C0.125869 1.09084 0.110136 1.12389 0.0944021 1.15694C0.0786684 1.18998 0.0629347 1.22303 0.0629347 1.25608C0 1.32217 0 1.38827 0 1.45436V1.65264V1.85092C0 1.88397 0.0157337 1.91701 0.0314674 1.95006C0.0472011 1.98311 0.0629347 2.01615 0.0629347 2.0492C0.0629347 2.08225 0.0786684 2.09877 0.0944021 2.11529C0.110136 2.13182 0.125869 2.14834 0.125869 2.18139C0.188804 2.24748 0.251739 2.31358 0.251739 2.37967ZM189.056 0.661221C188.553 0.661221 188.112 1.12388 188.112 1.65262C188.112 2.18137 188.553 2.64403 189.056 2.64403C189.559 2.64403 190 2.18137 190 1.65262C190 1.12388 189.559 0.661221 189.056 0.661221ZM183.392 0.661221C182.888 0.661221 182.448 1.12388 182.448 1.65262C182.448 2.18137 182.888 2.64403 183.392 2.64403C183.895 2.64403 184.336 2.18137 184.336 1.65262C184.336 1.12388 183.895 0.661221 183.392 0.661221ZM177.665 0.661221C177.161 0.661221 176.721 1.12388 176.721 1.65262C176.721 2.18137 177.161 2.64403 177.665 2.64403C178.168 2.64403 178.609 2.18137 178.609 1.65262C178.609 1.12388 178.168 0.661221 177.665 0.661221ZM172.001 0.661221C171.497 0.661221 171.057 1.12388 171.057 1.65262C171.057 2.18137 171.434 2.64403 172.001 2.64403C172.504 2.64403 172.945 2.18137 172.945 1.65262C172.945 1.12388 172.504 0.661221 172.001 0.661221ZM166.274 0.661221C165.77 0.661221 165.33 1.12388 165.33 1.65262C165.33 2.18137 165.77 2.64403 166.274 2.64403C166.777 2.64403 167.218 2.18137 167.218 1.65262C167.218 1.12388 166.777 0.661221 166.274 0.661221ZM160.547 0.661221C160.043 0.661221 159.603 1.12388 159.603 1.65262C159.603 2.18137 160.043 2.64403 160.547 2.64403C161.05 2.64403 161.491 2.18137 161.491 1.65262C161.491 1.12388 161.05 0.661221 160.547 0.661221ZM154.882 0.661221C154.379 0.661221 153.938 1.12388 153.938 1.65262C153.938 2.18137 154.379 2.64403 154.882 2.64403C155.386 2.64403 155.826 2.18137 155.826 1.65262C155.826 1.12388 155.386 0.661221 154.882 0.661221ZM149.155 0.661221C148.652 0.661221 148.211 1.12388 148.211 1.65262C148.211 2.18137 148.652 2.64403 149.155 2.64403C149.659 2.64403 150.099 2.18137 150.099 1.65262C150.099 1.12388 149.659 0.661221 149.155 0.661221ZM143.491 0.661221C142.988 0.661221 142.547 1.12388 142.547 1.65262C142.547 2.18137 142.925 2.64403 143.491 2.64403C143.995 2.64403 144.435 2.18137 144.435 1.65262C144.435 1.12388 143.995 0.661221 143.491 0.661221ZM137.764 0.661221C137.261 0.661221 136.82 1.12388 136.82 1.65262C136.82 2.18137 137.261 2.64403 137.764 2.64403C138.268 2.64403 138.708 2.18137 138.708 1.65262C138.708 1.12388 138.268 0.661221 137.764 0.661221ZM132.1 0.661221C131.597 0.661221 131.156 1.12388 131.156 1.65262C131.156 2.18137 131.534 2.64403 132.1 2.64403C132.604 2.64403 133.044 2.18137 133.044 1.65262C133.044 1.12388 132.604 0.661221 132.1 0.661221ZM126.373 0.661221C125.87 0.661221 125.429 1.12388 125.429 1.65262C125.429 2.18137 125.87 2.64403 126.373 2.64403C126.876 2.64403 127.317 2.18137 127.317 1.65262C127.317 1.12388 126.876 0.661221 126.373 0.661221ZM120.646 0.661221C120.142 0.661221 119.702 1.12388 119.702 1.65262C119.702 2.18137 120.142 2.64403 120.646 2.64403C121.149 2.64403 121.59 2.18137 121.59 1.65262C121.59 1.12388 121.149 0.661221 120.646 0.661221ZM114.982 0.661221C114.478 0.661221 114.038 1.12388 114.038 1.65262C114.038 2.18137 114.415 2.64403 114.982 2.64403C115.485 2.64403 115.926 2.18137 115.926 1.65262C115.926 1.12388 115.485 0.661221 114.982 0.661221ZM109.255 0.661221C108.751 0.661221 108.311 1.12388 108.311 1.65262C108.311 2.18137 108.751 2.64403 109.255 2.64403C109.758 2.64403 110.199 2.18137 110.199 1.65262C110.199 1.12388 109.758 0.661221 109.255 0.661221ZM103.591 0.661221C103.087 0.661221 102.647 1.12388 102.647 1.65262C102.647 2.18137 103.024 2.64403 103.591 2.64403C104.094 2.64403 104.535 2.18137 104.535 1.65262C104.535 1.12388 104.094 0.661221 103.591 0.661221ZM97.8635 0.661221C97.3601 0.661221 96.9195 1.12388 96.9195 1.65262C96.9195 2.18137 97.3601 2.64403 97.8635 2.64403C98.367 2.64403 98.8076 2.18137 98.8076 1.65262C98.8076 1.12388 98.367 0.661221 97.8635 0.661221ZM92.1365 0.661221C91.633 0.661221 91.1925 1.12388 91.1925 1.65262C91.1925 2.18137 91.633 2.64403 92.1365 2.64403C92.64 2.64403 93.0805 2.18137 93.0805 1.65262C93.0805 1.12388 92.64 0.661221 92.1365 0.661221ZM86.4724 0.661221C85.9689 0.661221 85.5283 1.12388 85.5283 1.65262C85.5283 2.18137 85.9689 2.64403 86.4724 2.64403C86.9758 2.64403 87.4164 2.18137 87.4164 1.65262C87.4164 1.12388 86.9758 0.661221 86.4724 0.661221ZM80.7453 0.661221C80.2418 0.661221 79.8013 1.12388 79.8013 1.65262C79.8013 2.18137 80.2418 2.64403 80.7453 2.64403C81.2488 2.64403 81.6893 2.18137 81.6893 1.65262C81.6893 1.12388 81.2488 0.661221 80.7453 0.661221ZM75.0812 0.661221C74.5777 0.661221 74.1372 1.12388 74.1372 1.65262C74.1372 2.18137 74.5148 2.64403 75.0812 2.64403C75.5847 2.64403 76.0252 2.18137 76.0252 1.65262C76.0252 1.12388 75.5847 0.661221 75.0812 0.661221ZM69.3541 0.661221C68.8506 0.661221 68.4101 1.12388 68.4101 1.65262C68.4101 2.18137 68.8506 2.64403 69.3541 2.64403C69.8576 2.64403 70.2981 2.18137 70.2981 1.65262C70.2981 1.12388 69.8576 0.661221 69.3541 0.661221ZM63.6271 0.661221C63.1236 0.661221 62.683 1.12388 62.683 1.65262C62.683 2.18137 63.1236 2.64403 63.6271 2.64403C64.1305 2.64403 64.5711 2.18137 64.5711 1.65262C64.5711 1.12388 64.1305 0.661221 63.6271 0.661221ZM57.9629 0.661221C57.4594 0.661221 57.0189 1.12388 57.0189 1.65262C57.0189 2.18137 57.4594 2.64403 57.9629 2.64403C58.4664 2.64403 58.9069 2.18137 58.9069 1.65262C58.9069 1.12388 58.4664 0.661221 57.9629 0.661221ZM52.2359 0.661221C51.7324 0.661221 51.2918 1.12388 51.2918 1.65262C51.2918 2.18137 51.7324 2.64403 52.2359 2.64403C52.8023 2.64403 53.1799 2.18137 53.1799 1.65262C53.1799 1.12388 52.7393 0.661221 52.2359 0.661221ZM46.5717 0.661221C46.0053 0.661221 45.6277 1.12388 45.6277 1.65262C45.6277 2.18137 46.0053 2.64403 46.5717 2.64403C47.0752 2.64403 47.5158 2.18137 47.5158 1.65262C47.5158 1.12388 47.0752 0.661221 46.5717 0.661221ZM40.8447 0.661221C40.3412 0.661221 39.9007 1.12388 39.9007 1.65262C39.9007 2.18137 40.3412 2.64403 40.8447 2.64403C41.3482 2.64403 41.7887 2.18137 41.7887 1.65262C41.7887 1.12388 41.3482 0.661221 40.8447 0.661221ZM35.1805 0.661221C34.6141 0.661221 34.2365 1.12388 34.2365 1.65262C34.2365 2.18137 34.6141 2.64403 35.1805 2.64403C35.684 2.64403 36.1246 2.18137 36.1246 1.65262C36.1246 1.12388 35.684 0.661221 35.1805 0.661221ZM29.4535 0.661221C28.95 0.661221 28.5095 1.12388 28.5095 1.65262C28.5095 2.18137 28.95 2.64403 29.4535 2.64403C29.957 2.64403 30.3975 2.18137 30.3975 1.65262C30.3975 1.12388 29.957 0.661221 29.4535 0.661221ZM23.7264 0.661221C23.2229 0.661221 22.7824 1.12388 22.7824 1.65262C22.7824 2.18137 23.2229 2.64403 23.7264 2.64403C24.2299 2.64403 24.6704 2.18137 24.6704 1.65262C24.6704 1.12388 24.2299 0.661221 23.7264 0.661221ZM18.0623 0.661221C17.5588 0.661221 17.1183 1.12388 17.1183 1.65262C17.1183 2.18137 17.4959 2.64403 18.0623 2.64403C18.5658 2.64403 19.0063 2.18137 19.0063 1.65262C19.0063 1.12388 18.5658 0.661221 18.0623 0.661221ZM12.3352 0.661221C11.8318 0.661221 11.3912 1.12388 11.3912 1.65262C11.3912 2.18137 11.8318 2.64403 12.3352 2.64403C12.8387 2.64403 13.2793 2.18137 13.2793 1.65262C13.2793 1.12388 12.8387 0.661221 12.3352 0.661221ZM6.6711 0.661221C6.10469 0.661221 5.72708 1.12388 5.72708 1.65262C5.72708 2.18137 6.10469 2.64403 6.6711 2.64403C7.17458 2.64403 7.61512 2.18137 7.61512 1.65262C7.61512 1.12388 7.17458 0.661221 6.6711 0.661221Z" fill="#213564"/>
</svg>
