<svg width="238" height="39" viewBox="0 0 238 39" fill="none" xmlns="http://www.w3.org/2000/svg">
<path d="M8.28551 14.6769V35.5174C8.28551 36.82 7.22897 37.9526 5.89439 37.9526H2.39112C1.11215 37.9526 0 36.8766 0 35.5174V3.63369C0 2.33115 1.05654 1.19852 2.39112 1.19852H6.7285C7.78505 1.19852 8.67477 1.65157 9.39766 2.67095L19.4626 16.659L28.9159 2.72758C29.5832 1.7082 30.4173 1.19852 31.4738 1.19852H35.3107C36.5897 1.19852 37.7019 2.27452 37.7019 3.63369V35.5174C37.7019 36.82 36.6453 37.9526 35.3107 37.9526H31.8631C30.5841 37.9526 29.472 36.8766 29.472 35.5174V14.5636L22.0206 25.2104C20.2411 27.7022 17.5164 27.7022 15.7369 25.2104L8.28551 14.6769Z" fill="#213564"/>
<path d="M49.8244 6.01223C53.3833 2.38779 57.9431 0.632202 63.6151 0.632202C69.2314 0.632202 73.7912 2.38779 77.4057 5.84234C80.9646 9.29688 82.744 13.9407 82.744 19.6605C82.744 25.1538 80.9646 29.741 77.3501 33.3088C73.68 36.8766 69.1202 38.6322 63.6151 38.6322C57.9987 38.6322 53.4389 36.8766 49.88 33.4221C46.2655 29.9675 44.4861 25.3237 44.4861 19.6039C44.4305 14.1672 46.2655 9.58004 49.8244 6.01223ZM56.2749 27.4757C58.2767 29.6277 60.7791 30.7037 63.6151 30.7037C66.8959 30.7037 69.5095 29.6277 71.2889 27.5323C73.0683 25.4936 74.0137 22.8319 74.0137 19.5473C74.0137 16.2626 73.0127 13.5443 71.0109 11.5055C69.009 9.46678 66.5067 8.39077 63.6151 8.39077C60.5567 8.39077 58.1099 9.41014 56.1637 11.4489C54.2174 13.4876 53.2165 16.206 53.2165 19.5473C53.2165 22.7186 54.2174 25.3237 56.2749 27.4757Z" fill="#213564"/>
<path d="M116.942 35.5174C116.942 36.82 115.886 37.9526 114.551 37.9526H111.048C109.769 37.9526 108.657 36.8766 108.657 35.5174V9.07036H100.705L99.9265 15.9795C97.7578 33.5353 94.477 38.1225 87.1368 38.1791C85.7466 38.1791 84.8013 37.273 84.8013 36.0271V32.8558C84.8013 31.2134 85.2461 30.5338 86.97 29.741C88.4158 29.118 89.5279 27.3625 90.362 24.4742C91.1405 21.6426 91.8634 16.2626 92.4195 8.44741L92.7531 3.52044C92.92 2.10464 93.9765 1.08527 95.2555 1.08527H114.44C115.719 1.08527 116.831 2.16127 116.831 3.52044V35.5174H116.942Z" fill="#213564"/>
<path d="M129.009 6.01223C132.568 2.38779 137.128 0.632202 142.8 0.632202C148.416 0.632202 152.976 2.38779 156.591 5.84234C160.149 9.29688 161.929 13.9407 161.929 19.6605C161.929 25.1538 160.149 29.741 156.535 33.3088C152.865 36.8766 148.305 38.6322 142.8 38.6322C137.184 38.6322 132.624 36.8766 129.065 33.4221C125.45 29.9675 123.671 25.3237 123.671 19.6039C123.671 14.1672 125.45 9.58004 129.009 6.01223ZM135.46 27.4757C137.462 29.6277 139.964 30.7037 142.8 30.7037C146.081 30.7037 148.694 29.6277 150.474 27.5323C152.253 25.4936 153.198 22.8319 153.198 19.5473C153.198 16.2626 152.198 13.5443 150.196 11.5055C148.194 9.46678 145.691 8.39077 142.8 8.39077C139.741 8.39077 137.295 9.41014 135.348 11.4489C133.402 13.4876 132.401 16.206 132.401 19.5473C132.401 22.7186 133.402 25.3237 135.46 27.4757Z" fill="#213564"/>
<path d="M176.943 20.4534V35.5174C176.943 36.82 175.886 37.9526 174.552 37.9526H171.048C169.769 37.9526 168.657 36.8766 168.657 35.5174V3.63369C168.657 2.33115 169.714 1.19852 171.048 1.19852H174.552C175.831 1.19852 176.943 2.27452 176.943 3.63369V17.2253L187.675 2.67095C188.398 1.65157 189.399 1.19852 190.567 1.19852H193.959C195.238 1.19852 196.239 2.27452 196.239 3.46379C196.239 3.97348 196.072 4.48317 195.738 4.93622L185.117 18.1314L196.906 34.1016C197.239 34.5547 197.406 35.0644 197.406 35.5741C197.406 36.82 196.405 37.9526 195.015 37.9526H191.067C189.899 37.9526 188.898 37.4429 188.175 36.4235L176.943 20.4534Z" fill="#213564"/>
<path d="M205.081 6.01223C208.639 2.38779 213.199 0.632202 218.871 0.632202C224.488 0.632202 229.047 2.38779 232.662 5.84234C236.221 9.29688 238 13.9407 238 19.6605C238 25.1538 236.221 29.741 232.606 33.3088C228.936 36.8766 224.376 38.6322 218.871 38.6322C213.255 38.6322 208.695 36.8766 205.136 33.4221C201.522 29.9675 199.742 25.3237 199.742 19.6039C199.742 14.1672 201.522 9.58004 205.081 6.01223ZM211.531 27.4757C213.533 29.6277 216.035 30.7037 218.871 30.7037C222.152 30.7037 224.766 29.6277 226.545 27.5323C228.324 25.4936 229.27 22.8319 229.27 19.5473C229.27 16.2626 228.269 13.5443 226.267 11.5055C224.265 9.46678 221.763 8.39077 218.871 8.39077C215.813 8.39077 213.366 9.41014 211.42 11.4489C209.473 13.4876 208.473 16.206 208.473 19.5473C208.473 22.7186 209.529 25.3237 211.531 27.4757Z" fill="#213564"/>
</svg>
