<svg width="50" height="50" viewBox="0 0 50 50" fill="none" xmlns="http://www.w3.org/2000/svg">
<rect width="50" height="50" rx="25" fill="#213564"/>
<path d="M32.9688 16.6562H31.75L31.6563 14.3125H17.6875H14.5938C14.3125 14.2187 13.9375 14.4062 13.6563 14.6875C13.375 14.9687 13.2812 15.5312 13.375 16L16.5625 27.1562L16.375 32.3125C16.375 33.25 16.6563 34.0937 17.3125 34.75C17.875 35.4062 18.7188 35.6875 19.4688 35.6875L29.4063 35.5937C30.25 35.5937 31 35.2187 31.6563 34.6562C32.3125 34 32.5938 33.0625 32.5938 32.2187V31.2812H33.8125C34.9375 31.2812 35.875 30.5312 35.9688 29.5L36.8125 20.4062C36.7188 18.1562 35.125 16.6562 32.9688 16.6562ZM14.7813 15.7187H17.0313H17.125L16.8438 22.6562V22.5625L14.7813 15.7187ZM31.0938 32.3125C31.0938 32.875 30.9062 33.3437 30.5312 33.7187C30.25 34.0937 29.7813 34.2812 29.3125 34.2812L19.375 34.375C18.9063 34.375 18.5312 34.1875 18.1562 33.8125C17.7812 33.4375 17.5938 32.875 17.5938 32.4062V31.4687L18.4375 15.7187H18.5313L30.3438 15.625L30.4375 16.5625L31.1875 31.2812L31.0938 32.3125ZM34.4688 29.4062C34.4688 29.6875 34.0938 29.9687 33.625 29.9687H32.4062L31.8438 18.0625H32.9688C34.375 18.0625 35.2188 19 35.2188 20.4062L34.4688 29.4062Z" fill="white"/>
<path d="M28.5043 17.2985L27.5684 17.353L28.4349 32.2339L29.3708 32.1794L28.5043 17.2985Z" fill="white"/>
</svg>
